SplineFontDB: 3.0
FontName: Savate Serif
FullName: Savate 
FamilyName: Savate
Weight: Normal
Version: 0.0
StyleMapFamilyName: 
ItalicAngle: 0
UnderlinePosition: 0
UnderlineWidth: 0
Ascent: 800
Descent: 200
InvalidEm: 0
UFOAscent: 800
UFODescent: -200
LayerCount: 2
Layer: 0 0 "Back" 1
Layer: 1 0 "Fore" 0
StyleMap: 0x0000
FSType: 4
OS2Version: 0
OS2_WeightWidthSlopeOnly: 0
OS2_UseTypoMetrics: 0
CreationTime: 1523022696
ModificationTime: 1523033398
PfmFamily: 16
TTFWeight: 400
TTFWidth: 5
LineGap: 200
VLineGap: 0
Panose: 0 0 0 0 0 0 0 0 0 0
OS2TypoAscent: 800
OS2TypoAOffset: 0
OS2TypoDescent: -200
OS2TypoDOffset: 0
OS2TypoLinegap: 200
OS2WinAscent: 1116
OS2WinAOffset: 0
OS2WinDescent: 243
OS2WinDOffset: 0
HheadAscent: 800
HheadAOffset: 0
HheadDescent: -200
HheadDOffset: 0
OS2SubXSize: 650
OS2SubYSize: 600
OS2SubXOff: 0
OS2SubYOff: 75
OS2SupXSize: 650
OS2SupYSize: 600
OS2SupXOff: 0
OS2SupYOff: 350
OS2StrikeYSize: 0
OS2StrikeYPos: 330
OS2CapHeight: 730
OS2XHeight: 550
OS2Vendor: 'NONE'
OS2CodePages: 20000093.00000000
OS2UnicodeRanges: 00000007.00000000.00000000.00000000
Lookup: 1 0 0 "lnumLiningFiguresinLatinlookup0" { "lnumLiningFiguresinLatinlookup0 subtable"  } ['lnum' ('latn' <'dflt' > 'DFLT' <'dflt' > ) ]
Lookup: 1 0 0 "onumOldstyleFiguresinLatinlookup1" { "onumOldstyleFiguresinLatinlookup1 subtable" ("oldstyle") } ['onum' ('latn' <'dflt' > 'DFLT' <'dflt' > ) ]
DEI: 91125
LangName: 1033 "" "" "" "0.000;NONE;Savate-" "" "Version 0.000;PS 0.0;hotconv 1.0.72;makeotf.lib2.5.5900 DEVELOPMENT" "" "" "We.ch" "Max Esn+AOkA-e" "" "www.collectif-we.ch" "www.max-esnee.com"
PickledDataWithLists: "(dp1
S'com.typemytype.robofont.compileSettings.autohint'
p2
I1
sS'com.typemytype.robofont.compileSettings.decompose'
p3
I1
sS'com.typemytype.robofont.foreground.layerStrokeColor'
p4
(lp5
F0.5
aF0
aF0.5
aF0.69999999999999996
asS'com.typemytype.robofont.compileSettings.path'
p6
S'/Users/johnvetter/Desktop/Github/Savate-Serif/src/savate-serif.otf'
p7

StartChar: .notdef
Encoding: 0 -1 0
GlifName: _notdef
Width: 580
VWidth: 0
Flags: W
HStem: 0 126<96 484 96 545 35 484> 151 75<260.5 287.5> 485 92<266 322.5> 605 125<96 484 96 96>
VStem: 35 61<126 605 126 730> 213 49<301.5 309 291.5 345> 232 82<173.5 199> 375 41<437.5 457> 484 61<126 605 605 605>
LayerCount: 2
Fore
SplineSet
545 0 m 257
 35 0 l 257
 35 730 l 257
 545 730 l 257
 545 0 l 257
484 605 m 257
 96 605 l 257
 96 126 l 257
 484 126 l 257
 484 605 l 257
315 331 m 256
 300 329 262 322 262 296 c 256
 262 287 265 269 275 258 c 257
 236 253 l 257
 223 271 213 292 213 311 c 256
 213 379 249 402 311 410 c 256
 361 415 375 428 375 447 c 256
 375 467 356 485 289 485 c 256
 243 485 211 471 197 445 c 257
 158 482 l 257
 173 545 215 577 289 577 c 256
 367 577 416 531 416 450 c 256
 416 376 378 338 315 331 c 256
314 185 m 256
 314 162 299 151 276 151 c 256
 245 151 232 162 232 185 c 256
 232 213 245 226 276 226 c 256
 299 226 314 213 314 185 c 256
EndSplineSet
PickledDataWithLists: "(dp1
S'com.fontlab.hintData'
p2
(dp3
S'vhints'
p4
(lp5
(dp6
S'position'
p7
I35
sS'width'
p8
I61
sa(dp9
g7
I213
sg8
I49
sa(dp10
g7
I232
sg8
I82
sa(dp11
g7
I375
sg8
I41
sa(dp12
g7
I484
sg8
I61
sasS'hhints'
p13
(lp14
(dp15
g7
I0
sg8
I126
sa(dp16
g7
I151
sg8
I75
sa(dp17
g7
I485
sg8
I92
sa(dp18
g7
I605
sg8
I125
sass."
EndChar

StartChar: A
Encoding: 1 65 1
GlifName: A_
Width: 791
VWidth: 0
GlyphClass: 2
Flags: HW
HStem: 202 76<281 538 281 567 251 538>
VStem: 72 646<0 0>
LayerCount: 2
Fore
SplineSet
582 570 m 261
 461 570 580 570 459 570 c 261
 329 730 l 261
 582 730 l 261
 582 570 l 261
772 0 m 261
 671.666992188 0 571.333007812 0 471 0 c 261
 471 140 l 261
 772 140 l 261
 772 0 l 261
394 0 m 261
 273 0 152 0 31 0 c 261
 31 140 l 261
 394 140 l 261
 394 0 l 261
420 583 m 261
 332 330 l 261
 515 330 l 261
 420 583 l 261
638 0 m 261
 541 259 l 261
 309 259 l 261
 223 0 l 261
 73 0 l 261
 329 730 l 261
 452 730 l 261
 719 0 l 261
 638 0 l 261
EndSplineSet
PickledDataWithLists: "(dp1
S'com.fontlab.hintData'
p2
(dp3
S'vhints'
p4
(lp5
(dp6
S'position'
p7
I72
sS'width'
p8
I646
sasS'hhints'
p9
(lp10
(dp11
g7
I202
sg8
I76
sass."
EndChar

StartChar: AE
Encoding: 2 198 2
GlifName: A_E_
Width: 980
VWidth: 0
GlyphClass: 2
Flags: W
HStem: 0 131<527 865 527 865 457 865> 202 66<256 457 256 457 230 457> 312 86<527 768 527 768> 551 179<527 858 527 527>
VStem: 457 70<131 202 202 202 268 312 398 551>
LayerCount: 2
Fore
SplineSet
370 556 m 257
 256 268 l 257
 457 268 l 257
 457 556 l 257
 370 556 l 257
457 0 m 257
 457 202 l 257
 230 202 l 257
 150 0 l 257
 31 0 l 257
 289 730 l 257
 858 730 l 257
 858 551 l 257
 527 551 l 257
 527 398 l 257
 768 398 l 257
 768 312 l 257
 527 312 l 257
 527 131 l 257
 865 131 l 257
 865 0 l 257
 457 0 l 257
EndSplineSet
PickledDataWithLists: "(dp1
S'com.fontlab.hintData'
p2
(dp3
S'vhints'
p4
(lp5
(dp6
S'position'
p7
I457
sS'width'
p8
I70
sasS'hhints'
p9
(lp10
(dp11
g7
I0
sg8
I131
sa(dp12
g7
I202
sg8
I66
sa(dp13
g7
I312
sg8
I86
sa(dp14
g7
I551
sg8
I179
sass."
EndChar

StartChar: AEacute
Encoding: 3 508 3
GlifName: A_E_acute
Width: 980
VWidth: 0
GlyphClass: 2
Flags: W
HStem: 0 131<517 855 517 855 447 855> 202 66<246 447 246 447 220 447> 312 86<517 758 517 758> 551 179<517 848 517 517> 835 109
VStem: 447 70<131 202 202 202 268 312 398 551>
LayerCount: 2
Fore
SplineSet
377 773 m 257
 365 795 l 257
 400 898 539 961 646 940 c 257
 641 814 l 257
 563 853 431 835 377 773 c 257
360 556 m 257
 246 268 l 257
 447 268 l 257
 447 556 l 257
 360 556 l 257
447 0 m 257
 447 202 l 257
 220 202 l 257
 140 0 l 257
 21 0 l 257
 279 730 l 257
 848 730 l 257
 848 551 l 257
 517 551 l 257
 517 398 l 257
 758 398 l 257
 758 312 l 257
 517 312 l 257
 517 131 l 257
 855 131 l 257
 855 0 l 257
 447 0 l 257
EndSplineSet
PickledDataWithLists: "(dp1
S'com.fontlab.hintData'
p2
(dp3
S'vhints'
p4
(lp5
(dp6
S'position'
p7
I447
sS'width'
p8
I70
sasS'hhints'
p9
(lp10
(dp11
g7
I0
sg8
I131
sa(dp12
g7
I202
sg8
I66
sa(dp13
g7
I312
sg8
I86
sa(dp14
g7
I551
sg8
I179
sa(dp15
g7
I835
sg8
I109
sass."
EndChar

StartChar: Aacute
Encoding: 4 193 4
GlifName: A_acute
Width: 730
VWidth: 0
GlyphClass: 2
Flags: HW
HStem: 202 76<261 498 261 527 231 498> 835 109
VStem: 32 646<0 0>
LayerCount: 2
Fore
SplineSet
552 570 m 261
 431 570 550 570 429 570 c 261
 299 730 l 261
 552 730 l 261
 552 570 l 261
742 0 m 261
 641.666992188 0 541.333007812 0 441 0 c 261
 441 140 l 261
 742 140 l 261
 742 0 l 261
364 0 m 261
 243 0 122 0 1 0 c 261
 1 140 l 261
 364 140 l 261
 364 0 l 261
390 583 m 261
 302 330 l 261
 485 330 l 261
 390 583 l 261
608 0 m 261
 511 259 l 261
 279 259 l 261
 193 0 l 261
 43 0 l 261
 299 730 l 261
 422 730 l 261
 689 0 l 261
 608 0 l 261
217 773 m 257
 205 795 l 257
 240 898 379 961 486 940 c 257
 481 814 l 257
 403 853 271 835 217 773 c 257
EndSplineSet
PickledDataWithLists: "(dp1
S'com.fontlab.hintData'
p2
(dp3
S'vhints'
p4
(lp5
(dp6
S'position'
p7
I32
sS'width'
p8
I646
sasS'hhints'
p9
(lp10
(dp11
g7
I202
sg8
I76
sa(dp12
g7
I835
sg8
I109
sass."
EndChar

StartChar: Abreve
Encoding: 5 258 5
GlifName: A_breve
Width: 730
VWidth: 0
GlyphClass: 2
Flags: HW
HStem: 202 76<261 498 261 527 231 498> 779 87<329.5 394.5 329.5 411>
VStem: 195 51<897 960> 485 50<897 960>
LayerCount: 2
Fore
SplineSet
542 570 m 261
 421 570 540 570 419 570 c 261
 289 730 l 261
 542 730 l 261
 542 570 l 261
732 0 m 261
 631.666992188 0 531.333007812 0 431 0 c 261
 431 140 l 261
 732 140 l 261
 732 0 l 261
354 0 m 261
 233 0 112 0 -9 0 c 261
 -9 140 l 261
 354 140 l 261
 354 0 l 261
380 583 m 261
 292 330 l 261
 475 330 l 261
 380 583 l 261
598 0 m 261
 501 259 l 261
 269 259 l 261
 183 0 l 261
 33 0 l 261
 289 730 l 261
 412 730 l 261
 679 0 l 261
 598 0 l 261
360 779 m 256
 264 779 195 834 195 960 c 257
 246 960 l 257
 245 889 299 866 360 866 c 256
 429 866 486 889 485 960 c 257
 535 960 l 257
 535 834 462 779 360 779 c 256
EndSplineSet
PickledDataWithLists: "(dp1
S'com.fontlab.hintData'
p2
(dp3
S'vhints'
p4
(lp5
(dp6
S'position'
p7
I195
sS'width'
p8
I51
sa(dp9
g7
I485
sg8
I50
sasS'hhints'
p10
(lp11
(dp12
g7
I202
sg8
I76
sa(dp13
g7
I779
sg8
I87
sass."
EndChar

StartChar: Acircumflex
Encoding: 6 194 6
GlifName: A_circumflex
Width: 730
VWidth: 0
GlyphClass: 2
Flags: HW
HStem: 202 76<261 498 261 527 231 498>
VStem: 183 364<785 819 785 819>
LayerCount: 2
Fore
SplineSet
542 570 m 257
 421 570 540 570 419 570 c 257
 289 730 l 257
 542 730 l 257
 542 570 l 257
732 0 m 257
 631.666992188 0 531.333007812 0 431 0 c 257
 431 140 l 257
 732 140 l 257
 732 0 l 257
354 0 m 257
 233 0 112 0 -9 0 c 257
 -9 140 l 257
 354 140 l 257
 354 0 l 257
380 583 m 257
 292 330 l 257
 475 330 l 257
 380 583 l 257
598 0 m 257
 501 259 l 257
 269 259 l 257
 183 0 l 257
 33 0 l 257
 289 730 l 257
 412 730 l 257
 679 0 l 257
 598 0 l 257
547 785 m 257
 479 780 385 799 365 839 c 257
 345 799 251 780 183 785 c 257
 183 819 l 257
 247 830 323 901 355 960 c 257
 375 960 l 257
 407 901 483 830 547 819 c 257
 547 785 l 257
EndSplineSet
PickledDataWithLists: "(dp1
S'com.fontlab.hintData'
p2
(dp3
S'vhints'
p4
(lp5
(dp6
S'position'
p7
I183
sS'width'
p8
I364
sasS'hhints'
p9
(lp10
(dp11
g7
I202
sg8
I76
sass."
EndChar

StartChar: Adieresis
Encoding: 7 196 7
GlifName: A_dieresis
Width: 730
VWidth: 0
GlyphClass: 2
Flags: HW
HStem: 202 76<261 498 261 527 231 498> 786 131<236.5 286 447 496>
VStem: 183 154<828.5 873.5> 393 154<828.5 873.5>
LayerCount: 2
Fore
SplineSet
542 570 m 261
 421 570 540 570 419 570 c 261
 289 730 l 261
 542 730 l 261
 542 570 l 261
732 0 m 261
 631.666992188 0 531.333007812 0 431 0 c 261
 431 140 l 261
 732 140 l 261
 732 0 l 261
354 0 m 261
 233 0 112 0 -9 0 c 261
 -9 140 l 261
 354 140 l 261
 354 0 l 261
380 583 m 261
 292 330 l 261
 475 330 l 261
 380 583 l 261
598 0 m 261
 501 259 l 261
 269 259 l 261
 183 0 l 261
 33 0 l 261
 289 730 l 261
 412 730 l 261
 679 0 l 261
 598 0 l 261
547 850 m 256
 547 807 519 786 473 786 c 256
 421 786 393 807 393 850 c 256
 393 897 420 917 473 917 c 256
 520 917 547 898 547 850 c 256
337 850 m 256
 337 807 309 786 263 786 c 256
 210 786 183 807 183 850 c 256
 183 897 210 917 263 917 c 256
 310 917 337 898 337 850 c 256
EndSplineSet
PickledDataWithLists: "(dp1
S'com.fontlab.hintData'
p2
(dp3
S'vhints'
p4
(lp5
(dp6
S'position'
p7
I183
sS'width'
p8
I154
sa(dp9
g7
I393
sg8
I154
sasS'hhints'
p10
(lp11
(dp12
g7
I202
sg8
I76
sa(dp13
g7
I786
sg8
I131
sass."
EndChar

StartChar: Agrave
Encoding: 8 192 8
GlifName: A_grave
Width: 730
VWidth: 0
GlyphClass: 2
Flags: HW
HStem: 202 76<261 498 261 527 231 498> 835 109
VStem: 32 646<0 0>
LayerCount: 2
Fore
SplineSet
542 570 m 261
 421 570 540 570 419 570 c 261
 289 730 l 261
 542 730 l 261
 542 570 l 261
732 0 m 261
 631.666992188 0 531.333007812 0 431 0 c 261
 431 140 l 261
 732 140 l 261
 732 0 l 261
354 0 m 261
 233 0 112 0 -9 0 c 261
 -9 140 l 261
 354 140 l 261
 354 0 l 261
380 583 m 261
 292 330 l 261
 475 330 l 261
 380 583 l 261
598 0 m 261
 501 259 l 261
 269 259 l 261
 183 0 l 261
 33 0 l 261
 289 730 l 261
 412 730 l 261
 679 0 l 261
 598 0 l 261
505 773 m 257
 451 835 318 853 241 814 c 257
 236 940 l 257
 344 962 482 899 517 795 c 257
 505 773 l 257
EndSplineSet
PickledDataWithLists: "(dp1
S'com.fontlab.hintData'
p2
(dp3
S'vhints'
p4
(lp5
(dp6
S'position'
p7
I32
sS'width'
p8
I646
sasS'hhints'
p9
(lp10
(dp11
g7
I202
sg8
I76
sa(dp12
g7
I835
sg8
I109
sass."
EndChar

StartChar: Amacron
Encoding: 9 256 9
GlifName: A_macron
Width: 730
VWidth: 0
GlyphClass: 2
Flags: HW
HStem: 202 76<261 498 261 527 231 498> 791 99<191 539 191 539>
VStem: 191 348<791 890 791 890>
LayerCount: 2
Fore
SplineSet
542 570 m 261
 421 570 540 570 419 570 c 261
 289 730 l 261
 542 730 l 261
 542 570 l 261
732 0 m 261
 631.666992188 0 531.333007812 0 431 0 c 261
 431 140 l 261
 732 140 l 261
 732 0 l 261
354 0 m 261
 233 0 112 0 -9 0 c 261
 -9 140 l 261
 354 140 l 261
 354 0 l 261
380 583 m 261
 292 330 l 261
 475 330 l 261
 380 583 l 261
598 0 m 261
 501 259 l 261
 269 259 l 261
 183 0 l 261
 33 0 l 261
 289 730 l 261
 412 730 l 261
 679 0 l 261
 598 0 l 261
539 791 m 257
 191 791 l 257
 191 890 l 257
 539 890 l 257
 539 791 l 257
EndSplineSet
PickledDataWithLists: "(dp1
S'com.fontlab.hintData'
p2
(dp3
S'vhints'
p4
(lp5
(dp6
S'position'
p7
I191
sS'width'
p8
I348
sasS'hhints'
p9
(lp10
(dp11
g7
I202
sg8
I76
sa(dp12
g7
I791
sg8
I99
sass."
EndChar

StartChar: Aogonek
Encoding: 10 260 10
GlifName: A_ogonek
Width: 730
VWidth: 0
GlyphClass: 2
Flags: HW
HStem: -210 47<645.5 741> 202 76<261 498 261 527 231 498>
VStem: 551 95<-103 -86.5>
LayerCount: 2
Fore
SplineSet
542 570 m 257
 421 570 540 570 419 570 c 257
 289 730 l 257
 542 730 l 257
 542 570 l 257
732 0 m 257
 631.666992188 0 531.333007812 0 431 0 c 257
 431 140 l 257
 732 140 l 257
 732 0 l 257
354 0 m 257
 233 0 112 0 -9 0 c 257
 -9 140 l 257
 354 140 l 257
 354 0 l 257
380 583 m 257
 292 330 l 257
 475 330 l 257
 380 583 l 257
598 0 m 257
 501 259 l 257
 269 259 l 257
 183 0 l 257
 33 0 l 257
 289 730 l 257
 412 730 l 257
 679 0 l 257
 598 0 l 257
574.969726562 76 m 1
 602 5 l 257
 564 -31 551 -70 551 -103 c 256
 552 -167 600 -210 691 -210 c 256
 733 -210 771 -203 793 -190 c 257
 780 -155 l 257
 766 -162 749 -163 733 -163 c 256
 685 -162 646 -129 646 -81 c 256
 646 -42 660 -12 677 0 c 257
 678 0 l 257
 574.969726562 76 l 1
EndSplineSet
PickledDataWithLists: "(dp1
S'com.fontlab.hintData'
p2
(dp3
S'vhints'
p4
(lp5
(dp6
S'position'
p7
I551
sS'width'
p8
I95
sasS'hhints'
p9
(lp10
(dp11
g7
I-210
sg8
I47
sa(dp12
g7
I202
sg8
I76
sass."
EndChar

StartChar: Aring
Encoding: 11 197 11
GlifName: A_ring
Width: 730
VWidth: 0
GlyphClass: 2
Flags: HW
HStem: 202 76<261 498 261 527 231 498> 783 57<342 389 342 396> 935 59<341 388.5>
VStem: 260 35<885 885> 436 34<885 885>
LayerCount: 2
Fore
SplineSet
542 570 m 261
 421 570 540 570 419 570 c 261
 289 730 l 261
 542 730 l 261
 542 570 l 261
732 0 m 261
 631.666992188 0 531.333007812 0 431 0 c 261
 431 140 l 261
 732 140 l 261
 732 0 l 261
354 0 m 261
 233 0 112 0 -9 0 c 261
 -9 140 l 261
 354 140 l 261
 354 0 l 261
380 583 m 261
 292 330 l 261
 475 330 l 261
 380 583 l 261
598 0 m 261
 501 259 l 261
 269 259 l 261
 183 0 l 261
 33 0 l 261
 289 730 l 261
 412 730 l 261
 679 0 l 261
 598 0 l 261
470 885 m 256
 469 814 426 783 366 783 c 256
 312 783 261 814 260 885 c 256
 261 962 303 994 364 994 c 256
 420 994 469 962 470 885 c 256
436 885 m 256
 435 912 413 935 364 935 c 256
 318 935 295 915 295 885 c 256
 295 858 318 840 366 840 c 256
 412 840 437 857 436 885 c 256
EndSplineSet
PickledDataWithLists: "(dp1
S'com.fontlab.hintData'
p2
(dp3
S'vhints'
p4
(lp5
(dp6
S'position'
p7
I260
sS'width'
p8
I35
sa(dp9
g7
I436
sg8
I34
sasS'hhints'
p10
(lp11
(dp12
g7
I202
sg8
I76
sa(dp13
g7
I783
sg8
I57
sa(dp14
g7
I935
sg8
I59
sass."
EndChar

StartChar: Aringacute
Encoding: 12 506 12
GlifName: A_ringacute
Width: 730
VWidth: 0
GlyphClass: 2
Flags: HW
HStem: 202 76<261 498 261 527 231 498> 763 57<344 391 344 398> 915 59<343 390.5> 1007 109
VStem: 262 35<865 865> 438 34<865 865>
LayerCount: 2
Fore
SplineSet
542 570 m 261
 421 570 540 570 419 570 c 261
 289 730 l 261
 542 730 l 261
 542 570 l 261
732 0 m 261
 631.666992188 0 531.333007812 0 431 0 c 261
 431 140 l 261
 732 140 l 261
 732 0 l 261
354 0 m 261
 233 0 112 0 -9 0 c 261
 -9 140 l 261
 354 140 l 261
 354 0 l 261
380 583 m 261
 292 330 l 261
 475 330 l 261
 380 583 l 261
598 0 m 261
 501 259 l 261
 269 259 l 261
 183 0 l 261
 33 0 l 261
 289 730 l 261
 412 730 l 261
 679 0 l 261
 598 0 l 261
211 945 m 257
 199 967 l 257
 234 1070 373 1133 480 1112 c 257
 475 986 l 257
 397 1025 265 1007 211 945 c 257
472 865 m 256
 471 794 428 763 368 763 c 256
 314 763 263 794 262 865 c 256
 263 942 305 974 366 974 c 256
 422 974 471 942 472 865 c 256
438 865 m 256
 437 892 415 915 366 915 c 256
 320 915 297 895 297 865 c 256
 297 838 320 820 368 820 c 256
 414 820 439 837 438 865 c 256
EndSplineSet
PickledDataWithLists: "(dp1
S'com.fontlab.hintData'
p2
(dp3
S'vhints'
p4
(lp5
(dp6
S'position'
p7
I262
sS'width'
p8
I35
sa(dp9
g7
I438
sg8
I34
sasS'hhints'
p10
(lp11
(dp12
g7
I202
sg8
I76
sa(dp13
g7
I763
sg8
I57
sa(dp14
g7
I915
sg8
I59
sa(dp15
g7
I1007
sg8
I109
sass."
EndChar

StartChar: Atilde
Encoding: 13 195 13
GlifName: A_tilde
Width: 730
VWidth: 0
GlyphClass: 2
Flags: HW
HStem: 202 76<261 498 261 527 231 498> 811 82
VStem: 32 646<0 0>
LayerCount: 2
Fore
SplineSet
542 570 m 261
 421 570 540 570 419 570 c 261
 289 730 l 261
 542 730 l 261
 542 570 l 261
732 0 m 261
 631.666992188 0 531.333007812 0 431 0 c 261
 431 140 l 261
 732 140 l 261
 732 0 l 261
354 0 m 261
 233 0 112 0 -9 0 c 261
 -9 140 l 261
 354 140 l 261
 354 0 l 261
380 583 m 261
 292 330 l 261
 475 330 l 261
 380 583 l 261
598 0 m 261
 501 259 l 261
 269 259 l 261
 183 0 l 261
 33 0 l 261
 289 730 l 261
 412 730 l 261
 679 0 l 261
 598 0 l 261
367 906 m 256
 444 886 518 889 537 910 c 257
 544 897 l 257
 510 811 431 772 364 795 c 256
 281 823 216 811 194 786 c 257
 187 799 l 257
 214 876 284 928 367 906 c 256
EndSplineSet
PickledDataWithLists: "(dp1
S'com.fontlab.hintData'
p2
(dp3
S'vhints'
p4
(lp5
(dp6
S'position'
p7
I32
sS'width'
p8
I646
sasS'hhints'
p9
(lp10
(dp11
g7
I202
sg8
I76
sa(dp12
g7
I811
sg8
I82
sass."
EndChar

StartChar: B
Encoding: 14 66 14
GlifName: B_
Width: 680
VWidth: 0
GlyphClass: 2
Flags: W
HStem: 0 160 329 72<206 444 206 447> 570 160<50 413 50 110.5 206 206 206 413 413 427>
VStem: 134 72<144 144 144 329 401 570> 562 72<482.5 507.5> 575 75<210.5 245.5 141.5 262.5>
LayerCount: 2
Fore
SplineSet
413 0 m 257
 292 0 171 0 50 0 c 257
 50 144 l 257
 413 144 l 257
 413 0 l 257
413 570 m 257
 292 570 171 570 50 570 c 257
 50 730 l 257
 413 730 l 257
 413 570 l 257
134 0 m 257
 134 730 l 257
 394 730 l 258
 556 730 634 648 634 539 c 256
 634 426 608 388 554 366 c 257
 625 341 650 293 650 198 c 256
 650 85 568 0 413 0 c 258
 134 0 l 257
206 401 m 257
 447 401 l 258
 541 401 562 439 562 487 c 256
 562 528 533 570 427 570 c 258
 206 570 l 257
 206 401 l 257
206 144 m 257
 447 144 l 258
 536 144 575 182 575 239 c 256
 575 286 544 329 444 329 c 258
 206 329 l 257
 206 144 l 257
EndSplineSet
PickledDataWithLists: "(dp1
S'com.fontlab.hintData'
p2
(dp3
S'vhints'
p4
(lp5
(dp6
S'position'
p7
I134
sS'width'
p8
I72
sa(dp9
g7
I562
sg8
I72
sa(dp10
g7
I575
sg8
I75
sasS'hhints'
p11
(lp12
(dp13
g7
I0
sg8
I160
sa(dp14
g7
I329
sg8
I72
sa(dp15
g7
I570
sg8
I160
sass."
EndChar

StartChar: C
Encoding: 15 67 15
GlifName: C_
Width: 660
VWidth: 0
GlyphClass: 2
Flags: HW
HStem: -10 139 553 187
VStem: 50 62
LayerCount: 2
Fore
SplineSet
564 730 m 261
 622 730 l 261
 622 481 l 261
 602.667 481 583.333 481 564 481 c 261
 564 730 l 261
581 255 m 261
 640 210 l 261
 607 69 507 -10 339 -10 c 260
 167 -10 50 108 50 354 c 260
 50 631 174.997 740 349 740 c 260
 479 740 589 656 589 538 c 261
 564 481 l 261
 529 525 458 548 349 548 c 260
 198 548 113 472 112 342 c 260
 111 211 190 139 353 139 c 260
 467 139 555 177 581 255 c 261
EndSplineSet
PickledDataWithLists: "(dp1
S'com.fontlab.hintData'
p2
(dp3
S'vhints'
p4
(lp5
(dp6
S'position'
p7
I50
sS'width'
p8
I62
sasS'hhints'
p9
(lp10
(dp11
g7
I-10
sg8
I139
sa(dp12
g7
I553
sg8
I187
sass."
EndChar

StartChar: Cacute
Encoding: 16 262 16
GlifName: C_acute
Width: 730
VWidth: 0
GlyphClass: 2
Flags: HW
HStem: -10 139<286.5 425 286.5 438> 553 187<364 364> 835 109
VStem: 65 62
LayerCount: 2
Fore
SplineSet
574 730 m 261
 632 730 l 261
 632 481 l 261
 612.666992188 481 593.333007812 481 574 481 c 261
 574 730 l 261
591 255 m 261
 650 210 l 261
 617 69 517 -10 349 -10 c 260
 177 -10 60 108 60 354 c 260
 60 631 184.997070312 740 359 740 c 260
 489 740 599 656 599 538 c 261
 574 481 l 261
 539 525 468 548 359 548 c 260
 208 548 123 472 122 342 c 260
 121 211 200 139 363 139 c 260
 477 139 565 177 591 255 c 261
217 773 m 257
 205 795 l 257
 240 898 379 961 486 940 c 257
 481 814 l 257
 403 853 271 835 217 773 c 257
EndSplineSet
PickledDataWithLists: "(dp1
S'com.fontlab.hintData'
p2
(dp3
S'vhints'
p4
(lp5
(dp6
S'position'
p7
I65
sS'width'
p8
I62
sasS'hhints'
p9
(lp10
(dp11
g7
I-10
sg8
I139
sa(dp12
g7
I553
sg8
I187
sa(dp13
g7
I835
sg8
I109
sass."
EndChar

StartChar: Ccaron
Encoding: 17 268 17
GlifName: C_caron
Width: 730
VWidth: 0
GlyphClass: 2
Flags: HW
HStem: -10 139<286.5 425 286.5 438> 553 187<364 364>
VStem: 65 62 183 364<916 950 916 950>
LayerCount: 2
Fore
SplineSet
574 730 m 261
 632 730 l 261
 632 481 l 261
 612.666992188 481 593.333007812 481 574 481 c 261
 574 730 l 261
591 255 m 261
 650 210 l 261
 617 69 517 -10 349 -10 c 260
 177 -10 60 108 60 354 c 260
 60 631 184.997070312 740 359 740 c 260
 489 740 599 656 599 538 c 261
 574 481 l 261
 539 525 468 548 359 548 c 260
 208 548 123 472 122 342 c 260
 121 211 200 139 363 139 c 260
 477 139 565 177 591 255 c 261
547 950 m 257
 547 916 l 257
 479 904 407 835 375 775 c 257
 355 775 l 257
 323 835 251 904 183 916 c 257
 183 950 l 257
 255 955 345 936 365 896 c 257
 385 936 475 955 547 950 c 257
EndSplineSet
PickledDataWithLists: "(dp1
S'com.fontlab.hintData'
p2
(dp3
S'vhints'
p4
(lp5
(dp6
S'position'
p7
I65
sS'width'
p8
I62
sa(dp9
g7
I183
sg8
I364
sasS'hhints'
p10
(lp11
(dp12
g7
I-10
sg8
I139
sa(dp13
g7
I553
sg8
I187
sass."
EndChar

StartChar: Ccedilla
Encoding: 18 199 18
GlifName: C_cedilla
Width: 730
VWidth: 0
GlyphClass: 2
Flags: HW
HStem: -210 76<339 394 339 399.5> -90 47<407 424> 553 187<364 364>
VStem: 65 62 305 62<-67.5 -22.5> 442 46<-117.5 -104>
LayerCount: 2
Fore
SplineSet
320.485912101 -9.53287176451 m 1025,0,0
564 481 m 257
 583.333 481 602.667 481 622 481 c 257
 622 730 l 257
 564 730 l 257
 564 625 l 5,0,0
 529 684 437.12502728 740 349 740 c 256
 174.997 740 50 631 50 354 c 256
 50 116.931593255 158.659179688 -1.2626953125 320.486328125 -9.533203125 c 257
 313.486328125 -23.533203125 305 -37 305 -55 c 256
 305 -80 329 -94 358 -94 c 256
 374 -94 398 -90 416 -90 c 256
 432 -90 442 -99 442 -109 c 256
 442 -126 427 -134 361 -134 c 256
 317 -134 284 -118 274 -101 c 257
 239 -157 l 257
 247 -192 305 -210 356 -210 c 256
 443 -210 488 -177 488 -112 c 256
 488 -63 461 -43 428 -43 c 256
 375 -43 367 -36 367 -25 c 256
 367 -20 367 -14.4892578125 368 -9.4892578125 c 257
 522.157226562 -2.5166015625 608.534840078 75.5579530622 640 210 c 257
 581 255 l 257
 555 177 467 139 353 139 c 256
 190 139 111 211 112 342 c 256
 113 472 198 548 349 548 c 256
 458 548 529 525 564 481 c 257
557.767786434 639.774332608 m 1025,0,0
EndSplineSet
PickledDataWithLists: "(dp1
S'com.fontlab.hintData'
p2
(dp3
S'vhints'
p4
(lp5
(dp6
S'position'
p7
I65
sS'width'
p8
I62
sa(dp9
g7
I305
sg8
I62
sa(dp10
g7
I442
sg8
I46
sasS'hhints'
p11
(lp12
(dp13
g7
I-210
sg8
I76
sa(dp14
g7
I-90
sg8
I47
sa(dp15
g7
I553
sg8
I187
sass."
EndChar

StartChar: Ccircumflex
Encoding: 19 264 19
GlifName: C_circumflex
Width: 730
VWidth: 0
GlyphClass: 2
Flags: HW
HStem: -10 139<286.5 425 286.5 438> 553 187<364 364>
VStem: 65 62 183 364<785 819 785 819>
LayerCount: 2
Fore
SplineSet
574 730 m 261
 632 730 l 261
 632 481 l 261
 612.666992188 481 593.333007812 481 574 481 c 261
 574 730 l 261
591 255 m 261
 650 210 l 261
 617 69 517 -10 349 -10 c 260
 177 -10 60 108 60 354 c 260
 60 631 184.997070312 740 359 740 c 260
 489 740 599 656 599 538 c 261
 574 481 l 261
 539 525 468 548 359 548 c 260
 208 548 123 472 122 342 c 260
 121 211 200 139 363 139 c 260
 477 139 565 177 591 255 c 261
547 785 m 257
 479 780 385 799 365 839 c 257
 345 799 251 780 183 785 c 257
 183 819 l 257
 247 830 323 901 355 960 c 257
 375 960 l 257
 407 901 483 830 547 819 c 257
 547 785 l 257
EndSplineSet
PickledDataWithLists: "(dp1
S'com.fontlab.hintData'
p2
(dp3
S'vhints'
p4
(lp5
(dp6
S'position'
p7
I65
sS'width'
p8
I62
sa(dp9
g7
I183
sg8
I364
sasS'hhints'
p10
(lp11
(dp12
g7
I-10
sg8
I139
sa(dp13
g7
I553
sg8
I187
sass."
EndChar

StartChar: Cdotaccent
Encoding: 20 266 20
GlifName: C_dotaccent
Width: 730
VWidth: 0
GlyphClass: 2
Flags: HW
HStem: -10 139<286.5 425 286.5 438> 553 187<364 364> 779 145<339 393.5>
VStem: 65 62 279 172<826 876>
LayerCount: 2
Fore
SplineSet
574 730 m 261
 632 730 l 261
 632 481 l 261
 612.666992188 481 593.333007812 481 574 481 c 261
 574 730 l 261
591 255 m 261
 650 210 l 261
 617 69 517 -10 349 -10 c 260
 177 -10 60 108 60 354 c 260
 60 631 184.997070312 740 359 740 c 260
 489 740 599 656 599 538 c 261
 574 481 l 261
 539 525 468 548 359 548 c 260
 208 548 123 472 122 342 c 260
 121 211 200 139 363 139 c 260
 477 139 565 177 591 255 c 261
451 850 m 256
 451 802 419 779 368 779 c 256
 310 779 279 802 279 850 c 256
 279 902 309 924 368 924 c 256
 420 924 451 903 451 850 c 256
EndSplineSet
PickledDataWithLists: "(dp1
S'com.fontlab.hintData'
p2
(dp3
S'vhints'
p4
(lp5
(dp6
S'position'
p7
I65
sS'width'
p8
I62
sa(dp9
g7
I279
sg8
I172
sasS'hhints'
p10
(lp11
(dp12
g7
I-10
sg8
I139
sa(dp13
g7
I553
sg8
I187
sa(dp14
g7
I779
sg8
I145
sass."
EndChar

StartChar: D
Encoding: 21 68 21
GlifName: D_
Width: 721
VWidth: 0
GlyphClass: 2
Flags: HW
HStem: 0 144<50 413 50 110.5 160 407 160 160> 555 175<50 413 50 110.5 232 232 232 413 413 424>
VStem: 160 72<144 144 144 555> 650 61<285.5 406>
LayerCount: 2
Fore
SplineSet
413 555 m 261
 292 555 171 555 50 555 c 261
 50 730 l 261
 413 730 l 261
 413 555 l 261
413 0 m 261
 292 -0 171 0 50 0 c 261
 50 144 l 261
 413 144 l 261
 413 0 l 261
160 0 m 257
 160 730 l 257
 403 730 l 258
 582 730 711 626 711 359 c 256
 711 90 583 0 407 0 c 258
 160 0 l 257
232 144 m 257
 441 144 l 258
 546 144 650 225 650 346 c 256
 650 466 561 555 424 555 c 258
 232 555 l 257
 232 144 l 257
EndSplineSet
PickledDataWithLists: "(dp1
S'com.fontlab.hintData'
p2
(dp3
S'vhints'
p4
(lp5
(dp6
S'position'
p7
I160
sS'width'
p8
I72
sa(dp9
g7
I650
sg8
I61
sasS'hhints'
p10
(lp11
(dp12
g7
I0
sg8
I144
sa(dp13
g7
I555
sg8
I175
sass."
EndChar

StartChar: Dcaron
Encoding: 22 270 22
GlifName: D_caron
Width: 780
VWidth: 0
GlyphClass: 2
Flags: HW
HStem: 0 144<130 411 202 377> 555 175<202 373 373 394 202 202>
VStem: 130 72<144 144 144 555> 183 364<916 950 916 950> 620 61<285.5 406>
LayerCount: 2
Fore
SplineSet
403 555 m 261
 282 555 161 555 40 555 c 261
 40 730 l 261
 403 730 l 261
 403 555 l 261
403 0 m 261
 282 0 161 0 40 0 c 261
 40 144 l 261
 403 144 l 261
 403 0 l 261
150 0 m 261
 150 730 l 261
 393 730 l 262
 572 730 701 626 701 359 c 260
 701 90 573 0 397 0 c 262
 150 0 l 261
222 144 m 261
 431 144 l 262
 536 144 640 225 640 346 c 260
 640 466 551 555 414 555 c 262
 222 555 l 261
 222 144 l 261
547 950 m 257
 547 916 l 257
 479 904 407 835 375 775 c 257
 355 775 l 257
 323 835 251 904 183 916 c 257
 183 950 l 257
 255 955 345 936 365 896 c 257
 385 936 475 955 547 950 c 257
EndSplineSet
PickledDataWithLists: "(dp1
S'com.fontlab.hintData'
p2
(dp3
S'vhints'
p4
(lp5
(dp6
S'position'
p7
I130
sS'width'
p8
I72
sa(dp9
g7
I183
sg8
I364
sa(dp10
g7
I620
sg8
I61
sasS'hhints'
p11
(lp12
(dp13
g7
I0
sg8
I144
sa(dp14
g7
I555
sg8
I175
sass."
EndChar

StartChar: Dcroat
Encoding: 23 272 23
GlifName: D_croat
Width: 780
VWidth: 0
GlyphClass: 2
Flags: HW
HStem: 0 144<192 367 120 401> 292 111<40 120 40 120 40 192 192 408> 555 175<192 363 363 384 192 192>
VStem: 120 72<144 144 144 292 403 555> 610 61<285.5 406>
LayerCount: 2
Fore
SplineSet
373 555 m 257
 252 555 131 555 10 555 c 257
 10 730 l 257
 373 730 l 257
 373 555 l 257
373 0 m 257
 252 0 131 0 10 0 c 257
 10 144 l 257
 373 144 l 257
 373 0 l 257
120 0 m 257
 120 730 l 257
 363 730 l 258
 542 730 671 626 671 359 c 256
 671 90 543 0 367 0 c 258
 120 0 l 257
192 144 m 257
 401 144 l 258
 506 144 610 225 610 346 c 256
 610 466 521 555 384 555 c 258
 192 555 l 257
 192 144 l 257
367 0 m 258
 120 0 l 257
 120 292 l 257
 40 292 l 257
 40 403 l 257
 120 403 l 257
 120 730 l 257
 363 730 l 258
 542 730 671 626 671 359 c 256
 671 90 543 0 367 0 c 258
192 144 m 257
 401 144 l 258
 506 144 610 225 610 346 c 256
 610 466 521 555 384 555 c 258
 192 555 l 257
 192 403 l 257
 408 403 l 257
 408 292 l 257
 192 292 l 257
 192 144 l 257
EndSplineSet
PickledDataWithLists: "(dp1
S'com.fontlab.hintData'
p2
(dp3
S'vhints'
p4
(lp5
(dp6
S'position'
p7
I120
sS'width'
p8
I72
sa(dp9
g7
I610
sg8
I61
sasS'hhints'
p10
(lp11
(dp12
g7
I0
sg8
I144
sa(dp13
g7
I292
sg8
I111
sa(dp14
g7
I555
sg8
I175
sass."
EndChar

StartChar: Delta
Encoding: 24 916 24
GlifName: D_elta
Width: 730
VWidth: 0
GlyphClass: 2
Flags: W
HStem: 0 126<212 566 212 688>
VStem: 42 646<0 0>
LayerCount: 2
Fore
SplineSet
566 126 m 257
 391 583 l 257
 212 126 l 257
 566 126 l 257
42 0 m 257
 298 730 l 257
 421 730 l 257
 688 0 l 257
 42 0 l 257
EndSplineSet
PickledDataWithLists: "(dp1
S'com.fontlab.hintData'
p2
(dp3
S'vhints'
p4
(lp5
(dp6
S'position'
p7
I42
sS'width'
p8
I646
sasS'hhints'
p9
(lp10
(dp11
g7
I0
sg8
I126
sass."
EndChar

StartChar: E
Encoding: 25 69 25
GlifName: E_
Width: 626
VWidth: 0
GlyphClass: 2
Flags: HW
HStem: 0 131<211 590 211 591 50 590 211 590 211 590 140 590 533 590 211 591 533 542.667> 312 86<211 493 211 493> 550 180<50 443 50 110.5 211 211 211 443 443 584>
VStem: 140 71<131 312 398 550>
LayerCount: 2
Fore
SplineSet
435 467 m 257
 483 467 l 257
 483 238 l 257
 463.666992188 238 454.333 238 435 238 c 257
 435 467 l 257
526 730 m 261
 584 730 l 261
 584 471 l 261
 564.667 471 545.333 471 526 471 c 261
 526 730 l 261
533 229 m 257
 591 229 l 257
 591 0 l 257
 571.667 -0 552.333 0 533 0 c 257
 533 229 l 257
443 550 m 257
 322 550 171 550 50 550 c 257
 50 730 l 257
 443 730 l 257
 443 550 l 257
591 0 m 257
 410.667 -0 230.333 0 50 0 c 257
 50 144 l 257
 591 144 l 257
 591 0 l 257
140 0 m 257
 140 730 l 257
 584 730 l 257
 584 550 l 257
 211 550 l 257
 211 383 l 257
 483 383 l 257
 483 327 l 257
 211 327 l 257
 211 131 l 257
 590 131 l 257
 590 0 l 257
 140 0 l 257
EndSplineSet
PickledDataWithLists: "(dp1
S'com.fontlab.hintData'
p2
(dp3
S'vhints'
p4
(lp5
(dp6
S'position'
p7
I140
sS'width'
p8
I71
sasS'hhints'
p9
(lp10
(dp11
g7
I0
sg8
I131
sa(dp12
g7
I312
sg8
I86
sa(dp13
g7
I550
sg8
I180
sass."
EndChar

StartChar: Eacute
Encoding: 26 201 26
GlifName: E_acute
Width: 630
VWidth: 0
GlyphClass: 2
Flags: HW
HStem: 0 131<80 530 151 530 151 530> 312 86<151 433 151 433> 550 180<151 524 151 151> 835 109
VStem: 80 71<131 312 398 550>
LayerCount: 2
Fore
SplineSet
405 467 m 261
 453 467 l 261
 453 238 l 261
 433.666992188 238 424.333007812 238 405 238 c 261
 405 467 l 261
496 730 m 261
 554 730 l 261
 554 471 l 261
 534.666992188 471 515.333007812 471 496 471 c 261
 496 730 l 261
503 229 m 261
 561 229 l 261
 561 0 l 261
 541.666992188 0 522.333007812 0 503 0 c 261
 503 229 l 261
413 550 m 261
 292 550 141 550 20 550 c 261
 20 730 l 261
 413 730 l 261
 413 550 l 261
561 0 m 261
 380.666992188 0 200.333007812 0 20 0 c 261
 20 144 l 261
 561 144 l 261
 561 0 l 261
110 0 m 261
 110 730 l 261
 554 730 l 261
 554 550 l 261
 181 550 l 261
 181 383 l 261
 453 383 l 261
 453 327 l 261
 181 327 l 261
 181 131 l 261
 560 131 l 261
 560 0 l 261
 110 0 l 261
167 773 m 257
 155 795 l 257
 190 898 329 961 436 940 c 257
 431 814 l 257
 353 853 221 835 167 773 c 257
EndSplineSet
PickledDataWithLists: "(dp1
S'com.fontlab.hintData'
p2
(dp3
S'vhints'
p4
(lp5
(dp6
S'position'
p7
I80
sS'width'
p8
I71
sasS'hhints'
p9
(lp10
(dp11
g7
I0
sg8
I131
sa(dp12
g7
I312
sg8
I86
sa(dp13
g7
I550
sg8
I180
sa(dp14
g7
I835
sg8
I109
sass."
EndChar

StartChar: Ebreve
Encoding: 27 276 27
GlifName: E_breve
Width: 630
VWidth: 0
GlyphClass: 2
Flags: HW
HStem: 0 131<80 530 151 530 151 530> 312 86<151 433 151 433> 550 180<151 524 151 151> 779 87<269.5 334.5 269.5 351>
VStem: 80 71<131 312 398 550> 135 51<897 960> 425 50<897 960>
LayerCount: 2
Fore
SplineSet
405 467 m 261
 453 467 l 261
 453 238 l 261
 433.666992188 238 424.333007812 238 405 238 c 261
 405 467 l 261
496 730 m 261
 554 730 l 261
 554 471 l 261
 534.666992188 471 515.333007812 471 496 471 c 261
 496 730 l 261
503 229 m 261
 561 229 l 261
 561 0 l 261
 541.666992188 0 522.333007812 0 503 0 c 261
 503 229 l 261
413 550 m 261
 292 550 141 550 20 550 c 261
 20 730 l 261
 413 730 l 261
 413 550 l 261
561 0 m 261
 380.666992188 0 200.333007812 0 20 0 c 261
 20 144 l 261
 561 144 l 261
 561 0 l 261
110 0 m 261
 110 730 l 261
 554 730 l 261
 554 550 l 261
 181 550 l 261
 181 383 l 261
 453 383 l 261
 453 327 l 261
 181 327 l 261
 181 131 l 261
 560 131 l 261
 560 0 l 261
 110 0 l 261
300 779 m 256
 204 779 135 834 135 960 c 257
 186 960 l 257
 185 889 239 866 300 866 c 256
 369 866 426 889 425 960 c 257
 475 960 l 257
 475 834 402 779 300 779 c 256
EndSplineSet
PickledDataWithLists: "(dp1
S'com.fontlab.hintData'
p2
(dp3
S'vhints'
p4
(lp5
(dp6
S'position'
p7
I80
sS'width'
p8
I71
sa(dp9
g7
I135
sg8
I51
sa(dp10
g7
I425
sg8
I50
sasS'hhints'
p11
(lp12
(dp13
g7
I0
sg8
I131
sa(dp14
g7
I312
sg8
I86
sa(dp15
g7
I550
sg8
I180
sa(dp16
g7
I779
sg8
I87
sass."
EndChar

StartChar: Ecaron
Encoding: 28 282 28
GlifName: E_caron
Width: 630
VWidth: 0
GlyphClass: 2
Flags: HW
HStem: 0 131<80 530 151 530 151 530> 312 86<151 433 151 433> 550 180<151 524 151 151>
VStem: 80 71<131 312 398 550> 123 364<916 950 916 950>
LayerCount: 2
Fore
SplineSet
405 467 m 261
 453 467 l 261
 453 238 l 261
 433.666992188 238 424.333007812 238 405 238 c 261
 405 467 l 261
496 730 m 261
 554 730 l 261
 554 471 l 261
 534.666992188 471 515.333007812 471 496 471 c 261
 496 730 l 261
503 229 m 261
 561 229 l 261
 561 0 l 261
 541.666992188 0 522.333007812 0 503 0 c 261
 503 229 l 261
413 550 m 261
 292 550 141 550 20 550 c 261
 20 730 l 261
 413 730 l 261
 413 550 l 261
561 0 m 261
 380.666992188 0 200.333007812 0 20 0 c 261
 20 144 l 261
 561 144 l 261
 561 0 l 261
110 0 m 261
 110 730 l 261
 554 730 l 261
 554 550 l 261
 181 550 l 261
 181 383 l 261
 453 383 l 261
 453 327 l 261
 181 327 l 261
 181 131 l 261
 560 131 l 261
 560 0 l 261
 110 0 l 261
487 950 m 257
 487 916 l 257
 419 904 347 835 315 775 c 257
 295 775 l 257
 263 835 191 904 123 916 c 257
 123 950 l 257
 195 955 285 936 305 896 c 257
 325 936 415 955 487 950 c 257
EndSplineSet
PickledDataWithLists: "(dp1
S'com.fontlab.hintData'
p2
(dp3
S'vhints'
p4
(lp5
(dp6
S'position'
p7
I80
sS'width'
p8
I71
sa(dp9
g7
I123
sg8
I364
sasS'hhints'
p10
(lp11
(dp12
g7
I0
sg8
I131
sa(dp13
g7
I312
sg8
I86
sa(dp14
g7
I550
sg8
I180
sass."
EndChar

StartChar: Ecircumflex
Encoding: 29 202 29
GlifName: E_circumflex
Width: 630
VWidth: 0
GlyphClass: 2
Flags: HW
HStem: 0 131<80 530 151 530 151 530> 312 86<151 433 151 433> 550 180<151 524 151 151>
VStem: 80 71<131 312 398 550> 123 364<785 819 785 819>
LayerCount: 2
Fore
SplineSet
405 467 m 261
 453 467 l 261
 453 238 l 261
 433.666992188 238 424.333007812 238 405 238 c 261
 405 467 l 261
496 730 m 261
 554 730 l 261
 554 471 l 261
 534.666992188 471 515.333007812 471 496 471 c 261
 496 730 l 261
503 229 m 261
 561 229 l 261
 561 0 l 261
 541.666992188 0 522.333007812 0 503 0 c 261
 503 229 l 261
413 550 m 261
 292 550 141 550 20 550 c 261
 20 730 l 261
 413 730 l 261
 413 550 l 261
561 0 m 261
 380.666992188 0 200.333007812 0 20 0 c 261
 20 144 l 261
 561 144 l 261
 561 0 l 261
110 0 m 261
 110 730 l 261
 554 730 l 261
 554 550 l 261
 181 550 l 261
 181 383 l 261
 453 383 l 261
 453 327 l 261
 181 327 l 261
 181 131 l 261
 560 131 l 261
 560 0 l 261
 110 0 l 261
487 785 m 257
 419 780 325 799 305 839 c 257
 285 799 191 780 123 785 c 257
 123 819 l 257
 187 830 263 901 295 960 c 257
 315 960 l 257
 347 901 423 830 487 819 c 257
 487 785 l 257
EndSplineSet
PickledDataWithLists: "(dp1
S'com.fontlab.hintData'
p2
(dp3
S'vhints'
p4
(lp5
(dp6
S'position'
p7
I80
sS'width'
p8
I71
sa(dp9
g7
I123
sg8
I364
sasS'hhints'
p10
(lp11
(dp12
g7
I0
sg8
I131
sa(dp13
g7
I312
sg8
I86
sa(dp14
g7
I550
sg8
I180
sass."
EndChar

StartChar: Edieresis
Encoding: 30 203 30
GlifName: E_dieresis
Width: 630
VWidth: 0
GlyphClass: 2
Flags: HW
HStem: 0 131<80 530 151 530 151 530> 312 86<151 433 151 433> 550 180<151 524 151 151> 786 131<176.5 226 387 436>
VStem: 80 71<131 312 398 550> 123 154<828.5 873.5> 333 154<828.5 873.5>
LayerCount: 2
Fore
SplineSet
405 467 m 261
 453 467 l 261
 453 238 l 261
 433.666992188 238 424.333007812 238 405 238 c 261
 405 467 l 261
496 730 m 261
 554 730 l 261
 554 471 l 261
 534.666992188 471 515.333007812 471 496 471 c 261
 496 730 l 261
503 229 m 261
 561 229 l 261
 561 0 l 261
 541.666992188 0 522.333007812 0 503 0 c 261
 503 229 l 261
413 550 m 261
 292 550 141 550 20 550 c 261
 20 730 l 261
 413 730 l 261
 413 550 l 261
561 0 m 261
 380.666992188 0 200.333007812 0 20 0 c 261
 20 144 l 261
 561 144 l 261
 561 0 l 261
110 0 m 261
 110 730 l 261
 554 730 l 261
 554 550 l 261
 181 550 l 261
 181 383 l 261
 453 383 l 261
 453 327 l 261
 181 327 l 261
 181 131 l 261
 560 131 l 261
 560 0 l 261
 110 0 l 261
487 850 m 256
 487 807 459 786 413 786 c 256
 361 786 333 807 333 850 c 256
 333 897 360 917 413 917 c 256
 460 917 487 898 487 850 c 256
277 850 m 256
 277 807 249 786 203 786 c 256
 150 786 123 807 123 850 c 256
 123 897 150 917 203 917 c 256
 250 917 277 898 277 850 c 256
EndSplineSet
PickledDataWithLists: "(dp1
S'com.fontlab.hintData'
p2
(dp3
S'vhints'
p4
(lp5
(dp6
S'position'
p7
I80
sS'width'
p8
I71
sa(dp9
g7
I123
sg8
I154
sa(dp10
g7
I333
sg8
I154
sasS'hhints'
p11
(lp12
(dp13
g7
I0
sg8
I131
sa(dp14
g7
I312
sg8
I86
sa(dp15
g7
I550
sg8
I180
sa(dp16
g7
I786
sg8
I131
sass."
EndChar

StartChar: Edotaccent
Encoding: 31 278 31
GlifName: E_dotaccent
Width: 630
VWidth: 0
GlyphClass: 2
Flags: HW
HStem: 0 131<80 530 151 530 151 530> 312 86<151 433 151 433> 550 180<151 524 151 151> 779 145<279 333.5>
VStem: 80 71<131 312 398 550> 219 172<826 876>
LayerCount: 2
Fore
SplineSet
405 467 m 261
 453 467 l 261
 453 238 l 261
 433.666992188 238 424.333007812 238 405 238 c 261
 405 467 l 261
496 730 m 261
 554 730 l 261
 554 471 l 261
 534.666992188 471 515.333007812 471 496 471 c 261
 496 730 l 261
503 229 m 261
 561 229 l 261
 561 0 l 261
 541.666992188 0 522.333007812 0 503 0 c 261
 503 229 l 261
413 550 m 261
 292 550 141 550 20 550 c 261
 20 730 l 261
 413 730 l 261
 413 550 l 261
561 0 m 261
 380.666992188 0 200.333007812 0 20 0 c 261
 20 144 l 261
 561 144 l 261
 561 0 l 261
110 0 m 261
 110 730 l 261
 554 730 l 261
 554 550 l 261
 181 550 l 261
 181 383 l 261
 453 383 l 261
 453 327 l 261
 181 327 l 261
 181 131 l 261
 560 131 l 261
 560 0 l 261
 110 0 l 261
391 850 m 256
 391 802 359 779 308 779 c 256
 250 779 219 802 219 850 c 256
 219 902 249 924 308 924 c 256
 360 924 391 903 391 850 c 256
EndSplineSet
PickledDataWithLists: "(dp1
S'com.fontlab.hintData'
p2
(dp3
S'vhints'
p4
(lp5
(dp6
S'position'
p7
I80
sS'width'
p8
I71
sa(dp9
g7
I219
sg8
I172
sasS'hhints'
p10
(lp11
(dp12
g7
I0
sg8
I131
sa(dp13
g7
I312
sg8
I86
sa(dp14
g7
I550
sg8
I180
sa(dp15
g7
I779
sg8
I145
sass."
EndChar

StartChar: Egrave
Encoding: 32 200 32
GlifName: E_grave
Width: 630
VWidth: 0
GlyphClass: 2
Flags: HW
HStem: 0 131<80 530 151 530 151 530> 312 86<151 433 151 433> 550 180<151 524 151 151> 835 109
VStem: 80 71<131 312 398 550>
LayerCount: 2
Fore
SplineSet
405 467 m 261
 453 467 l 261
 453 238 l 261
 433.666992188 238 424.333007812 238 405 238 c 261
 405 467 l 261
496 730 m 261
 554 730 l 261
 554 471 l 261
 534.666992188 471 515.333007812 471 496 471 c 261
 496 730 l 261
503 229 m 261
 561 229 l 261
 561 0 l 261
 541.666992188 0 522.333007812 0 503 0 c 261
 503 229 l 261
413 550 m 261
 292 550 141 550 20 550 c 261
 20 730 l 261
 413 730 l 261
 413 550 l 261
561 0 m 261
 380.666992188 0 200.333007812 0 20 0 c 261
 20 144 l 261
 561 144 l 261
 561 0 l 261
110 0 m 261
 110 730 l 261
 554 730 l 261
 554 550 l 261
 181 550 l 261
 181 383 l 261
 453 383 l 261
 453 327 l 261
 181 327 l 261
 181 131 l 261
 560 131 l 261
 560 0 l 261
 110 0 l 261
445 773 m 257
 391 835 258 853 181 814 c 257
 176 940 l 257
 284 962 422 899 457 795 c 257
 445 773 l 257
EndSplineSet
PickledDataWithLists: "(dp1
S'com.fontlab.hintData'
p2
(dp3
S'vhints'
p4
(lp5
(dp6
S'position'
p7
I80
sS'width'
p8
I71
sasS'hhints'
p9
(lp10
(dp11
g7
I0
sg8
I131
sa(dp12
g7
I312
sg8
I86
sa(dp13
g7
I550
sg8
I180
sa(dp14
g7
I835
sg8
I109
sass."
EndChar

StartChar: Emacron
Encoding: 33 274 33
GlifName: E_macron
Width: 630
VWidth: 0
GlyphClass: 2
Flags: HW
HStem: 0 131<80 530 151 530 151 530> 312 86<151 433 151 433> 550 180<151 524 151 151> 791 99<131 479 131 479>
VStem: 80 71<131 312 398 550> 131 348<791 890 791 890>
LayerCount: 2
Fore
SplineSet
405 467 m 261
 453 467 l 261
 453 238 l 261
 433.666992188 238 424.333007812 238 405 238 c 261
 405 467 l 261
496 730 m 261
 554 730 l 261
 554 471 l 261
 534.666992188 471 515.333007812 471 496 471 c 261
 496 730 l 261
503 229 m 261
 561 229 l 261
 561 0 l 261
 541.666992188 0 522.333007812 0 503 0 c 261
 503 229 l 261
413 550 m 261
 292 550 141 550 20 550 c 261
 20 730 l 261
 413 730 l 261
 413 550 l 261
561 0 m 261
 380.666992188 0 200.333007812 0 20 0 c 261
 20 144 l 261
 561 144 l 261
 561 0 l 261
110 0 m 261
 110 730 l 261
 554 730 l 261
 554 550 l 261
 181 550 l 261
 181 383 l 261
 453 383 l 261
 453 327 l 261
 181 327 l 261
 181 131 l 261
 560 131 l 261
 560 0 l 261
 110 0 l 261
479 791 m 257
 131 791 l 257
 131 890 l 257
 479 890 l 257
 479 791 l 257
EndSplineSet
PickledDataWithLists: "(dp1
S'com.fontlab.hintData'
p2
(dp3
S'vhints'
p4
(lp5
(dp6
S'position'
p7
I80
sS'width'
p8
I71
sa(dp9
g7
I131
sg8
I348
sasS'hhints'
p10
(lp11
(dp12
g7
I0
sg8
I131
sa(dp13
g7
I312
sg8
I86
sa(dp14
g7
I550
sg8
I180
sa(dp15
g7
I791
sg8
I99
sass."
EndChar

StartChar: Eng
Encoding: 34 330 34
GlifName: E_ng
Width: 780
VWidth: 0
GlyphClass: 2
Flags: W
HStem: -214 82 0 730<95 167 95 261 95 527 95 519>
VStem: 95 72<0 590 0 730> 593 72<106 730 25 730>
LayerCount: 2
Fore
SplineSet
675 25 m 257
 675 -144 607 -231 425 -211 c 257
 441 -132 l 257
 502 -141 566 -88 527 0 c 257
 519 0 l 257
 167 590 l 257
 167 0 l 257
 95 0 l 257
 95 730 l 257
 261 730 l 257
 593 106 l 257
 593 730 l 257
 665 730 l 257
 665 25 l 257
 675 25 l 257
EndSplineSet
PickledDataWithLists: "(dp1
S'com.fontlab.hintData'
p2
(dp3
S'vhints'
p4
(lp5
(dp6
S'position'
p7
I95
sS'width'
p8
I72
sa(dp9
g7
I593
sg8
I72
sasS'hhints'
p10
(lp11
(dp12
g7
I-214
sg8
I82
sa(dp13
g7
I0
sg8
I730
sass."
EndChar

StartChar: Eogonek
Encoding: 35 280 35
GlifName: E_ogonek
Width: 630
VWidth: 0
GlyphClass: 2
Flags: HW
HStem: -210 47<278.5 374> 0 131<151 230 80 530 310 310 310 530> 312 86<151 433 151 433> 550 180<151 524 151 151>
VStem: 80 71<131 312 398 550> 184 95<-103 -87.5>
LayerCount: 2
Fore
SplineSet
405 467 m 257
 453 467 l 257
 453 238 l 257
 433.666992188 238 424.333007812 238 405 238 c 257
 405 467 l 257
496 730 m 257
 554 730 l 257
 554 471 l 257
 534.666992188 471 515.333007812 471 496 471 c 257
 496 730 l 257
503 229 m 257
 561 229 l 257
 561 0 l 257
 541.666992188 0 522.333007812 0 503 0 c 257
 503 229 l 257
413 550 m 257
 292 550 141 550 20 550 c 257
 20 730 l 257
 413 730 l 257
 413 550 l 257
561 0 m 257
 380.666992188 0 200.333007812 0 20 0 c 257
 20 144 l 257
 561 144 l 257
 561 0 l 257
110 0 m 257
 110 730 l 257
 554 730 l 257
 554 550 l 257
 181 550 l 257
 181 383 l 257
 453 383 l 257
 453 327 l 257
 181 327 l 257
 181 131 l 257
 560 131 l 257
 560 0 l 257
 110 0 l 257
310 0 m 257
 293 -12 279 -42 279 -81 c 256
 279 -129 318 -162 366 -163 c 256
 382 -163 399 -162 413 -155 c 257
 426 -190 l 257
 404 -203 366 -210 324 -210 c 256
 233 -210 185 -167 184 -103 c 256
 184 -72 195 -35 230 0 c 257
 310 0 l 257
EndSplineSet
PickledDataWithLists: "(dp1
S'com.fontlab.hintData'
p2
(dp3
S'vhints'
p4
(lp5
(dp6
S'position'
p7
I80
sS'width'
p8
I71
sa(dp9
g7
I184
sg8
I95
sasS'hhints'
p10
(lp11
(dp12
g7
I-210
sg8
I47
sa(dp13
g7
I0
sg8
I131
sa(dp14
g7
I312
sg8
I86
sa(dp15
g7
I550
sg8
I180
sass."
EndChar

StartChar: Eth
Encoding: 36 208 36
GlifName: E_th
Width: 780
VWidth: 0
GlyphClass: 2
Flags: W
HStem: 0 144<202 377 130 411> 292 111<50 130 50 130 50 202 202 418> 555 175<202 373 373 394 202 202>
VStem: 130 72<144 144 144 292 403 555> 620 61<285.5 406>
LayerCount: 2
Fore
SplineSet
377 0 m 258
 130 0 l 257
 130 292 l 257
 50 292 l 257
 50 403 l 257
 130 403 l 257
 130 730 l 257
 373 730 l 258
 552 730 681 626 681 359 c 256
 681 90 553 0 377 0 c 258
202 144 m 257
 411 144 l 258
 516 144 620 225 620 346 c 256
 620 466 531 555 394 555 c 258
 202 555 l 257
 202 403 l 257
 418 403 l 257
 418 292 l 257
 202 292 l 257
 202 144 l 257
EndSplineSet
PickledDataWithLists: "(dp1
S'com.fontlab.hintData'
p2
(dp3
S'vhints'
p4
(lp5
(dp6
S'position'
p7
I130
sS'width'
p8
I72
sa(dp9
g7
I620
sg8
I61
sasS'hhints'
p10
(lp11
(dp12
g7
I0
sg8
I144
sa(dp13
g7
I292
sg8
I111
sa(dp14
g7
I555
sg8
I175
sass."
EndChar

StartChar: F
Encoding: 37 70 37
GlifName: F_
Width: 641
VWidth: 0
GlyphClass: 2
Flags: W
HStem: 268 128 547 183<252 443 443 610 252 252>
VStem: 180 72<0 268 386 547>
LayerCount: 2
Fore
SplineSet
474 441 m 257
 532 441 l 257
 532 212 l 257
 512.667 212 493.333 212 474 212 c 257
 474 441 l 257
553 730 m 257
 611 730 l 257
 611 471 l 257
 591.667 471 572.333 471 553 471 c 257
 553 730 l 257
443 550 m 257
 322 550 171 550 50 550 c 257
 50 730 l 257
 443 730 l 257
 443 550 l 257
393 0 m 257
 278.667 -0 164.333 0 50 0 c 257
 50 144 l 257
 393 144 l 257
 393 0 l 257
180 0 m 257
 180 730 l 257
 610 730 l 257
 610 547 l 257
 252 547 l 257
 252 386 l 257
 532 386 l 257
 532 268 l 257
 252 268 l 257
 252 0 l 257
 180 0 l 257
EndSplineSet
PickledDataWithLists: "(dp1
S'com.fontlab.hintData'
p2
(dp3
S'vhints'
p4
(lp5
(dp6
S'position'
p7
I180
sS'width'
p8
I72
sasS'hhints'
p9
(lp10
(dp11
g7
I268
sg8
I128
sa(dp12
g7
I547
sg8
I183
sass."
EndChar

StartChar: G
Encoding: 38 71 38
GlifName: G_
Width: 690
VWidth: 0
GlyphClass: 2
Flags: W
HStem: -10 139<275.5 401> 291 73<380 585 380 645> 563 177<269.5 401.5>
VStem: 50 63<271 334 271 493.5> 585 60<291 291>
LayerCount: 2
Fore
SplineSet
567 740 m 257
 626 740 l 257
 626 485 l 257
 606.667 485 586.333 485 567 485 c 257
 567 740 l 257
591 0 m 257
 581 81 l 257
 531 15 452 -10 350 -10 c 256
 170 -10 50 107 50 354 c 256
 50 633 178 740 352 740 c 256
 482 740 595 658 595 535 c 257
 567 485 l 257
 523 539 451 563 352 563 c 256
 187 563 114 460 113 334 c 256
 113 208 199 129 352 129 c 256
 487 129 576 178 585 291 c 257
 380 291 l 257
 380 364 l 257
 645 364 l 257
 645 0 l 257
 591 0 l 257
EndSplineSet
PickledDataWithLists: "(dp1
S'com.fontlab.hintData'
p2
(dp3
S'vhints'
p4
(lp5
(dp6
S'position'
p7
I50
sS'width'
p8
I63
sa(dp9
g7
I585
sg8
I60
sasS'hhints'
p10
(lp11
(dp12
g7
I-10
sg8
I139
sa(dp13
g7
I291
sg8
I73
sa(dp14
g7
I563
sg8
I177
sass."
EndChar

StartChar: Gbreve
Encoding: 39 286 39
GlifName: G_breve
Width: 780
VWidth: 0
GlyphClass: 2
Flags: W
HStem: -10 139<305.5 431> 291 73<410 615 410 675> 563 177<299.5 431.5> 779 87<329.5 394.5 329.5 411>
VStem: 80 63<271 334 271 493.5> 195 51<897 960> 485 50<897 960> 615 60<291 291>
LayerCount: 2
Fore
SplineSet
360 779 m 256
 264 779 195 834 195 960 c 257
 246 960 l 257
 245 889 299 866 360 866 c 256
 429 866 486 889 485 960 c 257
 535 960 l 257
 535 834 462 779 360 779 c 256
621 0 m 257
 611 81 l 257
 561 15 482 -10 380 -10 c 256
 200 -10 80 107 80 354 c 256
 80 633 208 740 382 740 c 256
 529 740 626 673 666 542 c 257
 597 485 l 257
 553 539 481 563 382 563 c 256
 217 563 144 460 143 334 c 256
 143 208 229 129 382 129 c 256
 517 129 606 178 615 291 c 257
 410 291 l 257
 410 364 l 257
 675 364 l 257
 675 0 l 257
 621 0 l 257
EndSplineSet
PickledDataWithLists: "(dp1
S'com.fontlab.hintData'
p2
(dp3
S'vhints'
p4
(lp5
(dp6
S'position'
p7
I80
sS'width'
p8
I63
sa(dp9
g7
I195
sg8
I51
sa(dp10
g7
I485
sg8
I50
sa(dp11
g7
I615
sg8
I60
sasS'hhints'
p12
(lp13
(dp14
g7
I-10
sg8
I139
sa(dp15
g7
I291
sg8
I73
sa(dp16
g7
I563
sg8
I177
sa(dp17
g7
I779
sg8
I87
sass."
EndChar

StartChar: Gcaron
Encoding: 40 486 40
GlifName: G_caron
Width: 780
VWidth: 0
GlyphClass: 2
Flags: W
HStem: -10 139<305.5 431> 291 73<410 615 410 675> 563 177<299.5 431.5>
VStem: 80 63<271 334 271 493.5> 183 364<916 950 916 950> 615 60<291 291>
LayerCount: 2
Fore
SplineSet
547 950 m 257
 547 916 l 257
 479 904 407 835 375 775 c 257
 355 775 l 257
 323 835 251 904 183 916 c 257
 183 950 l 257
 255 955 345 936 365 896 c 257
 385 936 475 955 547 950 c 257
621 0 m 257
 611 81 l 257
 561 15 482 -10 380 -10 c 256
 200 -10 80 107 80 354 c 256
 80 633 208 740 382 740 c 256
 529 740 626 673 666 542 c 257
 597 485 l 257
 553 539 481 563 382 563 c 256
 217 563 144 460 143 334 c 256
 143 208 229 129 382 129 c 256
 517 129 606 178 615 291 c 257
 410 291 l 257
 410 364 l 257
 675 364 l 257
 675 0 l 257
 621 0 l 257
EndSplineSet
PickledDataWithLists: "(dp1
S'com.fontlab.hintData'
p2
(dp3
S'vhints'
p4
(lp5
(dp6
S'position'
p7
I80
sS'width'
p8
I63
sa(dp9
g7
I183
sg8
I364
sa(dp10
g7
I615
sg8
I60
sasS'hhints'
p11
(lp12
(dp13
g7
I-10
sg8
I139
sa(dp14
g7
I291
sg8
I73
sa(dp15
g7
I563
sg8
I177
sass."
EndChar

StartChar: Gcircumflex
Encoding: 41 284 41
GlifName: G_circumflex
Width: 780
VWidth: 0
GlyphClass: 2
Flags: W
HStem: -10 139<305.5 431> 291 73<410 615 410 675> 563 177<299.5 431.5>
VStem: 80 63<271 334 271 493.5> 183 364<785 819 785 819> 615 60<291 291>
LayerCount: 2
Fore
SplineSet
547 785 m 257
 479 780 385 799 365 839 c 257
 345 799 251 780 183 785 c 257
 183 819 l 257
 247 830 323 901 355 960 c 257
 375 960 l 257
 407 901 483 830 547 819 c 257
 547 785 l 257
621 0 m 257
 611 81 l 257
 561 15 482 -10 380 -10 c 256
 200 -10 80 107 80 354 c 256
 80 633 208 740 382 740 c 256
 529 740 626 673 666 542 c 257
 597 485 l 257
 553 539 481 563 382 563 c 256
 217 563 144 460 143 334 c 256
 143 208 229 129 382 129 c 256
 517 129 606 178 615 291 c 257
 410 291 l 257
 410 364 l 257
 675 364 l 257
 675 0 l 257
 621 0 l 257
EndSplineSet
PickledDataWithLists: "(dp1
S'com.fontlab.hintData'
p2
(dp3
S'vhints'
p4
(lp5
(dp6
S'position'
p7
I80
sS'width'
p8
I63
sa(dp9
g7
I183
sg8
I364
sa(dp10
g7
I615
sg8
I60
sasS'hhints'
p11
(lp12
(dp13
g7
I-10
sg8
I139
sa(dp14
g7
I291
sg8
I73
sa(dp15
g7
I563
sg8
I177
sass."
EndChar

StartChar: Gcommaaccent
Encoding: 42 290 42
GlifName: G_commaaccent
Width: 780
VWidth: 0
GlyphClass: 2
Flags: W
HStem: -10 139<305.5 431> 291 73<410 615 410 675> 563 177<299.5 431.5>
VStem: 80 63<271 334 271 493.5> 615 60<291 291>
LayerCount: 2
Fore
SplineSet
621 0 m 257
 611 81 l 257
 561 15 482 -10 380 -10 c 256
 200 -10 80 107 80 354 c 256
 80 633 208 740 382 740 c 256
 529 740 626 673 666 542 c 257
 597 485 l 257
 553 539 481 563 382 563 c 256
 217 563 144 460 143 334 c 256
 143 208 229 129 382 129 c 256
 517 129 606 178 615 291 c 257
 410 291 l 257
 410 364 l 257
 675 364 l 257
 675 0 l 257
 621 0 l 257
284 -210 m 257
 264 -196 l 257
 318 -152 337 -106 315 -56 c 257
 441 -56 l 257
 451 -119 386 -179 284 -210 c 257
EndSplineSet
PickledDataWithLists: "(dp1
S'com.fontlab.hintData'
p2
(dp3
S'vhints'
p4
(lp5
(dp6
S'position'
p7
I80
sS'width'
p8
I63
sa(dp9
g7
I615
sg8
I60
sasS'hhints'
p10
(lp11
(dp12
g7
I-10
sg8
I139
sa(dp13
g7
I291
sg8
I73
sa(dp14
g7
I563
sg8
I177
sass."
EndChar

StartChar: Gdotaccent
Encoding: 43 288 43
GlifName: G_dotaccent
Width: 780
VWidth: 0
GlyphClass: 2
Flags: W
HStem: -10 139<305.5 431> 291 73<410 615 410 675> 563 177<299.5 431.5> 779 145<339 393.5>
VStem: 80 63<271 334 271 493.5> 279 172<826 876> 615 60<291 291>
LayerCount: 2
Fore
SplineSet
451 850 m 256
 451 802 419 779 368 779 c 256
 310 779 279 802 279 850 c 256
 279 902 309 924 368 924 c 256
 420 924 451 903 451 850 c 256
621 0 m 257
 611 81 l 257
 561 15 482 -10 380 -10 c 256
 200 -10 80 107 80 354 c 256
 80 633 208 740 382 740 c 256
 529 740 626 673 666 542 c 257
 597 485 l 257
 553 539 481 563 382 563 c 256
 217 563 144 460 143 334 c 256
 143 208 229 129 382 129 c 256
 517 129 606 178 615 291 c 257
 410 291 l 257
 410 364 l 257
 675 364 l 257
 675 0 l 257
 621 0 l 257
EndSplineSet
PickledDataWithLists: "(dp1
S'com.fontlab.hintData'
p2
(dp3
S'vhints'
p4
(lp5
(dp6
S'position'
p7
I80
sS'width'
p8
I63
sa(dp9
g7
I279
sg8
I172
sa(dp10
g7
I615
sg8
I60
sasS'hhints'
p11
(lp12
(dp13
g7
I-10
sg8
I139
sa(dp14
g7
I291
sg8
I73
sa(dp15
g7
I563
sg8
I177
sa(dp16
g7
I779
sg8
I145
sass."
EndChar

StartChar: Germandbls
Encoding: 44 7838 44
GlifName: G_ermandbls
Width: 680
VWidth: 0
GlyphClass: 2
Flags: W
HStem: -10 125<331 419 331 446.5> 324 86<212 386 212 387 212 386> 571 159<154 327 327 364 154 154>
VStem: 84 70<0 571 0 730> 465 68<500 575> 522 63
LayerCount: 2
Fore
SplineSet
377 -10 m 256
 275 -10 196 60 192 158 c 257
 247 168 l 257
 259 140 295 115 367 115 c 256
 471 115 521 154 522 224 c 256
 523 280 481 324 387 324 c 258
 212 324 l 257
 212 410 l 257
 386 410 l 257
 465 500 l 257
 466 539 431 571 364 571 c 258
 154 571 l 257
 154 0 l 257
 84 0 l 257
 84 730 l 257
 327 730 l 258
 454 730 533 649 533 501 c 257
 447 402 l 257
 519 379 585 308 585 195 c 256
 585 67 516 -10 377 -10 c 256
EndSplineSet
PickledDataWithLists: "(dp1
S'com.fontlab.hintData'
p2
(dp3
S'vhints'
p4
(lp5
(dp6
S'position'
p7
I84
sS'width'
p8
I70
sa(dp9
g7
I465
sg8
I68
sa(dp10
g7
I522
sg8
I63
sasS'hhints'
p11
(lp12
(dp13
g7
I-10
sg8
I125
sa(dp14
g7
I324
sg8
I86
sa(dp15
g7
I571
sg8
I159
sass."
EndChar

StartChar: H
Encoding: 45 72 45
GlifName: H_
Width: 880
VWidth: 0
GlyphClass: 2
Flags: W
HStem: 275 175
VStem: 175 71<0 295 430 730> 634 71<0 295 295 295 430 730 0 730>
LayerCount: 2
Fore
SplineSet
830 555 m 257
 709 555 628 555 507 555 c 257
 507 730 l 257
 830 730 l 257
 830 555 l 257
373 555 m 257
 252 555 171 555 50 555 c 257
 50 730 l 257
 373 730 l 257
 373 555 l 257
373 0 m 257
 272.667 0 150.333 0 50 0 c 257
 50 140 l 257
 373 140 l 257
 373 0 l 257
830 0 m 257
 729.667 0 607.333 0 507 0 c 257
 507 140 l 257
 830 140 l 257
 830 0 l 257
246 0 m 257
 175 0 l 257
 175 730 l 257
 246 730 l 257
 246 430 l 257
 634 430 l 257
 634 730 l 257
 705 730 l 257
 705 0 l 257
 634 0 l 257
 634 295 l 257
 246 295 l 257
 246 0 l 257
EndSplineSet
PickledDataWithLists: "(dp1
S'com.fontlab.hintData'
p2
(dp3
S'vhints'
p4
(lp5
(dp6
S'position'
p7
I175
sS'width'
p8
I71
sa(dp9
g7
I634
sg8
I71
sasS'hhints'
p10
(lp11
(dp12
g7
I275
sg8
I175
sass."
EndChar

StartChar: Hbar
Encoding: 46 294 46
GlifName: H_bar
Width: 780
VWidth: 0
GlyphClass: 2
Flags: W
HStem: 275 175<186 574 186 574> 550 74<60 115 60 115 186 574 60 186 645 721>
VStem: 115 71<0 275 450 550 624 730> 574 71<0 275 275 275 450 550 0 550 624 730>
LayerCount: 2
Fore
SplineSet
186 450 m 257
 574 450 l 257
 574 550 l 257
 186 550 l 257
 186 450 l 257
186 275 m 257
 186 0 l 257
 115 0 l 257
 115 550 l 257
 60 550 l 257
 60 624 l 257
 115 624 l 257
 115 730 l 257
 186 730 l 257
 186 624 l 257
 574 624 l 257
 574 730 l 257
 645 730 l 257
 645 624 l 257
 721 624 l 257
 721 550 l 257
 645 550 l 257
 645 0 l 257
 574 0 l 257
 574 275 l 257
 186 275 l 257
EndSplineSet
PickledDataWithLists: "(dp1
S'com.fontlab.hintData'
p2
(dp3
S'vhints'
p4
(lp5
(dp6
S'position'
p7
I115
sS'width'
p8
I71
sa(dp9
g7
I574
sg8
I71
sasS'hhints'
p10
(lp11
(dp12
g7
I275
sg8
I175
sa(dp13
g7
I550
sg8
I74
sass."
EndChar

StartChar: Hcircumflex
Encoding: 47 292 47
GlifName: H_circumflex
Width: 780
VWidth: 0
GlyphClass: 2
Flags: W
HStem: 275 175<186 574 186 574>
VStem: 115 71<0 275 450 730> 183 364<785 819 785 819> 574 71<0 275 275 275 450 730 0 730>
LayerCount: 2
Fore
SplineSet
547 785 m 257
 479 780 385 799 365 839 c 257
 345 799 251 780 183 785 c 257
 183 819 l 257
 247 830 323 901 355 960 c 257
 375 960 l 257
 407 901 483 830 547 819 c 257
 547 785 l 257
186 0 m 257
 115 0 l 257
 115 730 l 257
 186 730 l 257
 186 450 l 257
 574 450 l 257
 574 730 l 257
 645 730 l 257
 645 0 l 257
 574 0 l 257
 574 275 l 257
 186 275 l 257
 186 0 l 257
EndSplineSet
PickledDataWithLists: "(dp1
S'com.fontlab.hintData'
p2
(dp3
S'vhints'
p4
(lp5
(dp6
S'position'
p7
I115
sS'width'
p8
I71
sa(dp9
g7
I183
sg8
I364
sa(dp10
g7
I574
sg8
I71
sasS'hhints'
p11
(lp12
(dp13
g7
I275
sg8
I175
sass."
EndChar

StartChar: I
Encoding: 48 73 48
GlifName: I_
Width: 480
VWidth: 0
GlyphClass: 2
Flags: W
HStem: 0 141<60 206 278 420 60 206> 550 180<66 206 66 414 278 278 278 414>
VStem: 206 72<141 550 141 550>
LayerCount: 2
Fore
SplineSet
420 0 m 257
 60 0 l 257
 60 141 l 257
 206 141 l 257
 206 550 l 257
 66 550 l 257
 66 730 l 257
 414 730 l 257
 414 550 l 257
 278 550 l 257
 278 141 l 257
 420 141 l 257
 420 0 l 257
EndSplineSet
PickledDataWithLists: "(dp1
S'com.fontlab.hintData'
p2
(dp3
S'vhints'
p4
(lp5
(dp6
S'position'
p7
I206
sS'width'
p8
I72
sasS'hhints'
p9
(lp10
(dp11
g7
I0
sg8
I141
sa(dp12
g7
I550
sg8
I180
sass."
EndChar

StartChar: IJ
Encoding: 49 306 49
GlifName: I_J_
Width: 830
VWidth: 0
GlyphClass: 2
Flags: W
HStem: -10 139<538 587 530 623.5> 0 141<60 206 278 350 60 206> 550 180<66 206 66 380 278 278 278 380>
VStem: 206 72<141 550 141 550> 665 70<306 555 555 555>
LayerCount: 2
Fore
SplineSet
350 0 m 257
 60 0 l 257
 60 141 l 257
 206 141 l 257
 206 550 l 257
 66 550 l 257
 66 730 l 257
 380 730 l 257
 380 550 l 257
 278 550 l 257
 278 141 l 257
 350 141 l 257
 350 0 l 257
565 -10 m 256
 511 -10 456 -2 426 18 c 257
 426 159 l 257
 461 140 508 129 552 129 c 256
 622 129 665 183 665 306 c 258
 665 555 l 257
 454 555 l 257
 454 730 l 257
 735 730 l 257
 735 276 l 258
 735 71 682 -10 565 -10 c 256
EndSplineSet
PickledDataWithLists: "(dp1
S'com.fontlab.hintData'
p2
(dp3
S'vhints'
p4
(lp5
(dp6
S'position'
p7
I206
sS'width'
p8
I72
sa(dp9
g7
I665
sg8
I70
sasS'hhints'
p10
(lp11
(dp12
g7
I-10
sg8
I139
sa(dp13
g7
I0
sg8
I141
sa(dp14
g7
I550
sg8
I180
sass."
EndChar

StartChar: Iacute
Encoding: 50 205 50
GlifName: I_acute
Width: 480
VWidth: 0
GlyphClass: 2
Flags: W
HStem: 0 141<50 196 268 410 50 196> 550 180<56 196 56 404 268 268 268 404> 835 109
VStem: 196 72<141 550 141 550>
LayerCount: 2
Fore
SplineSet
107 773 m 257
 95 795 l 257
 130 898 269 961 376 940 c 257
 371 814 l 257
 293 853 161 835 107 773 c 257
410 0 m 257
 50 0 l 257
 50 141 l 257
 196 141 l 257
 196 550 l 257
 56 550 l 257
 56 730 l 257
 404 730 l 257
 404 550 l 257
 268 550 l 257
 268 141 l 257
 410 141 l 257
 410 0 l 257
EndSplineSet
PickledDataWithLists: "(dp1
S'com.fontlab.hintData'
p2
(dp3
S'vhints'
p4
(lp5
(dp6
S'position'
p7
I196
sS'width'
p8
I72
sasS'hhints'
p9
(lp10
(dp11
g7
I0
sg8
I141
sa(dp12
g7
I550
sg8
I180
sa(dp13
g7
I835
sg8
I109
sass."
EndChar

StartChar: Ibreve
Encoding: 51 300 51
GlifName: I_breve
Width: 480
VWidth: 0
GlyphClass: 2
Flags: W
HStem: 0 141<50 196 268 410 50 196> 550 180<56 196 56 404 268 268 268 404> 779 87<199.5 264.5 199.5 281>
VStem: 65 51<897 960> 196 72<141 550 141 550> 355 50<897 960>
LayerCount: 2
Fore
SplineSet
230 779 m 256
 134 779 65 834 65 960 c 257
 116 960 l 257
 115 889 169 866 230 866 c 256
 299 866 356 889 355 960 c 257
 405 960 l 257
 405 834 332 779 230 779 c 256
410 0 m 257
 50 0 l 257
 50 141 l 257
 196 141 l 257
 196 550 l 257
 56 550 l 257
 56 730 l 257
 404 730 l 257
 404 550 l 257
 268 550 l 257
 268 141 l 257
 410 141 l 257
 410 0 l 257
EndSplineSet
PickledDataWithLists: "(dp1
S'com.fontlab.hintData'
p2
(dp3
S'vhints'
p4
(lp5
(dp6
S'position'
p7
I65
sS'width'
p8
I51
sa(dp9
g7
I196
sg8
I72
sa(dp10
g7
I355
sg8
I50
sasS'hhints'
p11
(lp12
(dp13
g7
I0
sg8
I141
sa(dp14
g7
I550
sg8
I180
sa(dp15
g7
I779
sg8
I87
sass."
EndChar

StartChar: Icircumflex
Encoding: 52 206 52
GlifName: I_circumflex
Width: 480
VWidth: 0
GlyphClass: 2
Flags: W
HStem: 0 141<50 196 268 410 50 196> 550 180<56 196 56 404 268 268 268 404>
VStem: 53 364<785 819 785 819> 196 72<141 550 141 550>
LayerCount: 2
Fore
SplineSet
417 785 m 257
 349 780 255 799 235 839 c 257
 215 799 121 780 53 785 c 257
 53 819 l 257
 117 830 193 901 225 960 c 257
 245 960 l 257
 277 901 353 830 417 819 c 257
 417 785 l 257
410 0 m 257
 50 0 l 257
 50 141 l 257
 196 141 l 257
 196 550 l 257
 56 550 l 257
 56 730 l 257
 404 730 l 257
 404 550 l 257
 268 550 l 257
 268 141 l 257
 410 141 l 257
 410 0 l 257
EndSplineSet
PickledDataWithLists: "(dp1
S'com.fontlab.hintData'
p2
(dp3
S'vhints'
p4
(lp5
(dp6
S'position'
p7
I53
sS'width'
p8
I364
sa(dp9
g7
I196
sg8
I72
sasS'hhints'
p10
(lp11
(dp12
g7
I0
sg8
I141
sa(dp13
g7
I550
sg8
I180
sass."
EndChar

StartChar: Idieresis
Encoding: 53 207 53
GlifName: I_dieresis
Width: 480
VWidth: 0
GlyphClass: 2
Flags: W
HStem: 0 141<50 196 268 410 50 196> 550 180<56 196 56 404 268 268 268 404> 786 131<106.5 156 317 366>
VStem: 53 154<828.5 873.5> 196 72<141 550 141 550> 263 154<828.5 873.5>
LayerCount: 2
Fore
SplineSet
417 850 m 256
 417 807 389 786 343 786 c 256
 291 786 263 807 263 850 c 256
 263 897 290 917 343 917 c 256
 390 917 417 898 417 850 c 256
207 850 m 256
 207 807 179 786 133 786 c 256
 80 786 53 807 53 850 c 256
 53 897 80 917 133 917 c 256
 180 917 207 898 207 850 c 256
410 0 m 257
 50 0 l 257
 50 141 l 257
 196 141 l 257
 196 550 l 257
 56 550 l 257
 56 730 l 257
 404 730 l 257
 404 550 l 257
 268 550 l 257
 268 141 l 257
 410 141 l 257
 410 0 l 257
EndSplineSet
PickledDataWithLists: "(dp1
S'com.fontlab.hintData'
p2
(dp3
S'vhints'
p4
(lp5
(dp6
S'position'
p7
I53
sS'width'
p8
I154
sa(dp9
g7
I196
sg8
I72
sa(dp10
g7
I263
sg8
I154
sasS'hhints'
p11
(lp12
(dp13
g7
I0
sg8
I141
sa(dp14
g7
I550
sg8
I180
sa(dp15
g7
I786
sg8
I131
sass."
EndChar

StartChar: Idotaccent
Encoding: 54 304 54
GlifName: I_dotaccent
Width: 480
VWidth: 0
GlyphClass: 2
Flags: W
HStem: 0 141<50 196 268 410 50 196> 550 180<56 196 56 404 268 268 268 404> 779 145<209 263.5>
VStem: 149 172<826 876> 196 72<141 550 141 550>
LayerCount: 2
Fore
SplineSet
321 850 m 256
 321 802 289 779 238 779 c 256
 180 779 149 802 149 850 c 256
 149 902 179 924 238 924 c 256
 290 924 321 903 321 850 c 256
410 0 m 257
 50 0 l 257
 50 141 l 257
 196 141 l 257
 196 550 l 257
 56 550 l 257
 56 730 l 257
 404 730 l 257
 404 550 l 257
 268 550 l 257
 268 141 l 257
 410 141 l 257
 410 0 l 257
EndSplineSet
PickledDataWithLists: "(dp1
S'com.fontlab.hintData'
p2
(dp3
S'vhints'
p4
(lp5
(dp6
S'position'
p7
I149
sS'width'
p8
I172
sa(dp9
g7
I196
sg8
I72
sasS'hhints'
p10
(lp11
(dp12
g7
I0
sg8
I141
sa(dp13
g7
I550
sg8
I180
sa(dp14
g7
I779
sg8
I145
sass."
EndChar

StartChar: Igrave
Encoding: 55 204 55
GlifName: I_grave
Width: 480
VWidth: 0
GlyphClass: 2
Flags: W
HStem: 0 141<50 196 268 410 50 196> 550 180<56 196 56 404 268 268 268 404> 835 109
VStem: 196 72<141 550 141 550>
LayerCount: 2
Fore
SplineSet
365 773 m 257
 311 835 178 853 101 814 c 257
 96 940 l 257
 204 962 342 899 377 795 c 257
 365 773 l 257
410 0 m 257
 50 0 l 257
 50 141 l 257
 196 141 l 257
 196 550 l 257
 56 550 l 257
 56 730 l 257
 404 730 l 257
 404 550 l 257
 268 550 l 257
 268 141 l 257
 410 141 l 257
 410 0 l 257
EndSplineSet
PickledDataWithLists: "(dp1
S'com.fontlab.hintData'
p2
(dp3
S'vhints'
p4
(lp5
(dp6
S'position'
p7
I196
sS'width'
p8
I72
sasS'hhints'
p9
(lp10
(dp11
g7
I0
sg8
I141
sa(dp12
g7
I550
sg8
I180
sa(dp13
g7
I835
sg8
I109
sass."
EndChar

StartChar: Imacron
Encoding: 56 298 56
GlifName: I_macron
Width: 480
VWidth: 0
GlyphClass: 2
Flags: W
HStem: 0 141<50 196 268 410 50 196> 550 180<56 196 56 404 268 268 268 404> 791 99<61 409 61 409>
VStem: 61 348<791 890 791 890> 196 72<141 550 141 550>
LayerCount: 2
Fore
SplineSet
409 791 m 257
 61 791 l 257
 61 890 l 257
 409 890 l 257
 409 791 l 257
410 0 m 257
 50 0 l 257
 50 141 l 257
 196 141 l 257
 196 550 l 257
 56 550 l 257
 56 730 l 257
 404 730 l 257
 404 550 l 257
 268 550 l 257
 268 141 l 257
 410 141 l 257
 410 0 l 257
EndSplineSet
PickledDataWithLists: "(dp1
S'com.fontlab.hintData'
p2
(dp3
S'vhints'
p4
(lp5
(dp6
S'position'
p7
I61
sS'width'
p8
I348
sa(dp9
g7
I196
sg8
I72
sasS'hhints'
p10
(lp11
(dp12
g7
I0
sg8
I141
sa(dp13
g7
I550
sg8
I180
sa(dp14
g7
I791
sg8
I99
sass."
EndChar

StartChar: Iogonek
Encoding: 57 302 57
GlifName: I_ogonek
Width: 480
VWidth: 0
GlyphClass: 2
Flags: W
HStem: -210 47<238.5 334> 0 141<50 190 50 196 270 270 270 410> 550 180<56 196 56 404 268 268 268 404>
VStem: 144 95<-103 -87.5> 196 72<141 550 141 550>
LayerCount: 2
Fore
SplineSet
386 -190 m 257
 364 -203 326 -210 284 -210 c 256
 193 -210 145 -167 144 -103 c 256
 144 -72 155 -35 190 0 c 257
 50 0 l 257
 50 141 l 257
 196 141 l 257
 196 550 l 257
 56 550 l 257
 56 730 l 257
 404 730 l 257
 404 550 l 257
 268 550 l 257
 268 141 l 257
 410 141 l 257
 410 0 l 257
 270 0 l 257
 253 -12 239 -42 239 -81 c 256
 239 -129 278 -162 326 -163 c 256
 342 -163 359 -162 373 -155 c 257
 386 -190 l 257
EndSplineSet
PickledDataWithLists: "(dp1
S'com.fontlab.hintData'
p2
(dp3
S'vhints'
p4
(lp5
(dp6
S'position'
p7
I144
sS'width'
p8
I95
sa(dp9
g7
I196
sg8
I72
sasS'hhints'
p10
(lp11
(dp12
g7
I-210
sg8
I47
sa(dp13
g7
I0
sg8
I141
sa(dp14
g7
I550
sg8
I180
sass."
EndChar

StartChar: Itilde
Encoding: 58 296 58
GlifName: I_tilde
Width: 480
VWidth: 0
GlyphClass: 2
Flags: W
HStem: 0 141<50 196 268 410 50 196> 550 180<56 196 56 404 268 268 268 404> 811 82
VStem: 196 72<141 550 141 550>
LayerCount: 2
Fore
SplineSet
237 906 m 256
 314 886 388 889 407 910 c 257
 414 897 l 257
 380 811 301 772 234 795 c 256
 151 823 86 811 64 786 c 257
 57 799 l 257
 84 876 154 928 237 906 c 256
410 0 m 257
 50 0 l 257
 50 141 l 257
 196 141 l 257
 196 550 l 257
 56 550 l 257
 56 730 l 257
 404 730 l 257
 404 550 l 257
 268 550 l 257
 268 141 l 257
 410 141 l 257
 410 0 l 257
EndSplineSet
PickledDataWithLists: "(dp1
S'com.fontlab.hintData'
p2
(dp3
S'vhints'
p4
(lp5
(dp6
S'position'
p7
I196
sS'width'
p8
I72
sasS'hhints'
p9
(lp10
(dp11
g7
I0
sg8
I141
sa(dp12
g7
I550
sg8
I180
sa(dp13
g7
I811
sg8
I82
sass."
EndChar

StartChar: J
Encoding: 59 74 59
GlifName: J_
Width: 510
VWidth: 0
GlyphClass: 2
Flags: W
HStem: -10 139 555 175<114 500 114 500 114 325 114 174.5>
VStem: 325 70<306 555 555 555>
LayerCount: 2
Fore
SplineSet
500 555 m 257
 379 555 235 555 114 555 c 257
 114 730 l 257
 500 730 l 257
 500 555 l 257
196 -10 m 256
 129 -10 49 13 20 58 c 257
 46 182 l 257
 84 154 141 139 192 139 c 256
 280 139 325 185 325 306 c 258
 325 555 l 257
 114 555 l 257
 114 730 l 257
 395 730 l 257
 395 276 l 258
 395 71 332 -10 196 -10 c 256
EndSplineSet
PickledDataWithLists: "(dp1
S'com.fontlab.hintData'
p2
(dp3
S'vhints'
p4
(lp5
(dp6
S'position'
p7
I325
sS'width'
p8
I70
sasS'hhints'
p9
(lp10
(dp11
g7
I-10
sg8
I139
sa(dp12
g7
I555
sg8
I175
sass."
EndChar

StartChar: Jcircumflex
Encoding: 60 308 60
GlifName: J_circumflex
Width: 580
VWidth: 0
GlyphClass: 2
Flags: W
HStem: -10 139<236.5 303 236.5 334> 555 175<184 395 184 465>
VStem: 395 70<306 555 555 555>
LayerCount: 2
Fore
SplineSet
517 785 m 257
 449 780 355 799 335 839 c 257
 315 799 221 780 153 785 c 257
 153 819 l 257
 217 830 293 901 325 960 c 257
 345 960 l 257
 377 901 453 830 517 819 c 257
 517 785 l 257
266 -10 m 256
 199 -10 119 13 90 58 c 257
 116 172 l 257
 154 144 211 129 262 129 c 256
 344 129 395 183 395 306 c 258
 395 555 l 257
 184 555 l 257
 184 730 l 257
 465 730 l 257
 465 276 l 258
 465 71 402 -10 266 -10 c 256
EndSplineSet
PickledDataWithLists: "(dp1
S'com.fontlab.hintData'
p2
(dp3
S'vhints'
p4
(lp5
(dp6
S'position'
p7
I395
sS'width'
p8
I70
sasS'hhints'
p9
(lp10
(dp11
g7
I-10
sg8
I139
sa(dp12
g7
I555
sg8
I175
sass."
EndChar

StartChar: K
Encoding: 61 75 61
GlifName: K_
Width: 704
VWidth: 0
GlyphClass: 2
Flags: W
HStem: 0 730<52 302 52 314 52 100.166 142 142 142 213 493 674 52 674 52 422.167 566 655 566 566>
VStem: 142 71<0 209 409 730>
LayerCount: 2
Fore
SplineSet
674 555 m 257
 553 555 620 555 499 555 c 257
 499 730 l 257
 674 730 l 257
 674 555 l 257
674 0 m 257
 573.667 0 472.333 0 372 0 c 257
 372 140 l 257
 674 140 l 257
 674 0 l 257
302 555 m 257
 181 555 173 555 52 555 c 257
 52 730 l 257
 302 730 l 257
 302 555 l 257
314 0 m 257
 213.667 0 150.333 0 50 0 c 257
 50 140 l 257
 314 140 l 257
 314 0 l 257
566 0 m 257
 328 333 l 257
 213 209 l 257
 213 0 l 257
 142 0 l 257
 142 730 l 257
 213 730 l 257
 213 409 l 257
 493 730 l 257
 674 730 l 257
 380 390 l 257
 655 0 l 257
 566 0 l 257
EndSplineSet
PickledDataWithLists: "(dp1
S'com.fontlab.hintData'
p2
(dp3
S'vhints'
p4
(lp5
(dp6
S'position'
p7
I142
sS'width'
p8
I71
sasS'hhints'
p9
(lp10
(dp11
g7
I0
sg8
I730
sass."
EndChar

StartChar: Kcommaaccent
Encoding: 62 310 62
GlifName: K_commaaccent
Width: 630
VWidth: 0
GlyphClass: 2
Flags: W
HStem: 0 730<80 632 80 632 504 593 504 504>
VStem: 80 71<0 209 409 732>
LayerCount: 2
Fore
SplineSet
504 0 m 257
 266 333 l 257
 151 209 l 257
 151 0 l 257
 80 0 l 257
 80 732 l 257
 151 732 l 257
 151 409 l 257
 431 730 l 257
 632 730 l 257
 318 390 l 257
 593 0 l 257
 504 0 l 257
184 -210 m 257
 164 -196 l 257
 218 -152 237 -106 215 -56 c 257
 341 -56 l 257
 351 -119 286 -179 184 -210 c 257
EndSplineSet
PickledDataWithLists: "(dp1
S'com.fontlab.hintData'
p2
(dp3
S'vhints'
p4
(lp5
(dp6
S'position'
p7
I80
sS'width'
p8
I71
sasS'hhints'
p9
(lp10
(dp11
g7
I0
sg8
I730
sass."
EndChar

StartChar: L
Encoding: 63 76 63
GlifName: L_
Width: 535
VWidth: 0
GlyphClass: 2
Flags: HW
HStem: 0 145
VStem: 132 68
LayerCount: 2
Fore
SplineSet
457 246 m 261
 515 246 l 261
 515 -3 l 261
 457 -3 l 261
 457 246 l 261
262 552 m 261
 141 552 141 552 20 552 c 261
 20 727 l 261
 262 727 l 261
 262 552 l 261
383 -3 m 261
 282.666992188 -3 120.333007812 -3 20 -3 c 261
 20 137 l 261
 383 137 l 261
 383 -3 l 261
515 -3 m 261
 105 -3 l 261
 105 727 l 261
 173 727 l 261
 173 137 l 261
 515 137 l 261
 515 -3 l 261
EndSplineSet
PickledDataWithLists: "(dp1
S'com.fontlab.hintData'
p2
(dp3
S'vhints'
p4
(lp5
(dp6
S'position'
p7
I132
sS'width'
p8
I68
sasS'hhints'
p9
(lp10
(dp11
g7
I0
sg8
I145
sass."
EndChar

StartChar: Lacute
Encoding: 64 313 64
GlifName: L_acute
Width: 530
VWidth: 0
GlyphClass: 2
Flags: HW
HStem: 0 145<143 445 143 445 75 445> 835 109
VStem: 75 68<145 730 145 730 145 730>
LayerCount: 2
Fore
SplineSet
457 246 m 261
 515 246 l 261
 515 -3 l 261
 457 -3 l 261
 457 246 l 261
262 552 m 261
 141 552 141 552 20 552 c 261
 20 727 l 261
 262 727 l 261
 262 552 l 261
383 -3 m 261
 282.666992188 -3 120.333007812 -3 20 -3 c 261
 20 137 l 261
 383 137 l 261
 383 -3 l 261
515 -3 m 261
 105 -3 l 261
 105 727 l 261
 173 727 l 261
 173 137 l 261
 515 137 l 261
 515 -3 l 261
-13 773 m 257
 -25 795 l 257
 10 898 149 961 256 940 c 257
 251 814 l 257
 173 853 41 835 -13 773 c 257
EndSplineSet
PickledDataWithLists: "(dp1
S'com.fontlab.hintData'
p2
(dp3
S'vhints'
p4
(lp5
(dp6
S'position'
p7
I75
sS'width'
p8
I68
sasS'hhints'
p9
(lp10
(dp11
g7
I0
sg8
I145
sa(dp12
g7
I835
sg8
I109
sass."
EndChar

StartChar: Lcaron
Encoding: 65 317 65
GlifName: L_caron
Width: 530
VWidth: 0
GlyphClass: 2
Flags: HW
HStem: 0 145<143 445 143 445 75 445>
VStem: 75 68<145 730 145 730 145 730> 380 111
LayerCount: 2
Fore
SplineSet
457 246 m 261
 515 246 l 261
 515 -3 l 261
 457 -3 l 261
 457 246 l 261
262 552 m 261
 141 552 141 552 20 552 c 261
 20 727 l 261
 262 727 l 261
 262 552 l 261
383 -3 m 261
 282.666992188 -3 120.333007812 -3 20 -3 c 261
 20 137 l 261
 383 137 l 261
 383 -3 l 261
515 -3 m 261
 105 -3 l 261
 105 727 l 261
 173 727 l 261
 173 137 l 261
 515 137 l 261
 515 -3 l 261
311 447 m 257
 377 501 399 646 362 730 c 257
 488 730 l 257
 507 613 437 465 331 433 c 257
 311 447 l 257
EndSplineSet
PickledDataWithLists: "(dp1
S'com.fontlab.hintData'
p2
(dp3
S'vhints'
p4
(lp5
(dp6
S'position'
p7
I75
sS'width'
p8
I68
sa(dp9
g7
I380
sg8
I111
sasS'hhints'
p10
(lp11
(dp12
g7
I0
sg8
I145
sass."
EndChar

StartChar: Lcommaaccent
Encoding: 66 315 66
GlifName: L_commaaccent
Width: 530
VWidth: 0
GlyphClass: 2
Flags: HW
HStem: 0 145<143 445 143 445 75 445>
VStem: 75 68<145 730 145 730 145 730> 194 251
LayerCount: 2
Fore
SplineSet
457 246 m 261
 515 246 l 261
 515 -3 l 261
 457 -3 l 261
 457 246 l 261
262 552 m 261
 141 552 141 552 20 552 c 261
 20 727 l 261
 262 727 l 261
 262 552 l 261
383 -3 m 261
 282.666992188 -3 120.333007812 -3 20 -3 c 261
 20 137 l 261
 383 137 l 261
 383 -3 l 261
515 -3 m 261
 105 -3 l 261
 105 727 l 261
 173 727 l 261
 173 137 l 261
 515 137 l 261
 515 -3 l 261
154 -210 m 257
 134 -196 l 257
 188 -152 207 -106 185 -56 c 257
 311 -56 l 257
 321 -119 256 -179 154 -210 c 257
EndSplineSet
PickledDataWithLists: "(dp1
S'com.fontlab.hintData'
p2
(dp3
S'vhints'
p4
(lp5
(dp6
S'position'
p7
I75
sS'width'
p8
I68
sa(dp9
g7
I194
sg8
I251
sasS'hhints'
p10
(lp11
(dp12
g7
I0
sg8
I145
sass."
EndChar

StartChar: Ldot
Encoding: 67 319 67
GlifName: L_dot
Width: 530
VWidth: 0
GlyphClass: 2
Flags: HW
HStem: 0 145<143 445 143 445 75 445> 281 145<347 401.5>
VStem: 75 68<145 730 145 730 145 730> 287 172<328 378>
LayerCount: 2
Fore
SplineSet
457 246 m 261
 515 246 l 261
 515 -3 l 261
 457 -3 l 261
 457 246 l 261
262 552 m 261
 141 552 141 552 20 552 c 261
 20 727 l 261
 262 727 l 261
 262 552 l 261
383 -3 m 261
 282.666992188 -3 120.333007812 -3 20 -3 c 261
 20 137 l 261
 383 137 l 261
 383 -3 l 261
515 -3 m 261
 105 -3 l 261
 105 727 l 261
 173 727 l 261
 173 137 l 261
 515 137 l 261
 515 -3 l 261
459 352 m 256
 459 304 427 281 376 281 c 256
 318 281 287 304 287 352 c 256
 287 404 317 426 376 426 c 256
 428 426 459 405 459 352 c 256
EndSplineSet
PickledDataWithLists: "(dp1
S'com.fontlab.hintData'
p2
(dp3
S'vhints'
p4
(lp5
(dp6
S'position'
p7
I75
sS'width'
p8
I68
sa(dp9
g7
I287
sg8
I172
sasS'hhints'
p10
(lp11
(dp12
g7
I0
sg8
I145
sa(dp13
g7
I281
sg8
I145
sass."
EndChar

StartChar: Lslash
Encoding: 68 321 68
GlifName: L_slash
Width: 530
VWidth: 0
GlyphClass: 2
Flags: HW
HStem: 0 145<143 445 143 445 75 445>
VStem: 75 68<145 304 304 304 457 730>
LayerCount: 2
Fore
SplineSet
448 246 m 257
 506 246 l 257
 506 -3 l 257
 448 -3 l 257
 448 246 l 257
253 552 m 257
 132 552 132 552 11 552 c 257
 11 727 l 257
 253 727 l 257
 253 552 l 257
374 -3 m 257
 273.666992188 -3 111.333007812 -3 11 -3 c 257
 11 137 l 257
 374 137 l 257
 374 -3 l 257
506 -3 m 257
 96 -3 l 257
 96 717 l 257
 164 717 l 257
 164 137 l 257
 506 137 l 257
 506 -3 l 257
466 0 m 257
 96 0 l 257
 96 304 l 257
 11 271 l 257
 11 387 l 257
 96 420 l 257
 96 720 l 257
 164 720 l 257
 164 447 l 257
 349 520 l 257
 349 404 l 257
 164 331 l 257
 164 125 l 257
 466 125 l 257
 466 0 l 257
EndSplineSet
PickledDataWithLists: "(dp1
S'com.fontlab.hintData'
p2
(dp3
S'vhints'
p4
(lp5
(dp6
S'position'
p7
I75
sS'width'
p8
I68
sasS'hhints'
p9
(lp10
(dp11
g7
I0
sg8
I145
sass."
EndChar

StartChar: M
Encoding: 69 77 69
GlifName: M_
Width: 970
VWidth: 0
GlyphClass: 2
Flags: W
HStem: 0 730<50 213 213 303 50 100.166 140 140 140 213 213 215 50 559 50 439 688 840 840 930 688 736.167 770 770 770 840>
VStem: 140 75<0 591 0 730> 770 70<0 587 587 587>
LayerCount: 2
Fore
SplineSet
930 555 m 257
 809 555 897 555 776 555 c 257
 776 730 l 257
 930 730 l 257
 930 555 l 257
930 0 m 257
 829.667 0 786.333 0 686 0 c 257
 686 140 l 257
 930 140 l 257
 930 0 l 257
213 555 m 257
 92 555 171 555 50 555 c 257
 50 613.333 50 671.667 50 730 c 257
 213 730 l 257
 213 555 l 257
303 0 m 257
 202.667 0 150.333 0 50 0 c 257
 50 140 l 257
 303 140 l 257
 303 0 l 257
439 0 m 257
 215 591 l 257
 215 0 l 257
 140 0 l 257
 140 730 l 257
 305 730 l 257
 495 119 l 257
 688 730 l 257
 840 730 l 257
 840 0 l 257
 770 0 l 257
 770 587 l 257
 559 0 l 257
 439 0 l 257
EndSplineSet
PickledDataWithLists: "(dp1
S'com.fontlab.hintData'
p2
(dp3
S'vhints'
p4
(lp5
(dp6
S'position'
p7
I140
sS'width'
p8
I75
sa(dp9
g7
I770
sg8
I70
sasS'hhints'
p10
(lp11
(dp12
g7
I0
sg8
I730
sass."
EndChar

StartChar: N
Encoding: 70 78 70
GlifName: N_
Width: 880
VWidth: 0
GlyphClass: 2
Flags: W
HStem: 0 730<50 213 213 321 50 337 50 97.8335 155 155 155 213 213 227 579 725 579 579 667 830 667 757.167>
VStem: 155 72<0 590 0 730> 653 72<106 730 0 730>
LayerCount: 2
Fore
SplineSet
830 550 m 257
 709 550 669 550 548 550 c 257
 548 730 l 257
 830 730 l 257
 830 550 l 257
830 0 m 257
 649.667 0 847.333 0 667 0 c 257
 667 144 l 257
 830 144 l 257
 830 0 l 257
213 550 m 257
 92 550 171 550 50 550 c 257
 50 730 l 257
 213 730 l 257
 213 550 l 257
337 0 m 257
 241.333 0 145.667 0 50 0 c 257
 50 144 l 257
 337 144 l 257
 337 0 l 257
579 0 m 257
 227 590 l 257
 227 0 l 257
 155 0 l 257
 155 730 l 257
 321 730 l 257
 653 106 l 257
 653 730 l 257
 725 730 l 257
 725 0 l 257
 579 0 l 257
EndSplineSet
PickledDataWithLists: "(dp1
S'com.fontlab.hintData'
p2
(dp3
S'vhints'
p4
(lp5
(dp6
S'position'
p7
I155
sS'width'
p8
I72
sa(dp9
g7
I653
sg8
I72
sasS'hhints'
p10
(lp11
(dp12
g7
I0
sg8
I730
sass."
EndChar

StartChar: Nacute
Encoding: 71 323 71
GlifName: N_acute
Width: 780
VWidth: 0
GlyphClass: 2
Flags: W
HStem: 0 730<95 167 95 261 593 665 95 665 95 519> 835 109
VStem: 95 72<0 590 0 730> 593 72<106 730 0 730>
LayerCount: 2
Fore
SplineSet
217 773 m 257
 205 795 l 257
 240 898 379 961 486 940 c 257
 481 814 l 257
 403 853 271 835 217 773 c 257
519 0 m 257
 167 590 l 257
 167 0 l 257
 95 0 l 257
 95 730 l 257
 261 730 l 257
 593 106 l 257
 593 730 l 257
 665 730 l 257
 665 0 l 257
 519 0 l 257
EndSplineSet
PickledDataWithLists: "(dp1
S'com.fontlab.hintData'
p2
(dp3
S'vhints'
p4
(lp5
(dp6
S'position'
p7
I95
sS'width'
p8
I72
sa(dp9
g7
I593
sg8
I72
sasS'hhints'
p10
(lp11
(dp12
g7
I0
sg8
I730
sa(dp13
g7
I835
sg8
I109
sass."
EndChar

StartChar: Ncaron
Encoding: 72 327 72
GlifName: N_caron
Width: 780
VWidth: 0
GlyphClass: 2
Flags: W
HStem: 0 730<95 167 95 261 593 665 95 665 95 519> 0 951
VStem: 95 72<0 590 0 730> 183 364<916 950 916 950> 593 72<106 730 0 730>
LayerCount: 2
Fore
SplineSet
547 950 m 257
 547 916 l 257
 479 904 407 835 375 775 c 257
 355 775 l 257
 323 835 251 904 183 916 c 257
 183 950 l 257
 255 955 345 936 365 896 c 257
 385 936 475 955 547 950 c 257
519 0 m 257
 167 590 l 257
 167 0 l 257
 95 0 l 257
 95 730 l 257
 261 730 l 257
 593 106 l 257
 593 730 l 257
 665 730 l 257
 665 0 l 257
 519 0 l 257
EndSplineSet
PickledDataWithLists: "(dp1
S'com.fontlab.hintData'
p2
(dp3
S'vhints'
p4
(lp5
(dp6
S'position'
p7
I95
sS'width'
p8
I72
sa(dp9
g7
I183
sg8
I364
sa(dp10
g7
I593
sg8
I72
sasS'hhints'
p11
(lp12
(dp13
g7
I0
sg8
I730
sa(dp14
g7
I0
sg8
I951
sass."
EndChar

StartChar: Ncommaaccent
Encoding: 73 325 73
GlifName: N_commaaccent
Width: 780
VWidth: 0
GlyphClass: 2
Flags: W
HStem: 0 730<95 167 95 261 593 665 95 665 95 519>
VStem: 95 72<0 590 0 730> 593 72<106 730 0 730>
LayerCount: 2
Fore
SplineSet
519 0 m 257
 167 590 l 257
 167 0 l 257
 95 0 l 257
 95 730 l 257
 261 730 l 257
 593 106 l 257
 593 730 l 257
 665 730 l 257
 665 0 l 257
 519 0 l 257
284 -210 m 257
 264 -196 l 257
 318 -152 337 -106 315 -56 c 257
 441 -56 l 257
 451 -119 386 -179 284 -210 c 257
EndSplineSet
PickledDataWithLists: "(dp1
S'com.fontlab.hintData'
p2
(dp3
S'vhints'
p4
(lp5
(dp6
S'position'
p7
I95
sS'width'
p8
I72
sa(dp9
g7
I593
sg8
I72
sasS'hhints'
p10
(lp11
(dp12
g7
I0
sg8
I730
sass."
EndChar

StartChar: Ntilde
Encoding: 74 209 74
GlifName: N_tilde
Width: 780
VWidth: 0
GlyphClass: 2
Flags: W
HStem: 0 730<95 167 95 261 593 665 95 665 95 519> 811 82
VStem: 95 72<0 590 0 730> 593 72<106 730 0 730>
LayerCount: 2
Fore
SplineSet
367 906 m 256
 444 886 518 889 537 910 c 257
 544 897 l 257
 510 811 431 772 364 795 c 256
 281 823 216 811 194 786 c 257
 187 799 l 257
 214 876 284 928 367 906 c 256
519 0 m 257
 167 590 l 257
 167 0 l 257
 95 0 l 257
 95 730 l 257
 261 730 l 257
 593 106 l 257
 593 730 l 257
 665 730 l 257
 665 0 l 257
 519 0 l 257
EndSplineSet
PickledDataWithLists: "(dp1
S'com.fontlab.hintData'
p2
(dp3
S'vhints'
p4
(lp5
(dp6
S'position'
p7
I95
sS'width'
p8
I72
sa(dp9
g7
I593
sg8
I72
sasS'hhints'
p10
(lp11
(dp12
g7
I0
sg8
I730
sa(dp13
g7
I811
sg8
I82
sass."
EndChar

StartChar: O
Encoding: 75 79 75
GlifName: O_
Width: 694
VWidth: 0
GlyphClass: 2
Flags: W
HStem: -10 139 544 196
VStem: 50 62<351 351> 583 61<351 351>
LayerCount: 2
Fore
SplineSet
347 -10 m 256
 175 -10 50 99 50 351 c 256
 50 632 171 740 347 740 c 256
 523 740 644 632 644 351 c 256
 644 99 520 -10 347 -10 c 256
347 139 m 256
 476 139 584 184 583 351 c 256
 581 464 501 534 347 534 c 256
 192 534 113 464 112 351 c 256
 111 185 220 139 347 139 c 256
EndSplineSet
PickledDataWithLists: "(dp1
S'com.fontlab.hintData'
p2
(dp3
S'vhints'
p4
(lp5
(dp6
S'position'
p7
I50
sS'width'
p8
I62
sa(dp9
g7
I583
sg8
I61
sasS'hhints'
p10
(lp11
(dp12
g7
I-10
sg8
I139
sa(dp13
g7
I544
sg8
I196
sass."
EndChar

StartChar: OE
Encoding: 76 338 76
GlifName: O_E_
Width: 980
VWidth: 0
GlyphClass: 2
Flags: W
HStem: -10 139<293.5 394> 0 131<479 874 548 874 548 874> 312 86<548 777 548 777> 551 179<548 868 548 548>
VStem: 67 63 479 69<148 312 398 525 525 525> 479 389<148 730 525 730 728 730 551 730>
LayerCount: 2
Fore
SplineSet
374 129 m 256
 416 129 446 136 479 148 c 257
 479 525 l 257
 446 537 412 544 369 544 c 256
 208 544 131 464 130 348 c 256
 129 210 213 129 374 129 c 256
479 0 m 257
 479 2 l 257
 448 -6 413 -10 375 -10 c 256
 188 -10 67 103 67 352 c 256
 67 633 192 740 374 740 c 256
 412 740 447 736 479 728 c 257
 479 730 l 257
 868 730 l 257
 868 551 l 257
 548 551 l 257
 548 398 l 257
 777 398 l 257
 777 312 l 257
 548 312 l 257
 548 131 l 257
 874 131 l 257
 874 0 l 257
 479 0 l 257
EndSplineSet
PickledDataWithLists: "(dp1
S'com.fontlab.hintData'
p2
(dp3
S'vhints'
p4
(lp5
(dp6
S'position'
p7
I67
sS'width'
p8
I63
sa(dp9
g7
I479
sg8
I69
sa(dp10
g7
I479
sg8
I389
sasS'hhints'
p11
(lp12
(dp13
g7
I-10
sg8
I139
sa(dp14
g7
I0
sg8
I131
sa(dp15
g7
I312
sg8
I86
sa(dp16
g7
I551
sg8
I179
sass."
EndChar

StartChar: Oacute
Encoding: 77 211 77
GlifName: O_acute
Width: 730
VWidth: 0
GlyphClass: 2
Flags: W
HStem: -10 139<291.5 419.5 291.5 441.5> 544 196<277.5 432> 835 109
VStem: 58 62<351 351> 591 61<351 351>
LayerCount: 2
Fore
SplineSet
217 773 m 257
 205 795 l 257
 240 898 379 961 486 940 c 257
 481 814 l 257
 403 853 271 835 217 773 c 257
355 -10 m 256
 183 -10 58 99 58 351 c 256
 58 632 179 740 355 740 c 256
 531 740 652 632 652 351 c 256
 652 99 528 -10 355 -10 c 256
355 129 m 256
 484 129 592 184 591 351 c 256
 589 464 509 544 355 544 c 256
 200 544 121 464 120 351 c 256
 119 185 228 129 355 129 c 256
EndSplineSet
PickledDataWithLists: "(dp1
S'com.fontlab.hintData'
p2
(dp3
S'vhints'
p4
(lp5
(dp6
S'position'
p7
I58
sS'width'
p8
I62
sa(dp9
g7
I591
sg8
I61
sasS'hhints'
p10
(lp11
(dp12
g7
I-10
sg8
I139
sa(dp13
g7
I544
sg8
I196
sa(dp14
g7
I835
sg8
I109
sass."
EndChar

StartChar: Obreve
Encoding: 78 334 78
GlifName: O_breve
Width: 730
VWidth: 0
GlyphClass: 2
Flags: W
HStem: -10 139<291.5 419.5 291.5 441.5> 544 196<277.5 432> 779 87<329.5 394.5 329.5 411>
VStem: 58 62<351 351> 195 51<897 960> 485 50<897 960> 591 61<351 351>
LayerCount: 2
Fore
SplineSet
360 779 m 256
 264 779 195 834 195 960 c 257
 246 960 l 257
 245 889 299 866 360 866 c 256
 429 866 486 889 485 960 c 257
 535 960 l 257
 535 834 462 779 360 779 c 256
355 -10 m 256
 183 -10 58 99 58 351 c 256
 58 632 179 740 355 740 c 256
 531 740 652 632 652 351 c 256
 652 99 528 -10 355 -10 c 256
355 129 m 256
 484 129 592 184 591 351 c 256
 589 464 509 544 355 544 c 256
 200 544 121 464 120 351 c 256
 119 185 228 129 355 129 c 256
EndSplineSet
PickledDataWithLists: "(dp1
S'com.fontlab.hintData'
p2
(dp3
S'vhints'
p4
(lp5
(dp6
S'position'
p7
I58
sS'width'
p8
I62
sa(dp9
g7
I195
sg8
I51
sa(dp10
g7
I485
sg8
I50
sa(dp11
g7
I591
sg8
I61
sasS'hhints'
p12
(lp13
(dp14
g7
I-10
sg8
I139
sa(dp15
g7
I544
sg8
I196
sa(dp16
g7
I779
sg8
I87
sass."
EndChar

StartChar: Ocircumflex
Encoding: 79 212 79
GlifName: O_circumflex
Width: 730
VWidth: 0
GlyphClass: 2
Flags: W
HStem: -10 139<291.5 419.5 291.5 441.5> 544 196<277.5 432>
VStem: 58 62<351 351> 183 364<785 819 785 819> 591 61<351 351>
LayerCount: 2
Fore
SplineSet
547 785 m 257
 479 780 385 799 365 839 c 257
 345 799 251 780 183 785 c 257
 183 819 l 257
 247 830 323 901 355 960 c 257
 375 960 l 257
 407 901 483 830 547 819 c 257
 547 785 l 257
355 -10 m 256
 183 -10 58 99 58 351 c 256
 58 632 179 740 355 740 c 256
 531 740 652 632 652 351 c 256
 652 99 528 -10 355 -10 c 256
355 129 m 256
 484 129 592 184 591 351 c 256
 589 464 509 544 355 544 c 256
 200 544 121 464 120 351 c 256
 119 185 228 129 355 129 c 256
EndSplineSet
PickledDataWithLists: "(dp1
S'com.fontlab.hintData'
p2
(dp3
S'vhints'
p4
(lp5
(dp6
S'position'
p7
I58
sS'width'
p8
I62
sa(dp9
g7
I183
sg8
I364
sa(dp10
g7
I591
sg8
I61
sasS'hhints'
p11
(lp12
(dp13
g7
I-10
sg8
I139
sa(dp14
g7
I544
sg8
I196
sass."
EndChar

StartChar: Odieresis
Encoding: 80 214 80
GlifName: O_dieresis
Width: 730
VWidth: 0
GlyphClass: 2
Flags: W
HStem: -10 139<291.5 419.5 291.5 441.5> 544 196<277.5 432> 786 131<236.5 286 447 496>
VStem: 58 62<351 351> 183 154<828.5 873.5> 393 154<828.5 873.5> 591 61<351 351>
LayerCount: 2
Fore
SplineSet
547 850 m 256
 547 807 519 786 473 786 c 256
 421 786 393 807 393 850 c 256
 393 897 420 917 473 917 c 256
 520 917 547 898 547 850 c 256
337 850 m 256
 337 807 309 786 263 786 c 256
 210 786 183 807 183 850 c 256
 183 897 210 917 263 917 c 256
 310 917 337 898 337 850 c 256
355 -10 m 256
 183 -10 58 99 58 351 c 256
 58 632 179 740 355 740 c 256
 531 740 652 632 652 351 c 256
 652 99 528 -10 355 -10 c 256
355 129 m 256
 484 129 592 184 591 351 c 256
 589 464 509 544 355 544 c 256
 200 544 121 464 120 351 c 256
 119 185 228 129 355 129 c 256
EndSplineSet
PickledDataWithLists: "(dp1
S'com.fontlab.hintData'
p2
(dp3
S'vhints'
p4
(lp5
(dp6
S'position'
p7
I58
sS'width'
p8
I62
sa(dp9
g7
I183
sg8
I154
sa(dp10
g7
I393
sg8
I154
sa(dp11
g7
I591
sg8
I61
sasS'hhints'
p12
(lp13
(dp14
g7
I-10
sg8
I139
sa(dp15
g7
I544
sg8
I196
sa(dp16
g7
I786
sg8
I131
sass."
EndChar

StartChar: Ograve
Encoding: 81 210 81
GlifName: O_grave
Width: 730
VWidth: 0
GlyphClass: 2
Flags: W
HStem: -10 139<291.5 419.5 291.5 441.5> 544 196<277.5 432> 835 109
VStem: 58 62<351 351> 591 61<351 351>
LayerCount: 2
Fore
SplineSet
505 773 m 257
 451 835 318 853 241 814 c 257
 236 940 l 257
 344 962 482 899 517 795 c 257
 505 773 l 257
355 -10 m 256
 183 -10 58 99 58 351 c 256
 58 632 179 740 355 740 c 256
 531 740 652 632 652 351 c 256
 652 99 528 -10 355 -10 c 256
355 129 m 256
 484 129 592 184 591 351 c 256
 589 464 509 544 355 544 c 256
 200 544 121 464 120 351 c 256
 119 185 228 129 355 129 c 256
EndSplineSet
PickledDataWithLists: "(dp1
S'com.fontlab.hintData'
p2
(dp3
S'vhints'
p4
(lp5
(dp6
S'position'
p7
I58
sS'width'
p8
I62
sa(dp9
g7
I591
sg8
I61
sasS'hhints'
p10
(lp11
(dp12
g7
I-10
sg8
I139
sa(dp13
g7
I544
sg8
I196
sa(dp14
g7
I835
sg8
I109
sass."
EndChar

StartChar: Ohungarumlaut
Encoding: 82 336 82
GlifName: O_hungarumlaut
Width: 730
VWidth: 0
GlyphClass: 2
Flags: W
HStem: -10 139<291.5 419.5 291.5 441.5> 544 196<277.5 432> 778 188
VStem: 58 62<351 351> 207 36 389 36 591 61<351 351>
LayerCount: 2
Fore
SplineSet
425 776 m 257
 392 779 l 257
 378 894 421 965 530 965 c 257
 544 907 l 257
 491 896 437 850 425 776 c 257
243 776 m 257
 210 779 l 257
 196 894 239 964 348 965 c 257
 362 907 l 257
 309 896 255 849 243 776 c 257
355 -10 m 256
 183 -10 58 99 58 351 c 256
 58 632 179 740 355 740 c 256
 531 740 652 632 652 351 c 256
 652 99 528 -10 355 -10 c 256
355 129 m 256
 484 129 592 184 591 351 c 256
 589 464 509 544 355 544 c 256
 200 544 121 464 120 351 c 256
 119 185 228 129 355 129 c 256
EndSplineSet
PickledDataWithLists: "(dp1
S'com.fontlab.hintData'
p2
(dp3
S'vhints'
p4
(lp5
(dp6
S'position'
p7
I58
sS'width'
p8
I62
sa(dp9
g7
I207
sg8
I36
sa(dp10
g7
I389
sg8
I36
sa(dp11
g7
I591
sg8
I61
sasS'hhints'
p12
(lp13
(dp14
g7
I-10
sg8
I139
sa(dp15
g7
I544
sg8
I196
sa(dp16
g7
I778
sg8
I188
sass."
EndChar

StartChar: Omacron
Encoding: 83 332 83
GlifName: O_macron
Width: 730
VWidth: 0
GlyphClass: 2
Flags: W
HStem: -10 139<291.5 419.5 291.5 441.5> 544 196<277.5 432> 791 99<191 539 191 539>
VStem: 58 62<351 351> 191 348<791 890 791 890> 591 61<351 351>
LayerCount: 2
Fore
SplineSet
539 791 m 257
 191 791 l 257
 191 890 l 257
 539 890 l 257
 539 791 l 257
355 -10 m 256
 183 -10 58 99 58 351 c 256
 58 632 179 740 355 740 c 256
 531 740 652 632 652 351 c 256
 652 99 528 -10 355 -10 c 256
355 129 m 256
 484 129 592 184 591 351 c 256
 589 464 509 544 355 544 c 256
 200 544 121 464 120 351 c 256
 119 185 228 129 355 129 c 256
EndSplineSet
PickledDataWithLists: "(dp1
S'com.fontlab.hintData'
p2
(dp3
S'vhints'
p4
(lp5
(dp6
S'position'
p7
I58
sS'width'
p8
I62
sa(dp9
g7
I191
sg8
I348
sa(dp10
g7
I591
sg8
I61
sasS'hhints'
p11
(lp12
(dp13
g7
I-10
sg8
I139
sa(dp14
g7
I544
sg8
I196
sa(dp15
g7
I791
sg8
I99
sass."
EndChar

StartChar: Omega
Encoding: 84 937 84
GlifName: O_mega
Width: 730
VWidth: 0
GlyphClass: 2
Flags: W
HStem: 0 122 544 196<287.5 442>
VStem: 43 273<0 126 0 126> 68 62<351 351> 423 264<0 126 0 126> 601 61<351 351>
LayerCount: 2
Fore
SplineSet
316 0 m 257
 43 0 l 257
 43 126 l 257
 151 118 l 257
 98 169 68 244 68 351 c 256
 68 632 189 740 365 740 c 256
 541 740 662 632 662 351 c 256
 662 244 632 168 579 117 c 257
 687 126 l 257
 687 0 l 257
 423 0 l 257
 423 126 l 257
 525 152 602 220 601 351 c 256
 600 464 519 544 365 544 c 256
 210 544 131 464 130 351 c 256
 129 217 211 150 316 126 c 257
 316 0 l 257
EndSplineSet
PickledDataWithLists: "(dp1
S'com.fontlab.hintData'
p2
(dp3
S'vhints'
p4
(lp5
(dp6
S'position'
p7
I43
sS'width'
p8
I273
sa(dp9
g7
I68
sg8
I62
sa(dp10
g7
I423
sg8
I264
sa(dp11
g7
I601
sg8
I61
sasS'hhints'
p12
(lp13
(dp14
g7
I0
sg8
I122
sa(dp15
g7
I544
sg8
I196
sass."
EndChar

StartChar: Oslash
Encoding: 85 216 85
GlifName: O_slash
Width: 730
VWidth: 0
GlyphClass: 2
Flags: W
HStem: -10 139<349.5 419.5 349.5 441.5> 544 196<277.5 368.5>
VStem: 58 62<351 351> 591 61<351 351>
LayerCount: 2
Fore
SplineSet
120 351 m 256
 119 236 172 174 246 146 c 257
 428 537 l 257
 406 542 382 544 355 544 c 256
 200 544 121 464 120 351 c 256
355 129 m 256
 484 129 592 184 591 351 c 256
 590 421 559 478 499 511 c 257
 322 130 l 257
 333 129 344 129 355 129 c 256
355 -10 m 256
 322 -10 291 -6 262 2 c 257
 224 -80 l 257
 147 -66 l 257
 193 33 l 257
 110 85 58 188 58 351 c 256
 58 632 179 740 355 740 c 256
 412 740 463 729 506 704 c 257
 543 784 l 257
 620 770 l 257
 566 655 l 257
 620 593 652 494 652 351 c 256
 652 99 528 -10 355 -10 c 256
EndSplineSet
PickledDataWithLists: "(dp1
S'com.fontlab.hintData'
p2
(dp3
S'vhints'
p4
(lp5
(dp6
S'position'
p7
I58
sS'width'
p8
I62
sa(dp9
g7
I591
sg8
I61
sasS'hhints'
p10
(lp11
(dp12
g7
I-10
sg8
I139
sa(dp13
g7
I544
sg8
I196
sass."
EndChar

StartChar: Oslashacute
Encoding: 86 510 86
GlifName: O_slashacute
Width: 730
VWidth: 0
GlyphClass: 2
Flags: W
HStem: -10 139<339.5 409.5 339.5 431.5> 544 196<267.5 358.5> 835 109
VStem: 48 62<351 351> 581 61<351 351>
LayerCount: 2
Fore
SplineSet
217 773 m 257
 205 795 l 257
 240 898 379 961 486 940 c 257
 481 814 l 257
 403 853 271 835 217 773 c 257
110 351 m 256
 109 236 162 174 236 146 c 257
 418 537 l 257
 396 542 372 544 345 544 c 256
 190 544 111 464 110 351 c 256
345 129 m 256
 474 129 582 184 581 351 c 256
 580 421 549 478 489 511 c 257
 312 130 l 257
 323 129 334 129 345 129 c 256
345 -10 m 256
 312 -10 281 -6 252 2 c 257
 214 -80 l 257
 137 -66 l 257
 183 33 l 257
 100 85 48 188 48 351 c 256
 48 632 169 740 345 740 c 256
 402 740 453 729 496 704 c 257
 533 784 l 257
 610 770 l 257
 556 655 l 257
 610 593 642 494 642 351 c 256
 642 99 518 -10 345 -10 c 256
EndSplineSet
PickledDataWithLists: "(dp1
S'com.fontlab.hintData'
p2
(dp3
S'vhints'
p4
(lp5
(dp6
S'position'
p7
I48
sS'width'
p8
I62
sa(dp9
g7
I581
sg8
I61
sasS'hhints'
p10
(lp11
(dp12
g7
I-10
sg8
I139
sa(dp13
g7
I544
sg8
I196
sa(dp14
g7
I835
sg8
I109
sass."
EndChar

StartChar: Otilde
Encoding: 87 213 87
GlifName: O_tilde
Width: 730
VWidth: 0
GlyphClass: 2
Flags: W
HStem: -10 139<291.5 419.5 291.5 441.5> 544 196<277.5 432> 811 82
VStem: 58 62<351 351> 591 61<351 351>
LayerCount: 2
Fore
SplineSet
367 906 m 256
 444 886 518 889 537 910 c 257
 544 897 l 257
 510 811 431 772 364 795 c 256
 281 823 216 811 194 786 c 257
 187 799 l 257
 214 876 284 928 367 906 c 256
355 -10 m 256
 183 -10 58 99 58 351 c 256
 58 632 179 740 355 740 c 256
 531 740 652 632 652 351 c 256
 652 99 528 -10 355 -10 c 256
355 129 m 256
 484 129 592 184 591 351 c 256
 589 464 509 544 355 544 c 256
 200 544 121 464 120 351 c 256
 119 185 228 129 355 129 c 256
EndSplineSet
PickledDataWithLists: "(dp1
S'com.fontlab.hintData'
p2
(dp3
S'vhints'
p4
(lp5
(dp6
S'position'
p7
I58
sS'width'
p8
I62
sa(dp9
g7
I591
sg8
I61
sasS'hhints'
p10
(lp11
(dp12
g7
I-10
sg8
I139
sa(dp13
g7
I544
sg8
I196
sa(dp14
g7
I811
sg8
I82
sass."
EndChar

StartChar: P
Encoding: 88 80 88
GlifName: P_
Width: 680
VWidth: 0
GlyphClass: 2
Flags: W
HStem: 190 148 566 164
VStem: 155 71<0 210 347 555> 589 61
LayerCount: 2
Fore
SplineSet
373 555 m 257
 252 555 171 555 50 555 c 257
 50 730 l 257
 373 730 l 257
 373 555 l 257
337 0 m 257
 229.333 0 157.667 0 50 0 c 257
 50 140 l 257
 337 140 l 257
 337 0 l 257
374 210 m 258
 226 210 l 257
 226 0 l 257
 155 0 l 257
 155 730 l 257
 375 730 l 258
 552 730 650 673 650 470 c 256
 650 290 556 210 374 210 c 258
414 347 m 258
 535 347 590 389 589 451 c 256
 588 519 529 555 414 555 c 258
 226 555 l 257
 226 347 l 257
 414 347 l 258
EndSplineSet
PickledDataWithLists: "(dp1
S'com.fontlab.hintData'
p2
(dp3
S'vhints'
p4
(lp5
(dp6
S'position'
p7
I155
sS'width'
p8
I71
sa(dp9
g7
I589
sg8
I61
sasS'hhints'
p10
(lp11
(dp12
g7
I190
sg8
I148
sa(dp13
g7
I566
sg8
I164
sass."
EndChar

StartChar: Q
Encoding: 89 81 89
GlifName: Q_
Width: 730
VWidth: 0
GlyphClass: 2
Flags: W
HStem: -10 139<291.5 368 291.5 382> 544 196
VStem: 58 62<351 351> 591 61<351 351>
LayerCount: 2
Fore
SplineSet
657 -85 m 257
 567 -85 l 257
 500 23 l 257
 458 1 409 -10 355 -10 c 256
 183 -10 58 99 58 351 c 256
 58 632 179 740 355 740 c 256
 531 740 652 632 652 351 c 256
 652 217 617 124 558 65 c 257
 657 -85 l 257
355 129 m 256
 381 129 406 131 429 136 c 257
 338 282 l 257
 416 282 l 257
 496 160 l 257
 554 192 592 252 591 351 c 256
 589 464 509 534 355 534 c 256
 200 534 121 464 120 351 c 256
 119 185 228 129 355 129 c 256
EndSplineSet
PickledDataWithLists: "(dp1
S'com.fontlab.hintData'
p2
(dp3
S'vhints'
p4
(lp5
(dp6
S'position'
p7
I58
sS'width'
p8
I62
sa(dp9
g7
I591
sg8
I61
sasS'hhints'
p10
(lp11
(dp12
g7
I-10
sg8
I139
sa(dp13
g7
I544
sg8
I196
sass."
EndChar

StartChar: R
Encoding: 90 82 90
GlifName: R_
Width: 768
VWidth: 0
GlyphClass: 2
Flags: HW
HStem: -10 128 244 139 569 161
VStem: 155 71<0 244 369 555> 588 61
LayerCount: 2
Fore
SplineSet
373 555 m 261
 252 555 171 555 50 555 c 261
 50 730 l 261
 373 730 l 261
 373 555 l 261
373 0 m 261
 272.667 0 150.333 0 50 0 c 261
 50 140 l 261
 373 140 l 261
 373 0 l 261
632 -10 m 260
 571 -10 531 44 511 166 c 260
 502.809 215.969 460 244 401 244 c 262
 226 244 l 261
 226 0 l 261
 155 0 l 261
 155 730 l 261
 395 730 l 262
 567 730 649 650 649 496 c 260
 649 380 611 317 515 298 c 261
 548 275 565.849 240.797 574 198 c 260
 582 156 601 138 631 138 c 260
 667 138 700 166 723 222 c 261
 758 92 l 261
 738 38 694 -10 632 -10 c 260
434 369 m 262
 543 369 589 404 588 459 c 260
 587 519 541 555 434 555 c 262
 226 555 l 261
 226 369 l 261
 434 369 l 262
EndSplineSet
PickledDataWithLists: "(dp1
S'com.fontlab.hintData'
p2
(dp3
S'vhints'
p4
(lp5
(dp6
S'position'
p7
I155
sS'width'
p8
I71
sa(dp9
g7
I588
sg8
I61
sasS'hhints'
p10
(lp11
(dp12
g7
I-10
sg8
I128
sa(dp13
g7
I244
sg8
I139
sa(dp14
g7
I569
sg8
I161
sass."
EndChar

StartChar: Racute
Encoding: 91 340 91
GlifName: R_acute
Width: 730
VWidth: 0
GlyphClass: 2
Flags: HW
HStem: -10 128<555 577> 244 139<166 341 166 374> 569 161<166 335 335 374 166 166> 835 109
VStem: 95 71<0 244 383 569> 528 61
LayerCount: 2
Fore
SplineSet
333 555 m 261
 212 555 131 555 10 555 c 261
 10 730 l 261
 333 730 l 261
 333 555 l 261
333 0 m 261
 232.666992188 0 110.333007812 0 10 0 c 261
 10 140 l 261
 333 140 l 261
 333 0 l 261
592 -10 m 260
 531 -10 491 44 471 166 c 260
 462.80859375 215.96875 420 244 361 244 c 262
 186 244 l 261
 186 0 l 261
 115 0 l 261
 115 730 l 261
 355 730 l 262
 527 730 609 650 609 496 c 260
 609 380 571 317 475 298 c 261
 508 275 525.848632812 240.796875 534 198 c 260
 542 156 561 138 591 138 c 260
 627 138 660 166 683 222 c 261
 718 92 l 261
 698 38 654 -10 592 -10 c 260
394 369 m 262
 503 369 549 404 548 459 c 260
 547 519 501 555 394 555 c 262
 186 555 l 261
 186 369 l 261
 394 369 l 262
187 773 m 257
 175 795 l 257
 210 898 349 961 456 940 c 257
 451 814 l 257
 373 853 241 835 187 773 c 257
EndSplineSet
PickledDataWithLists: "(dp1
S'com.fontlab.hintData'
p2
(dp3
S'vhints'
p4
(lp5
(dp6
S'position'
p7
I95
sS'width'
p8
I71
sa(dp9
g7
I528
sg8
I61
sasS'hhints'
p10
(lp11
(dp12
g7
I-10
sg8
I128
sa(dp13
g7
I244
sg8
I139
sa(dp14
g7
I569
sg8
I161
sa(dp15
g7
I835
sg8
I109
sass."
EndChar

StartChar: Rcaron
Encoding: 92 344 92
GlifName: R_caron
Width: 730
VWidth: 0
GlyphClass: 2
Flags: HW
HStem: -10 128<555 577> 244 139<166 341 166 374> 569 161<166 335 335 374 166 166>
VStem: 95 71<0 244 383 569> 133 364<916 950 916 950> 528 61
LayerCount: 2
Fore
SplineSet
333 555 m 261
 212 555 131 555 10 555 c 261
 10 730 l 261
 333 730 l 261
 333 555 l 261
333 0 m 261
 232.666992188 0 110.333007812 0 10 0 c 261
 10 140 l 261
 333 140 l 261
 333 0 l 261
592 -10 m 260
 531 -10 491 44 471 166 c 260
 462.80859375 215.96875 420 244 361 244 c 262
 186 244 l 261
 186 0 l 261
 115 0 l 261
 115 730 l 261
 355 730 l 262
 527 730 609 650 609 496 c 260
 609 380 571 317 475 298 c 261
 508 275 525.848632812 240.796875 534 198 c 260
 542 156 561 138 591 138 c 260
 627 138 660 166 683 222 c 261
 718 92 l 261
 698 38 654 -10 592 -10 c 260
394 369 m 262
 503 369 549 404 548 459 c 260
 547 519 501 555 394 555 c 262
 186 555 l 261
 186 369 l 261
 394 369 l 262
497 950 m 257
 497 916 l 257
 429 904 357 835 325 775 c 257
 305 775 l 257
 273 835 201 904 133 916 c 257
 133 950 l 257
 205 955 295 936 315 896 c 257
 335 936 425 955 497 950 c 257
EndSplineSet
PickledDataWithLists: "(dp1
S'com.fontlab.hintData'
p2
(dp3
S'vhints'
p4
(lp5
(dp6
S'position'
p7
I95
sS'width'
p8
I71
sa(dp9
g7
I133
sg8
I364
sa(dp10
g7
I528
sg8
I61
sasS'hhints'
p11
(lp12
(dp13
g7
I-10
sg8
I128
sa(dp14
g7
I244
sg8
I139
sa(dp15
g7
I569
sg8
I161
sass."
EndChar

StartChar: Rcommaaccent
Encoding: 93 342 93
GlifName: R_commaaccent
Width: 730
VWidth: 0
GlyphClass: 2
Flags: HW
HStem: -10 128<555 577> 244 139<166 341 166 374> 569 161<166 335 335 374 166 166>
VStem: 95 71<0 244 383 569> 528 61
LayerCount: 2
Fore
SplineSet
333 555 m 261
 212 555 131 555 10 555 c 261
 10 730 l 261
 333 730 l 261
 333 555 l 261
333 0 m 261
 232.666992188 0 110.333007812 0 10 0 c 261
 10 140 l 261
 333 140 l 261
 333 0 l 261
592 -10 m 260
 531 -10 491 44 471 166 c 260
 462.80859375 215.96875 420 244 361 244 c 262
 186 244 l 261
 186 0 l 261
 115 0 l 261
 115 730 l 261
 355 730 l 262
 527 730 609 650 609 496 c 260
 609 380 571 317 475 298 c 261
 508 275 525.848632812 240.796875 534 198 c 260
 542 156 561 138 591 138 c 260
 627 138 660 166 683 222 c 261
 718 92 l 261
 698 38 654 -10 592 -10 c 260
394 369 m 262
 503 369 549 404 548 459 c 260
 547 519 501 555 394 555 c 262
 186 555 l 261
 186 369 l 261
 394 369 l 262
234 -210 m 257
 214 -196 l 257
 268 -152 287 -106 265 -56 c 257
 391 -56 l 257
 401 -119 336 -179 234 -210 c 257
EndSplineSet
PickledDataWithLists: "(dp1
S'com.fontlab.hintData'
p2
(dp3
S'vhints'
p4
(lp5
(dp6
S'position'
p7
I95
sS'width'
p8
I71
sa(dp9
g7
I528
sg8
I61
sasS'hhints'
p10
(lp11
(dp12
g7
I-10
sg8
I128
sa(dp13
g7
I244
sg8
I139
sa(dp14
g7
I569
sg8
I161
sass."
EndChar

StartChar: S
Encoding: 94 83 94
GlifName: S_
Width: 657
VWidth: 0
GlyphClass: 2
Flags: W
HStem: -10 147<270.5 392 270.5 424> 591 169<251.5 377>
VStem: 56 89<483.5 515.5 467.5 607> 513 95<123.5 258.5>
LayerCount: 2
Fore
SplineSet
520 740 m 257
 578 740 l 257
 578 520 l 257
 558.667 520 539.333 520 520 520 c 257
 520 740 l 257
50 262 m 257
 108 262 l 257
 108 0 l 257
 88.667 0 69.333 0 50 0 c 257
 50 262 l 257
334 -10 m 256
 206 -10 92 59 72 150 c 257
 108 262 l 257
 137 193 217 137 324 137 c 256
 460 137 513 179 513 234 c 256
 513 283 457 322 321 332 c 256
 111 348 56 420 56 547 c 256
 56 667 151 760 317 760 c 256
 439 760 531 682 548 607 c 257
 520 520 l 257
 484 550 435 591 319 591 c 256
 184 591 145 541 145 490 c 256
 145 445 173 413 327 400 c 256
 534 383 609 304 608 187 c 256
 608 60 514 -10 334 -10 c 256
EndSplineSet
PickledDataWithLists: "(dp1
S'com.fontlab.hintData'
p2
(dp3
S'vhints'
p4
(lp5
(dp6
S'position'
p7
I56
sS'width'
p8
I89
sa(dp9
g7
I513
sg8
I95
sasS'hhints'
p10
(lp11
(dp12
g7
I-10
sg8
I147
sa(dp13
g7
I591
sg8
I169
sass."
EndChar

StartChar: Sacute
Encoding: 95 346 95
GlifName: S_acute
Width: 730
VWidth: 0
GlyphClass: 2
Flags: W
HStem: -10 147<309.5 431 309.5 453> 591 169<290.5 416> 835 109
VStem: 95 89<483.5 515.5 467.5 607> 552 95<123.5 258.5>
LayerCount: 2
Fore
SplineSet
217 773 m 257
 205 795 l 257
 240 898 379 961 486 940 c 257
 481 814 l 257
 403 853 271 835 217 773 c 257
363 -10 m 256
 223 -10 94 50 63 124 c 257
 108 261 l 257
 137 192 256 137 363 137 c 256
 499 137 552 179 552 234 c 256
 552 283 496 322 360 332 c 256
 150 348 95 420 95 547 c 256
 95 667 190 760 356 760 c 256
 490 760 584 705 618 650 c 257
 586 519 l 257
 550 549 474 591 358 591 c 256
 223 591 184 541 184 490 c 256
 184 445 212 413 366 400 c 256
 573 383 648 304 647 187 c 256
 647 60 543 -10 363 -10 c 256
EndSplineSet
PickledDataWithLists: "(dp1
S'com.fontlab.hintData'
p2
(dp3
S'vhints'
p4
(lp5
(dp6
S'position'
p7
I95
sS'width'
p8
I89
sa(dp9
g7
I552
sg8
I95
sasS'hhints'
p10
(lp11
(dp12
g7
I-10
sg8
I147
sa(dp13
g7
I591
sg8
I169
sa(dp14
g7
I835
sg8
I109
sass."
EndChar

StartChar: Scaron
Encoding: 96 352 96
GlifName: S_caron
Width: 730
VWidth: 0
GlyphClass: 2
Flags: W
HStem: -10 147<309.5 431 309.5 453> 591 169<290.5 416>
VStem: 95 89<483.5 515.5 467.5 607> 183 364<916 950 916 950> 552 95<123.5 258.5>
LayerCount: 2
Fore
SplineSet
547 950 m 257
 547 916 l 257
 479 904 407 835 375 775 c 257
 355 775 l 257
 323 835 251 904 183 916 c 257
 183 950 l 257
 255 955 345 936 365 896 c 257
 385 936 475 955 547 950 c 257
363 -10 m 256
 223 -10 94 50 63 124 c 257
 108 261 l 257
 137 192 256 137 363 137 c 256
 499 137 552 179 552 234 c 256
 552 283 496 322 360 332 c 256
 150 348 95 420 95 547 c 256
 95 667 190 760 356 760 c 256
 490 760 584 705 618 650 c 257
 586 519 l 257
 550 549 474 591 358 591 c 256
 223 591 184 541 184 490 c 256
 184 445 212 413 366 400 c 256
 573 383 648 304 647 187 c 256
 647 60 543 -10 363 -10 c 256
EndSplineSet
PickledDataWithLists: "(dp1
S'com.fontlab.hintData'
p2
(dp3
S'vhints'
p4
(lp5
(dp6
S'position'
p7
I95
sS'width'
p8
I89
sa(dp9
g7
I183
sg8
I364
sa(dp10
g7
I552
sg8
I95
sasS'hhints'
p11
(lp12
(dp13
g7
I-10
sg8
I147
sa(dp14
g7
I591
sg8
I169
sass."
EndChar

StartChar: Scedilla
Encoding: 97 350 97
GlifName: S_cedilla
Width: 730
VWidth: 0
GlyphClass: 2
Flags: W
HStem: -210 76<338 393 338 398.5> -90 47<406 423> -10 147<368 431 309.5 455.5> 591 169<290.5 416>
VStem: 95 89<483.5 515.5 467.5 607> 304 62<-67.5 -22.5> 441 46<-117.5 -104> 552 95<123.5 258.5>
LayerCount: 2
Fore
SplineSet
355 -210 m 256
 304 -210 246 -192 238 -157 c 257
 273 -101 l 257
 283 -118 316 -134 360 -134 c 256
 426 -134 441 -126 441 -109 c 256
 441 -99 431 -90 415 -90 c 256
 397 -90 373 -94 357 -94 c 256
 328 -94 304 -80 304 -55 c 256
 304 -37 307 -21 314 -8 c 257
 194 4 90 59 63 124 c 257
 108 261 l 257
 137 192 256 137 363 137 c 256
 499 137 552 179 552 234 c 256
 552 283 496 322 360 332 c 256
 150 348 95 420 95 547 c 256
 95 667 190 760 356 760 c 256
 490 760 584 705 618 650 c 257
 586 519 l 257
 550 549 474 591 358 591 c 256
 223 591 184 541 184 490 c 256
 184 445 212 413 366 400 c 256
 573 383 648 304 647 187 c 256
 647 60 543 -10 368 -10 c 257
 367 -15 366 -20 366 -25 c 256
 366 -36 374 -43 427 -43 c 256
 460 -43 487 -63 487 -112 c 256
 487 -177 442 -210 355 -210 c 256
EndSplineSet
PickledDataWithLists: "(dp1
S'com.fontlab.hintData'
p2
(dp3
S'vhints'
p4
(lp5
(dp6
S'position'
p7
I95
sS'width'
p8
I89
sa(dp9
g7
I304
sg8
I62
sa(dp10
g7
I441
sg8
I46
sa(dp11
g7
I552
sg8
I95
sasS'hhints'
p12
(lp13
(dp14
g7
I-210
sg8
I76
sa(dp15
g7
I-90
sg8
I47
sa(dp16
g7
I-10
sg8
I147
sa(dp17
g7
I591
sg8
I169
sass."
EndChar

StartChar: Schwa
Encoding: 98 399 98
GlifName: S_chwa
Width: 730
VWidth: 0
GlyphClass: 2
Flags: W
HStem: -10 139<298 423.5 298 447> 315 81<134 596 134 134> 582 158
VStem: 68 66 601 60<396 396>
LayerCount: 2
Fore
SplineSet
364 -10 m 256
 174 -10 58 115 68 396 c 257
 601 396 l 257
 592 512 513 577 364 582 c 256
 270 585 193 546 158 485 c 257
 96 551 l 257
 123 657 224 740 362 740 c 256
 559 740 661 599 661 375 c 256
 661 77 530 -10 364 -10 c 256
372 129 m 256
 475 129 572 198 596 315 c 257
 134 315 l 257
 134 223 224 129 372 129 c 256
EndSplineSet
PickledDataWithLists: "(dp1
S'com.fontlab.hintData'
p2
(dp3
S'vhints'
p4
(lp5
(dp6
S'position'
p7
I68
sS'width'
p8
I66
sa(dp9
g7
I601
sg8
I60
sasS'hhints'
p10
(lp11
(dp12
g7
I-10
sg8
I139
sa(dp13
g7
I315
sg8
I81
sa(dp14
g7
I582
sg8
I158
sass."
EndChar

StartChar: Scircumflex
Encoding: 99 348 99
GlifName: S_circumflex
Width: 730
VWidth: 0
GlyphClass: 2
Flags: W
HStem: -10 147<309.5 431 309.5 453> 591 169<290.5 416>
VStem: 95 89<483.5 515.5 467.5 607> 183 364<785 819 785 819> 552 95<123.5 258.5>
LayerCount: 2
Fore
SplineSet
547 785 m 257
 479 780 385 799 365 839 c 257
 345 799 251 780 183 785 c 257
 183 819 l 257
 247 830 323 901 355 960 c 257
 375 960 l 257
 407 901 483 830 547 819 c 257
 547 785 l 257
363 -10 m 256
 223 -10 94 50 63 124 c 257
 108 261 l 257
 137 192 256 137 363 137 c 256
 499 137 552 179 552 234 c 256
 552 283 496 322 360 332 c 256
 150 348 95 420 95 547 c 256
 95 667 190 760 356 760 c 256
 490 760 584 705 618 650 c 257
 586 519 l 257
 550 549 474 591 358 591 c 256
 223 591 184 541 184 490 c 256
 184 445 212 413 366 400 c 256
 573 383 648 304 647 187 c 256
 647 60 543 -10 363 -10 c 256
EndSplineSet
PickledDataWithLists: "(dp1
S'com.fontlab.hintData'
p2
(dp3
S'vhints'
p4
(lp5
(dp6
S'position'
p7
I95
sS'width'
p8
I89
sa(dp9
g7
I183
sg8
I364
sa(dp10
g7
I552
sg8
I95
sasS'hhints'
p11
(lp12
(dp13
g7
I-10
sg8
I147
sa(dp14
g7
I591
sg8
I169
sass."
EndChar

StartChar: Scommaaccent
Encoding: 100 536 100
GlifName: S_commaaccent
Width: 730
VWidth: 0
GlyphClass: 2
Flags: W
HStem: -10 147<309.5 431 309.5 453> 591 169<290.5 416>
VStem: 95 89<483.5 515.5 467.5 607> 552 95<123.5 258.5>
LayerCount: 2
Fore
SplineSet
363 -10 m 256
 223 -10 94 50 63 124 c 257
 108 261 l 257
 137 192 256 137 363 137 c 256
 499 137 552 179 552 234 c 256
 552 283 496 322 360 332 c 256
 150 348 95 420 95 547 c 256
 95 667 190 760 356 760 c 256
 490 760 584 705 618 650 c 257
 586 519 l 257
 550 549 474 591 358 591 c 256
 223 591 184 541 184 490 c 256
 184 445 212 413 366 400 c 256
 573 383 648 304 647 187 c 256
 647 60 543 -10 363 -10 c 256
264 -210 m 257
 244 -196 l 257
 298 -152 317 -106 295 -56 c 257
 421 -56 l 257
 431 -119 366 -179 264 -210 c 257
EndSplineSet
PickledDataWithLists: "(dp1
S'com.fontlab.hintData'
p2
(dp3
S'vhints'
p4
(lp5
(dp6
S'position'
p7
I95
sS'width'
p8
I89
sa(dp9
g7
I552
sg8
I95
sasS'hhints'
p10
(lp11
(dp12
g7
I-10
sg8
I147
sa(dp13
g7
I591
sg8
I169
sass."
EndChar

StartChar: T
Encoding: 101 84 101
GlifName: T_
Width: 610
VWidth: 0
GlyphClass: 2
Flags: W
HStem: 550 180<30 580 30 271 342 342 342 580>
VStem: 271 71<0 550 0 550>
LayerCount: 2
Fore
SplineSet
30 706 m 257
 88 706 l 257
 88 457 l 257
 30 457 l 257
 30 706 l 257
522 706 m 257
 580 706 l 257
 580 457 l 257
 522 457 l 257
 522 706 l 257
456 0 m 257
 355.667 0 255.333 0 155 0 c 257
 155 140 l 257
 456 140 l 257
 456 0 l 257
30 550 m 257
 30 730 l 257
 580 730 l 257
 580 550 l 257
 342 550 l 257
 342 0 l 257
 271 0 l 257
 271 550 l 257
 30 550 l 257
EndSplineSet
PickledDataWithLists: "(dp1
S'com.fontlab.hintData'
p2
(dp3
S'vhints'
p4
(lp5
(dp6
S'position'
p7
I271
sS'width'
p8
I71
sasS'hhints'
p9
(lp10
(dp11
g7
I550
sg8
I180
sass."
EndChar

StartChar: Tbar
Encoding: 102 358 102
GlifName: T_bar
Width: 580
VWidth: 0
GlyphClass: 2
Flags: W
HStem: 267 109<83 246 83 246 317 469 83 317> 550 180<25 246 25 535 317 317 317 535>
VStem: 25 510<550 730 550 730> 246 71<0 267 0 267 376 550>
LayerCount: 2
Fore
SplineSet
469 267 m 257
 317 267 l 257
 317 0 l 257
 246 0 l 257
 246 267 l 257
 83 267 l 257
 83 376 l 257
 246 376 l 257
 246 550 l 257
 25 550 l 257
 25 730 l 257
 535 730 l 257
 535 550 l 257
 317 550 l 257
 317 376 l 257
 469 376 l 257
 469 267 l 257
EndSplineSet
PickledDataWithLists: "(dp1
S'com.fontlab.hintData'
p2
(dp3
S'vhints'
p4
(lp5
(dp6
S'position'
p7
I25
sS'width'
p8
I510
sa(dp9
g7
I246
sg8
I71
sasS'hhints'
p10
(lp11
(dp12
g7
I267
sg8
I109
sa(dp13
g7
I550
sg8
I180
sass."
EndChar

StartChar: Tcaron
Encoding: 103 356 103
GlifName: T_caron
Width: 580
VWidth: 0
GlyphClass: 2
Flags: W
HStem: 550 180<25 535 25 246 317 317 317 535>
VStem: 113 364<916 950 916 950> 246 71<0 550 0 550>
LayerCount: 2
Fore
SplineSet
477 950 m 257
 477 916 l 257
 409 904 337 835 305 775 c 257
 285 775 l 257
 253 835 181 904 113 916 c 257
 113 950 l 257
 185 955 275 936 295 896 c 257
 315 936 405 955 477 950 c 257
25 550 m 257
 25 730 l 257
 535 730 l 257
 535 550 l 257
 317 550 l 257
 317 0 l 257
 246 0 l 257
 246 550 l 257
 25 550 l 257
EndSplineSet
PickledDataWithLists: "(dp1
S'com.fontlab.hintData'
p2
(dp3
S'vhints'
p4
(lp5
(dp6
S'position'
p7
I113
sS'width'
p8
I364
sa(dp9
g7
I246
sg8
I71
sasS'hhints'
p10
(lp11
(dp12
g7
I550
sg8
I180
sass."
EndChar

StartChar: Tcedilla
Encoding: 104 354 104
GlifName: T_cedilla
Width: 580
VWidth: 0
GlyphClass: 2
Flags: W
HStem: -210 76<275 330 275 335.5> -90 47<343 360> 550 180<25 246 25 535 317 317 317 535>
VStem: 246 71<0 550 0 550> 378 46<-117.5 -104>
LayerCount: 2
Fore
SplineSet
292 -210 m 256
 241 -210 183 -192 175 -157 c 257
 210 -101 l 257
 220 -118 253 -134 297 -134 c 256
 363 -134 378 -126 378 -109 c 256
 378 -99 368 -90 352 -90 c 256
 334 -90 310 -94 294 -94 c 256
 265 -94 241 -80 241 -55 c 256
 241 -34 246 -16 255 0 c 257
 246 0 l 257
 246 550 l 257
 25 550 l 257
 25 730 l 257
 535 730 l 257
 535 550 l 257
 317 550 l 257
 317 0 l 257
 310 0 l 257
 305 -7 303 -16 303 -25 c 256
 303 -36 311 -43 364 -43 c 256
 397 -43 424 -63 424 -112 c 256
 424 -177 379 -210 292 -210 c 256
EndSplineSet
PickledDataWithLists: "(dp1
S'com.fontlab.hintData'
p2
(dp3
S'vhints'
p4
(lp5
(dp6
S'position'
p7
I246
sS'width'
p8
I71
sa(dp9
g7
I378
sg8
I46
sasS'hhints'
p10
(lp11
(dp12
g7
I-210
sg8
I76
sa(dp13
g7
I-90
sg8
I47
sa(dp14
g7
I550
sg8
I180
sass."
EndChar

StartChar: Thorn
Encoding: 105 222 105
GlifName: T_horn
Width: 680
VWidth: 0
GlyphClass: 2
Flags: W
HStem: 150 136<186 340 186 400> 458 160<186 341 341 400 186 341>
VStem: 116 70<0 150 286 458 618 730> 528 60<370 370>
LayerCount: 2
Fore
SplineSet
340 150 m 258
 186 150 l 257
 186 0 l 257
 116 0 l 257
 116 730 l 257
 186 730 l 257
 186 618 l 257
 341 618 l 258
 499 618 588 549 588 370 c 256
 588 218 504 150 340 150 c 258
400 286 m 258
 482 286 529 323 528 370 c 256
 527 421 485 458 400 458 c 258
 186 458 l 257
 186 286 l 257
 400 286 l 258
EndSplineSet
PickledDataWithLists: "(dp1
S'com.fontlab.hintData'
p2
(dp3
S'vhints'
p4
(lp5
(dp6
S'position'
p7
I116
sS'width'
p8
I70
sa(dp9
g7
I528
sg8
I60
sasS'hhints'
p10
(lp11
(dp12
g7
I150
sg8
I136
sa(dp13
g7
I458
sg8
I160
sass."
EndChar

StartChar: U
Encoding: 106 85 106
GlifName: U_
Width: 829
VWidth: 0
GlyphClass: 2
Flags: W
HStem: -10 165<379.5 456 379.5 503.5>
VStem: 131 66<339.5 369 369 730> 633 68<361 730>
LayerCount: 2
Fore
SplineSet
789 555 m 257
 668 555 618 555 497 555 c 257
 497 730 l 257
 789 730 l 257
 789 555 l 257
333 555 m 257
 212 555 161 555 40 555 c 257
 40 730 l 257
 333 730 l 257
 333 555 l 257
633 361 m 258
 633 730 l 257
 701 730 l 257
 701 296 l 258
 701 83 591 -10 416 -10 c 256
 249 -10 131 82 131 294 c 258
 131 730 l 257
 197 730 l 257
 197 369 l 258
 197 310 205 251 240 215 c 256
 281 174 340 155 419 155 c 256
 493 155 552 173 591 215 c 256
 622 249 633 308 633 361 c 258
EndSplineSet
PickledDataWithLists: "(dp1
S'com.fontlab.hintData'
p2
(dp3
S'vhints'
p4
(lp5
(dp6
S'position'
p7
I131
sS'width'
p8
I66
sa(dp9
g7
I633
sg8
I68
sasS'hhints'
p10
(lp11
(dp12
g7
I-10
sg8
I165
sass."
EndChar

StartChar: Uacute
Encoding: 107 218 107
GlifName: U_acute
Width: 730
VWidth: 0
GlyphClass: 2
Flags: W
HStem: -10 165<318.5 395 318.5 442.5> 835 109
VStem: 70 66<339.5 369 369 730> 572 68<361 730>
LayerCount: 2
Fore
SplineSet
217 773 m 257
 205 795 l 257
 240 898 379 961 486 940 c 257
 481 814 l 257
 403 853 271 835 217 773 c 257
572 361 m 258
 572 730 l 257
 640 730 l 257
 640 296 l 258
 640 83 530 -10 355 -10 c 256
 188 -10 70 82 70 294 c 258
 70 730 l 257
 136 730 l 257
 136 369 l 258
 136 310 144 251 179 215 c 256
 220 174 279 155 358 155 c 256
 432 155 491 173 530 215 c 256
 561 249 572 308 572 361 c 258
EndSplineSet
PickledDataWithLists: "(dp1
S'com.fontlab.hintData'
p2
(dp3
S'vhints'
p4
(lp5
(dp6
S'position'
p7
I70
sS'width'
p8
I66
sa(dp9
g7
I572
sg8
I68
sasS'hhints'
p10
(lp11
(dp12
g7
I-10
sg8
I165
sa(dp13
g7
I835
sg8
I109
sass."
EndChar

StartChar: Ubreve
Encoding: 108 364 108
GlifName: U_breve
Width: 730
VWidth: 0
GlyphClass: 2
Flags: W
HStem: -10 165<318.5 395 318.5 442.5> 779 87<314.5 379.5 314.5 396>
VStem: 70 66<339.5 369 369 730> 180 51<897 960> 470 50<897 960> 572 68<361 730>
LayerCount: 2
Fore
SplineSet
345 779 m 256
 249 779 180 834 180 960 c 257
 231 960 l 257
 230 889 284 866 345 866 c 256
 414 866 471 889 470 960 c 257
 520 960 l 257
 520 834 447 779 345 779 c 256
572 361 m 258
 572 730 l 257
 640 730 l 257
 640 296 l 258
 640 83 530 -10 355 -10 c 256
 188 -10 70 82 70 294 c 258
 70 730 l 257
 136 730 l 257
 136 369 l 258
 136 310 144 251 179 215 c 256
 220 174 279 155 358 155 c 256
 432 155 491 173 530 215 c 256
 561 249 572 308 572 361 c 258
EndSplineSet
PickledDataWithLists: "(dp1
S'com.fontlab.hintData'
p2
(dp3
S'vhints'
p4
(lp5
(dp6
S'position'
p7
I70
sS'width'
p8
I66
sa(dp9
g7
I180
sg8
I51
sa(dp10
g7
I470
sg8
I50
sa(dp11
g7
I572
sg8
I68
sasS'hhints'
p12
(lp13
(dp14
g7
I-10
sg8
I165
sa(dp15
g7
I779
sg8
I87
sass."
EndChar

StartChar: Ucircumflex
Encoding: 109 219 109
GlifName: U_circumflex
Width: 730
VWidth: 0
GlyphClass: 2
Flags: W
HStem: -10 165<318.5 395 318.5 442.5>
VStem: 70 66<339.5 369 369 730> 168 364<785 819 785 819> 572 68<361 730>
LayerCount: 2
Fore
SplineSet
532 785 m 257
 464 780 370 799 350 839 c 257
 330 799 236 780 168 785 c 257
 168 819 l 257
 232 830 308 901 340 960 c 257
 360 960 l 257
 392 901 468 830 532 819 c 257
 532 785 l 257
572 361 m 258
 572 730 l 257
 640 730 l 257
 640 296 l 258
 640 83 530 -10 355 -10 c 256
 188 -10 70 82 70 294 c 258
 70 730 l 257
 136 730 l 257
 136 369 l 258
 136 310 144 251 179 215 c 256
 220 174 279 155 358 155 c 256
 432 155 491 173 530 215 c 256
 561 249 572 308 572 361 c 258
EndSplineSet
PickledDataWithLists: "(dp1
S'com.fontlab.hintData'
p2
(dp3
S'vhints'
p4
(lp5
(dp6
S'position'
p7
I70
sS'width'
p8
I66
sa(dp9
g7
I168
sg8
I364
sa(dp10
g7
I572
sg8
I68
sasS'hhints'
p11
(lp12
(dp13
g7
I-10
sg8
I165
sass."
EndChar

StartChar: Udieresis
Encoding: 110 220 110
GlifName: U_dieresis
Width: 730
VWidth: 0
GlyphClass: 2
Flags: W
HStem: -10 165<318.5 395 318.5 442.5> 786 131<221.5 271 432 481>
VStem: 70 66<339.5 369 369 730> 168 154<828.5 873.5> 378 154<828.5 873.5> 572 68<361 730>
LayerCount: 2
Fore
SplineSet
532 850 m 256
 532 807 504 786 458 786 c 256
 406 786 378 807 378 850 c 256
 378 897 405 917 458 917 c 256
 505 917 532 898 532 850 c 256
322 850 m 256
 322 807 294 786 248 786 c 256
 195 786 168 807 168 850 c 256
 168 897 195 917 248 917 c 256
 295 917 322 898 322 850 c 256
572 361 m 258
 572 730 l 257
 640 730 l 257
 640 296 l 258
 640 83 530 -10 355 -10 c 256
 188 -10 70 82 70 294 c 258
 70 730 l 257
 136 730 l 257
 136 369 l 258
 136 310 144 251 179 215 c 256
 220 174 279 155 358 155 c 256
 432 155 491 173 530 215 c 256
 561 249 572 308 572 361 c 258
EndSplineSet
PickledDataWithLists: "(dp1
S'com.fontlab.hintData'
p2
(dp3
S'vhints'
p4
(lp5
(dp6
S'position'
p7
I70
sS'width'
p8
I66
sa(dp9
g7
I168
sg8
I154
sa(dp10
g7
I378
sg8
I154
sa(dp11
g7
I572
sg8
I68
sasS'hhints'
p12
(lp13
(dp14
g7
I-10
sg8
I165
sa(dp15
g7
I786
sg8
I131
sass."
EndChar

StartChar: Ugrave
Encoding: 111 217 111
GlifName: U_grave
Width: 730
VWidth: 0
GlyphClass: 2
Flags: W
HStem: -10 165<318.5 395 318.5 442.5> 835 109
VStem: 70 66<339.5 369 369 730> 572 68<361 730>
LayerCount: 2
Fore
SplineSet
480 773 m 257
 426 835 293 853 216 814 c 257
 211 940 l 257
 319 962 457 899 492 795 c 257
 480 773 l 257
572 361 m 258
 572 730 l 257
 640 730 l 257
 640 296 l 258
 640 83 530 -10 355 -10 c 256
 188 -10 70 82 70 294 c 258
 70 730 l 257
 136 730 l 257
 136 369 l 258
 136 310 144 251 179 215 c 256
 220 174 279 155 358 155 c 256
 432 155 491 173 530 215 c 256
 561 249 572 308 572 361 c 258
EndSplineSet
PickledDataWithLists: "(dp1
S'com.fontlab.hintData'
p2
(dp3
S'vhints'
p4
(lp5
(dp6
S'position'
p7
I70
sS'width'
p8
I66
sa(dp9
g7
I572
sg8
I68
sasS'hhints'
p10
(lp11
(dp12
g7
I-10
sg8
I165
sa(dp13
g7
I835
sg8
I109
sass."
EndChar

StartChar: Uhungarumlaut
Encoding: 112 368 112
GlifName: U_hungarumlaut
Width: 730
VWidth: 0
GlyphClass: 2
Flags: W
HStem: -10 165<318.5 395 318.5 442.5> 778 188
VStem: 70 66<339.5 369 369 730> 207 36 572 68<361 730>
LayerCount: 2
Fore
SplineSet
425 776 m 257
 392 779 l 257
 378 894 421 965 530 965 c 257
 544 907 l 257
 491 896 437 850 425 776 c 257
243 776 m 257
 210 779 l 257
 196 894 239 964 348 965 c 257
 362 907 l 257
 309 896 255 849 243 776 c 257
572 361 m 258
 572 730 l 257
 640 730 l 257
 640 296 l 258
 640 83 530 -10 355 -10 c 256
 188 -10 70 82 70 294 c 258
 70 730 l 257
 136 730 l 257
 136 369 l 258
 136 310 144 251 179 215 c 256
 220 174 279 155 358 155 c 256
 432 155 491 173 530 215 c 256
 561 249 572 308 572 361 c 258
EndSplineSet
PickledDataWithLists: "(dp1
S'com.fontlab.hintData'
p2
(dp3
S'vhints'
p4
(lp5
(dp6
S'position'
p7
I70
sS'width'
p8
I66
sa(dp9
g7
I207
sg8
I36
sa(dp10
g7
I572
sg8
I68
sasS'hhints'
p11
(lp12
(dp13
g7
I-10
sg8
I165
sa(dp14
g7
I778
sg8
I188
sass."
EndChar

StartChar: Umacron
Encoding: 113 362 113
GlifName: U_macron
Width: 730
VWidth: 0
GlyphClass: 2
Flags: W
HStem: -10 165<318.5 395 318.5 442.5> 791 99<176 524 176 524>
VStem: 70 66<339.5 369 369 730> 176 348<791 890 791 890> 572 68<361 730>
LayerCount: 2
Fore
SplineSet
524 791 m 257
 176 791 l 257
 176 890 l 257
 524 890 l 257
 524 791 l 257
572 361 m 258
 572 730 l 257
 640 730 l 257
 640 296 l 258
 640 83 530 -10 355 -10 c 256
 188 -10 70 82 70 294 c 258
 70 730 l 257
 136 730 l 257
 136 369 l 258
 136 310 144 251 179 215 c 256
 220 174 279 155 358 155 c 256
 432 155 491 173 530 215 c 256
 561 249 572 308 572 361 c 258
EndSplineSet
PickledDataWithLists: "(dp1
S'com.fontlab.hintData'
p2
(dp3
S'vhints'
p4
(lp5
(dp6
S'position'
p7
I70
sS'width'
p8
I66
sa(dp9
g7
I176
sg8
I348
sa(dp10
g7
I572
sg8
I68
sasS'hhints'
p11
(lp12
(dp13
g7
I-10
sg8
I165
sa(dp14
g7
I791
sg8
I99
sass."
EndChar

StartChar: Uogonek
Encoding: 114 370 114
GlifName: U_ogonek
Width: 730
VWidth: 0
GlyphClass: 2
Flags: W
HStem: -210 47<408.5 504> -10 165
VStem: 70 66<339.5 369 369 730> 314 95<-103 -89> 572 68<361 730>
LayerCount: 2
Fore
SplineSet
454 -210 m 256
 363 -210 315 -167 314 -103 c 256
 314 -75 323 -42 351 -10 c 257
 186 -8 70 84 70 294 c 258
 70 730 l 257
 136 730 l 257
 136 369 l 258
 136 310 144 251 179 215 c 256
 220 174 279 155 358 155 c 256
 432 155 491 173 530 215 c 256
 561 249 572 308 572 361 c 258
 572 730 l 257
 640 730 l 257
 640 296 l 258
 640 119 564 25 437 -2 c 257
 422 -15 409 -44 409 -81 c 256
 409 -129 448 -162 496 -163 c 256
 512 -163 529 -162 543 -155 c 257
 556 -190 l 257
 534 -203 496 -210 454 -210 c 256
EndSplineSet
PickledDataWithLists: "(dp1
S'com.fontlab.hintData'
p2
(dp3
S'vhints'
p4
(lp5
(dp6
S'position'
p7
I70
sS'width'
p8
I66
sa(dp9
g7
I314
sg8
I95
sa(dp10
g7
I572
sg8
I68
sasS'hhints'
p11
(lp12
(dp13
g7
I-210
sg8
I47
sa(dp14
g7
I-10
sg8
I165
sass."
EndChar

StartChar: Uring
Encoding: 115 366 115
GlifName: U_ring
Width: 730
VWidth: 0
GlyphClass: 2
Flags: W
HStem: -10 165<318.5 395 318.5 442.5> 783 57<337 384 337 391> 935 59<336 383.5>
VStem: 70 66<339.5 369 369 730> 255 35<885 885> 431 34<885 885> 572 68<361 730>
LayerCount: 2
Fore
SplineSet
465 885 m 256
 464 814 421 783 361 783 c 256
 307 783 256 814 255 885 c 256
 256 962 298 994 359 994 c 256
 415 994 464 962 465 885 c 256
431 885 m 256
 430 912 408 935 359 935 c 256
 313 935 290 915 290 885 c 256
 290 858 313 840 361 840 c 256
 407 840 432 857 431 885 c 256
572 361 m 258
 572 730 l 257
 640 730 l 257
 640 296 l 258
 640 83 530 -10 355 -10 c 256
 188 -10 70 82 70 294 c 258
 70 730 l 257
 136 730 l 257
 136 369 l 258
 136 310 144 251 179 215 c 256
 220 174 279 155 358 155 c 256
 432 155 491 173 530 215 c 256
 561 249 572 308 572 361 c 258
EndSplineSet
PickledDataWithLists: "(dp1
S'com.fontlab.hintData'
p2
(dp3
S'vhints'
p4
(lp5
(dp6
S'position'
p7
I70
sS'width'
p8
I66
sa(dp9
g7
I255
sg8
I35
sa(dp10
g7
I431
sg8
I34
sa(dp11
g7
I572
sg8
I68
sasS'hhints'
p12
(lp13
(dp14
g7
I-10
sg8
I165
sa(dp15
g7
I783
sg8
I57
sa(dp16
g7
I935
sg8
I59
sass."
EndChar

StartChar: Utilde
Encoding: 116 360 116
GlifName: U_tilde
Width: 730
VWidth: 0
GlyphClass: 2
Flags: W
HStem: -10 165<318.5 395 318.5 442.5> 811 82
VStem: 70 66<339.5 369 369 730> 572 68<361 730>
LayerCount: 2
Fore
SplineSet
359 906 m 256
 436 886 510 889 529 910 c 257
 536 897 l 257
 502 811 423 772 356 795 c 256
 273 823 208 811 186 786 c 257
 179 799 l 257
 206 876 276 928 359 906 c 256
572 361 m 258
 572 730 l 257
 640 730 l 257
 640 296 l 258
 640 83 530 -10 355 -10 c 256
 188 -10 70 82 70 294 c 258
 70 730 l 257
 136 730 l 257
 136 369 l 258
 136 310 144 251 179 215 c 256
 220 174 279 155 358 155 c 256
 432 155 491 173 530 215 c 256
 561 249 572 308 572 361 c 258
EndSplineSet
PickledDataWithLists: "(dp1
S'com.fontlab.hintData'
p2
(dp3
S'vhints'
p4
(lp5
(dp6
S'position'
p7
I70
sS'width'
p8
I66
sa(dp9
g7
I572
sg8
I68
sasS'hhints'
p10
(lp11
(dp12
g7
I-10
sg8
I165
sa(dp13
g7
I811
sg8
I82
sass."
EndChar

StartChar: V
Encoding: 117 86 117
GlifName: V_
Width: 729
VWidth: 0
GlyphClass: 2
Flags: W
HStem: 0 730<400 416 0 293>
VStem: 20 690<729 730>
LayerCount: 2
Fore
SplineSet
729 555 m 257
 608 555 521 555 400 555 c 257
 400 730 l 257
 729 730 l 257
 729 555 l 257
242 555 m 257
 121 555 121 555 0 555 c 257
 0 730 l 257
 242 730 l 257
 242 555 l 257
416 0 m 257
 293 0 l 257
 20 730 l 257
 98 730 l 257
 327 133 l 257
 560 729 l 257
 710 729 l 257
 416 0 l 257
EndSplineSet
PickledDataWithLists: "(dp1
S'com.fontlab.hintData'
p2
(dp3
S'vhints'
p4
(lp5
(dp6
S'position'
p7
I20
sS'width'
p8
I690
sasS'hhints'
p9
(lp10
(dp11
g7
I0
sg8
I730
sass."
EndChar

StartChar: W
Encoding: 118 87 118
GlifName: W_
Width: 1012
VWidth: 0
GlyphClass: 2
Flags: W
HStem: 0 599<280 533 280 533 475 749 475 640>
VStem: 69 900<729 730>
LayerCount: 2
Fore
SplineSet
1007 555 m 257
 886 555 796 555 675 555 c 257
 675 730 l 257
 1007 730 l 257
 1007 555 l 257
342 555 m 257
 221 555 131 555 10 555 c 257
 10 730 l 257
 342 730 l 257
 342 555 l 257
640 0 m 257
 525 370 l 257
 393 0 l 257
 280 0 l 257
 69 730 l 257
 143 730 l 257
 316 137 l 257
 475 599 l 257
 533 599 l 257
 674 146 l 257
 841 729 l 257
 969 729 l 257
 749 0 l 257
 640 0 l 257
EndSplineSet
PickledDataWithLists: "(dp1
S'com.fontlab.hintData'
p2
(dp3
S'vhints'
p4
(lp5
(dp6
S'position'
p7
I69
sS'width'
p8
I900
sasS'hhints'
p9
(lp10
(dp11
g7
I0
sg8
I599
sass."
EndChar

StartChar: Wacute
Encoding: 119 7810 119
GlifName: W_acute
Width: 880
VWidth: 0
GlyphClass: 2
Flags: W
HStem: 835 109
VStem: -20 900<729 730>
LayerCount: 2
Fore
SplineSet
267 773 m 257
 255 795 l 257
 290 898 429 961 536 940 c 257
 531 814 l 257
 453 853 321 835 267 773 c 257
551 0 m 257
 436 370 l 257
 304 0 l 257
 191 0 l 257
 -20 730 l 257
 54 730 l 257
 227 137 l 257
 386 599 l 257
 444 599 l 257
 585 146 l 257
 752 729 l 257
 880 729 l 257
 660 0 l 257
 551 0 l 257
EndSplineSet
PickledDataWithLists: "(dp1
S'com.fontlab.hintData'
p2
(dp3
S'vhints'
p4
(lp5
(dp6
S'position'
p7
I-20
sS'width'
p8
I900
sasS'hhints'
p9
(lp10
(dp11
g7
I835
sg8
I109
sass."
EndChar

StartChar: Wcircumflex
Encoding: 120 372 120
GlifName: W_circumflex
Width: 880
VWidth: 0
GlyphClass: 2
Flags: W
HStem: 0 960<191 425 191 425 405 660 405 551>
VStem: 233 364<785 819 785 819>
LayerCount: 2
Fore
SplineSet
597 785 m 257
 529 780 435 799 415 839 c 257
 395 799 301 780 233 785 c 257
 233 819 l 257
 297 830 373 901 405 960 c 257
 425 960 l 257
 457 901 533 830 597 819 c 257
 597 785 l 257
551 0 m 257
 436 370 l 257
 304 0 l 257
 191 0 l 257
 -20 730 l 257
 54 730 l 257
 227 137 l 257
 386 599 l 257
 444 599 l 257
 585 146 l 257
 752 729 l 257
 880 729 l 257
 660 0 l 257
 551 0 l 257
EndSplineSet
PickledDataWithLists: "(dp1
S'com.fontlab.hintData'
p2
(dp3
S'vhints'
p4
(lp5
(dp6
S'position'
p7
I233
sS'width'
p8
I364
sasS'hhints'
p9
(lp10
(dp11
g7
I0
sg8
I960
sass."
EndChar

StartChar: Wdieresis
Encoding: 121 7812 121
GlifName: W_dieresis
Width: 880
VWidth: 0
GlyphClass: 2
Flags: W
HStem: 786 131<286.5 336 497 546>
VStem: 233 154<828.5 873.5> 443 154<828.5 873.5>
LayerCount: 2
Fore
SplineSet
597 850 m 256
 597 807 569 786 523 786 c 256
 471 786 443 807 443 850 c 256
 443 897 470 917 523 917 c 256
 570 917 597 898 597 850 c 256
387 850 m 256
 387 807 359 786 313 786 c 256
 260 786 233 807 233 850 c 256
 233 897 260 917 313 917 c 256
 360 917 387 898 387 850 c 256
551 0 m 257
 436 370 l 257
 304 0 l 257
 191 0 l 257
 -20 730 l 257
 54 730 l 257
 227 137 l 257
 386 599 l 257
 444 599 l 257
 585 146 l 257
 752 729 l 257
 880 729 l 257
 660 0 l 257
 551 0 l 257
EndSplineSet
PickledDataWithLists: "(dp1
S'com.fontlab.hintData'
p2
(dp3
S'vhints'
p4
(lp5
(dp6
S'position'
p7
I233
sS'width'
p8
I154
sa(dp9
g7
I443
sg8
I154
sasS'hhints'
p10
(lp11
(dp12
g7
I786
sg8
I131
sass."
EndChar

StartChar: Wgrave
Encoding: 122 7808 122
GlifName: W_grave
Width: 880
VWidth: 0
GlyphClass: 2
Flags: W
HStem: 835 109
VStem: -20 900<729 730>
LayerCount: 2
Fore
SplineSet
555 773 m 257
 501 835 368 853 291 814 c 257
 286 940 l 257
 394 962 532 899 567 795 c 257
 555 773 l 257
551 0 m 257
 436 370 l 257
 304 0 l 257
 191 0 l 257
 -20 730 l 257
 54 730 l 257
 227 137 l 257
 386 599 l 257
 444 599 l 257
 585 146 l 257
 752 729 l 257
 880 729 l 257
 660 0 l 257
 551 0 l 257
EndSplineSet
PickledDataWithLists: "(dp1
S'com.fontlab.hintData'
p2
(dp3
S'vhints'
p4
(lp5
(dp6
S'position'
p7
I-20
sS'width'
p8
I900
sasS'hhints'
p9
(lp10
(dp11
g7
I835
sg8
I109
sass."
EndChar

StartChar: X
Encoding: 123 88 123
GlifName: X_
Width: 691
VWidth: 0
GlyphClass: 2
Flags: W
HStem: 0 750
VStem: 32 626
LayerCount: 2
Fore
SplineSet
670 0 m 257
 573 0 485 0 388 0 c 257
 388 137 l 257
 670 137 l 257
 670 0 l 257
670 555 m 257
 553 555 473 555 356 555 c 257
 356 730 l 257
 670 730 l 257
 670 555 l 257
336 0 m 257
 239 0 118 0 21 0 c 257
 21 137 l 257
 336 137 l 257
 336 0 l 257
313 555 m 257
 196 555 173 555 56 555 c 257
 56 729 l 257
 313 729 l 257
 313 555 l 257
551 1 m 257
 363 284 l 257
 177 1 l 257
 32 1 l 257
 297 381 l 257
 63 729 l 257
 140 729 l 257
 337 444 l 257
 523 729 l 257
 658 729 l 257
 403 349 l 257
 641 1 l 257
 551 1 l 257
EndSplineSet
PickledDataWithLists: "(dp1
S'com.fontlab.hintData'
p2
(dp3
S'vhints'
p4
(lp5
(dp6
S'position'
p7
I32
sS'width'
p8
I626
sasS'hhints'
p9
(lp10
(dp11
g7
I0
sg8
I750
sass."
EndChar

StartChar: Y
Encoding: 124 89 124
GlifName: Y_
Width: 697
VWidth: 0
GlyphClass: 2
Flags: W
HStem: 0 730<346 376 15 305>
VStem: 305 71<0 232>
LayerCount: 2
Fore
SplineSet
501 -1 m 257
 400.667 -1 278.333 -1 178 -1 c 257
 178 139 l 257
 501 139 l 257
 501 -1 l 257
289 555 m 257
 168 555 136 555 15 555 c 257
 15 730 l 257
 289 730 l 257
 289 555 l 257
687 555 m 257
 566 555 467 555 346 555 c 257
 346 730 l 257
 687 730 l 257
 687 555 l 257
376 0 m 257
 305 0 l 257
 305 252 l 257
 37 730 l 257
 110 730 l 257
 309 357 l 257
 508 730 l 257
 657 730 l 257
 376 232 l 257
 376 0 l 257
EndSplineSet
PickledDataWithLists: "(dp1
S'com.fontlab.hintData'
p2
(dp3
S'vhints'
p4
(lp5
(dp6
S'position'
p7
I305
sS'width'
p8
I71
sasS'hhints'
p9
(lp10
(dp11
g7
I0
sg8
I730
sass."
EndChar

StartChar: Yacute
Encoding: 125 221 125
GlifName: Y_acute
Width: 680
VWidth: 0
GlyphClass: 2
Flags: W
HStem: 835 109
VStem: 288 71<0 232>
LayerCount: 2
Fore
SplineSet
157 773 m 257
 145 795 l 257
 180 898 319 961 426 940 c 257
 421 814 l 257
 343 853 211 835 157 773 c 257
359 0 m 257
 288 0 l 257
 288 252 l 257
 20 730 l 257
 93 730 l 257
 292 357 l 257
 491 730 l 257
 640 730 l 257
 359 232 l 257
 359 0 l 257
EndSplineSet
PickledDataWithLists: "(dp1
S'com.fontlab.hintData'
p2
(dp3
S'vhints'
p4
(lp5
(dp6
S'position'
p7
I288
sS'width'
p8
I71
sasS'hhints'
p9
(lp10
(dp11
g7
I835
sg8
I109
sass."
EndChar

StartChar: Ycircumflex
Encoding: 126 374 126
GlifName: Y_circumflex
Width: 680
VWidth: 0
GlyphClass: 2
Flags: W
HStem: 0 960<295 315 295 359 288 315>
VStem: 123 364<785 819 785 819> 288 71<0 232>
LayerCount: 2
Fore
SplineSet
487 785 m 257
 419 780 325 799 305 839 c 257
 285 799 191 780 123 785 c 257
 123 819 l 257
 187 830 263 901 295 960 c 257
 315 960 l 257
 347 901 423 830 487 819 c 257
 487 785 l 257
359 0 m 257
 288 0 l 257
 288 252 l 257
 20 730 l 257
 93 730 l 257
 292 357 l 257
 491 730 l 257
 640 730 l 257
 359 232 l 257
 359 0 l 257
EndSplineSet
PickledDataWithLists: "(dp1
S'com.fontlab.hintData'
p2
(dp3
S'vhints'
p4
(lp5
(dp6
S'position'
p7
I123
sS'width'
p8
I364
sa(dp9
g7
I288
sg8
I71
sasS'hhints'
p10
(lp11
(dp12
g7
I0
sg8
I960
sass."
EndChar

StartChar: Ydieresis
Encoding: 127 376 127
GlifName: Y_dieresis
Width: 680
VWidth: 0
GlyphClass: 2
Flags: W
HStem: 786 131<176.5 226 387 436>
VStem: 123 154<828.5 873.5> 288 71<0 232> 333 154<828.5 873.5>
LayerCount: 2
Fore
SplineSet
487 850 m 256
 487 807 459 786 413 786 c 256
 361 786 333 807 333 850 c 256
 333 897 360 917 413 917 c 256
 460 917 487 898 487 850 c 256
277 850 m 256
 277 807 249 786 203 786 c 256
 150 786 123 807 123 850 c 256
 123 897 150 917 203 917 c 256
 250 917 277 898 277 850 c 256
359 0 m 257
 288 0 l 257
 288 252 l 257
 20 730 l 257
 93 730 l 257
 292 357 l 257
 491 730 l 257
 640 730 l 257
 359 232 l 257
 359 0 l 257
EndSplineSet
PickledDataWithLists: "(dp1
S'com.fontlab.hintData'
p2
(dp3
S'vhints'
p4
(lp5
(dp6
S'position'
p7
I123
sS'width'
p8
I154
sa(dp9
g7
I288
sg8
I71
sa(dp10
g7
I333
sg8
I154
sasS'hhints'
p11
(lp12
(dp13
g7
I786
sg8
I131
sass."
EndChar

StartChar: Ygrave
Encoding: 128 7922 128
GlifName: Y_grave
Width: 680
VWidth: 0
GlyphClass: 2
Flags: W
HStem: 835 109
VStem: 288 71<0 232>
LayerCount: 2
Fore
SplineSet
445 773 m 257
 391 835 258 853 181 814 c 257
 176 940 l 257
 284 962 422 899 457 795 c 257
 445 773 l 257
359 0 m 257
 288 0 l 257
 288 252 l 257
 20 730 l 257
 93 730 l 257
 292 357 l 257
 491 730 l 257
 640 730 l 257
 359 232 l 257
 359 0 l 257
EndSplineSet
PickledDataWithLists: "(dp1
S'com.fontlab.hintData'
p2
(dp3
S'vhints'
p4
(lp5
(dp6
S'position'
p7
I288
sS'width'
p8
I71
sasS'hhints'
p9
(lp10
(dp11
g7
I835
sg8
I109
sass."
EndChar

StartChar: Z
Encoding: 129 90 129
GlifName: Z_
Width: 650
VWidth: 0
GlyphClass: 2
Flags: HW
HStem: 0 141<200 600 200 600 542 600 542 551.667> 545 185<63 120 120 418 63 63>
VStem: 30 570<0 41 41 41> 63 557<699 730 699 730 699 730>
LayerCount: 2
Fore
SplineSet
542 219 m 257
 600 219 l 257
 600 0 l 257
 580.667 0 561.333 0 542 0 c 257
 542 219 l 257
62 729 m 261
 120 729 l 261
 120 470 l 261
 100.666992188 470 81.3330078125 470 62 470 c 261
 62 729 l 261
600 0 m 257
 30 0 l 257
 30 41 l 257
 418 545 l 257
 63 545 l 257
 63 730 l 257
 620 730 l 257
 620 699 l 257
 200 141 l 257
 600 141 l 257
 600 0 l 257
EndSplineSet
PickledDataWithLists: "(dp1
S'com.fontlab.hintData'
p2
(dp3
S'vhints'
p4
(lp5
(dp6
S'position'
p7
I30
sS'width'
p8
I570
sa(dp9
g7
I63
sg8
I557
sasS'hhints'
p10
(lp11
(dp12
g7
I0
sg8
I141
sa(dp13
g7
I545
sg8
I185
sass."
EndChar

StartChar: Zacute
Encoding: 130 377 130
GlifName: Z_acute
Width: 730
VWidth: 0
GlyphClass: 2
Flags: W
HStem: 0 141<230 630 230 630> 545 185<93 448 93 650> 835 109
VStem: 60 590 93 557<699 730 699 730 699 730>
LayerCount: 2
Fore
SplineSet
217 773 m 257
 205 795 l 257
 240 898 379 961 486 940 c 257
 481 814 l 257
 403 853 271 835 217 773 c 257
630 0 m 257
 60 0 l 257
 60 41 l 257
 448 545 l 257
 93 545 l 257
 93 730 l 257
 650 730 l 257
 650 699 l 257
 230 141 l 257
 630 141 l 257
 630 0 l 257
EndSplineSet
PickledDataWithLists: "(dp1
S'com.fontlab.hintData'
p2
(dp3
S'vhints'
p4
(lp5
(dp6
S'position'
p7
I60
sS'width'
p8
I590
sa(dp9
g7
I93
sg8
I557
sasS'hhints'
p10
(lp11
(dp12
g7
I0
sg8
I141
sa(dp13
g7
I545
sg8
I185
sa(dp14
g7
I835
sg8
I109
sass."
EndChar

StartChar: Zcaron
Encoding: 131 381 131
GlifName: Z_caron
Width: 730
VWidth: 0
GlyphClass: 2
Flags: W
HStem: 0 141<230 630 230 630> 545 185<93 448 93 650>
VStem: 93 557<699 730 699 730 699 730> 183 364<916 950 916 950>
LayerCount: 2
Fore
SplineSet
547 950 m 257
 547 916 l 257
 479 904 407 835 375 775 c 257
 355 775 l 257
 323 835 251 904 183 916 c 257
 183 950 l 257
 255 955 345 936 365 896 c 257
 385 936 475 955 547 950 c 257
630 0 m 257
 60 0 l 257
 60 41 l 257
 448 545 l 257
 93 545 l 257
 93 730 l 257
 650 730 l 257
 650 699 l 257
 230 141 l 257
 630 141 l 257
 630 0 l 257
EndSplineSet
PickledDataWithLists: "(dp1
S'com.fontlab.hintData'
p2
(dp3
S'vhints'
p4
(lp5
(dp6
S'position'
p7
I93
sS'width'
p8
I557
sa(dp9
g7
I183
sg8
I364
sasS'hhints'
p10
(lp11
(dp12
g7
I0
sg8
I141
sa(dp13
g7
I545
sg8
I185
sass."
EndChar

StartChar: Zdotaccent
Encoding: 132 379 132
GlifName: Z_dotaccent
Width: 730
VWidth: 0
GlyphClass: 2
Flags: W
HStem: 0 141<230 630 230 630> 545 185<93 448 93 650> 779 145<339 393.5>
VStem: 93 557<699 730 699 730 699 730> 279 172<826 876>
LayerCount: 2
Fore
SplineSet
451 850 m 256
 451 802 419 779 368 779 c 256
 310 779 279 802 279 850 c 256
 279 902 309 924 368 924 c 256
 420 924 451 903 451 850 c 256
630 0 m 257
 60 0 l 257
 60 41 l 257
 448 545 l 257
 93 545 l 257
 93 730 l 257
 650 730 l 257
 650 699 l 257
 230 141 l 257
 630 141 l 257
 630 0 l 257
EndSplineSet
PickledDataWithLists: "(dp1
S'com.fontlab.hintData'
p2
(dp3
S'vhints'
p4
(lp5
(dp6
S'position'
p7
I93
sS'width'
p8
I557
sa(dp9
g7
I279
sg8
I172
sasS'hhints'
p10
(lp11
(dp12
g7
I0
sg8
I141
sa(dp13
g7
I545
sg8
I185
sa(dp14
g7
I779
sg8
I145
sass."
EndChar

StartChar: a
Encoding: 133 97 133
GlifName: a
Width: 609
VWidth: 0
GlyphClass: 2
Flags: HW
HStem: -10 105 256 71<218.5 270.5 187.5 293> 422 138<235.5 310>
VStem: 47 78<158 205 158 207.5> 407 63<149 198 198 210 210 210>
LayerCount: 2
Fore
SplineSet
258 105 m 256
 320 105 375 119 407 149 c 257
 407 210 l 257
 366 241 321 256 265 256 c 256
 172 256 125 228 125 182 c 256
 125 134 165 105 258 105 c 256
436 77 m 257
 409 29 335 -10 257 -10 c 256
 115 -10 47 58 47 155 c 256
 47 260 128 327 247 327 c 256
 294 327 364 318 406 289 c 257
 401 383 357 422 263 422 c 256
 178 422 128 395 101 363 c 257
 97 492 l 257
 135 537 198 560 273 560 c 256
 409 560 470 501 470 316 c 258
 470 198 l 258
 470 181 470 169 470 144 c 257
 478 121 499 109 523 109 c 256
 554 109 579 118 602 147 c 257
 602 109 602 52 602 37 c 257
 584 14 556 0 516 0 c 257
 466 0 429 26 411 72 c 257
 436 77 l 257
EndSplineSet
PickledDataWithLists: "(dp1
S'com.fontlab.hintData'
p2
(dp3
S'vhints'
p4
(lp5
(dp6
S'position'
p7
I47
sS'width'
p8
I78
sa(dp9
g7
I407
sg8
I63
sasS'hhints'
p10
(lp11
(dp12
g7
I-10
sg8
I105
sa(dp13
g7
I256
sg8
I71
sa(dp14
g7
I422
sg8
I138
sass."
EndChar

StartChar: aacute
Encoding: 134 225 134
GlifName: aacute
Width: 530
VWidth: 0
GlyphClass: 2
Flags: W
HStem: -10 105<210 279 210 286> 256 71<208.5 260.5 175 283> 422 138<225.5 300> 675 109
VStem: 37 78<152.5 198 152.5 210> 397 63<139 210 210 210>
LayerCount: 2
Fore
SplineSet
126 613 m 257
 114 635 l 257
 149 738 288 801 395 780 c 257
 390 654 l 257
 312 693 180 675 126 613 c 257
248 95 m 256
 310 95 365 109 397 139 c 257
 397 210 l 257
 356 241 311 256 255 256 c 256
 162 256 115 223 115 173 c 256
 115 132 172 95 248 95 c 256
420 0 m 257
 407 35 l 257
 372 5 325 -10 247 -10 c 256
 105 -10 37 58 37 155 c 256
 37 265 113 327 237 327 c 256
 284 327 354 318 396 289 c 257
 391 383 347 422 253 422 c 256
 168 422 118 395 91 363 c 257
 87 492 l 257
 125 537 188 560 263 560 c 256
 399 560 460 501 460 316 c 258
 460 0 l 257
 420 0 l 257
EndSplineSet
PickledDataWithLists: "(dp1
S'com.fontlab.hintData'
p2
(dp3
S'vhints'
p4
(lp5
(dp6
S'position'
p7
I37
sS'width'
p8
I78
sa(dp9
g7
I397
sg8
I63
sasS'hhints'
p10
(lp11
(dp12
g7
I-10
sg8
I105
sa(dp13
g7
I256
sg8
I71
sa(dp14
g7
I422
sg8
I138
sa(dp15
g7
I675
sg8
I109
sass."
EndChar

StartChar: abreve
Encoding: 135 259 135
GlifName: abreve
Width: 530
VWidth: 0
GlyphClass: 2
Flags: W
HStem: -10 105<210 279 210 286> 256 71<208.5 260.5 175 283> 422 138<225.5 300> 619 87<219.5 284.5 219.5 301>
VStem: 37 78<152.5 198 152.5 210> 85 51<737 800> 375 50<737 800> 397 63<139 210 210 210>
LayerCount: 2
Fore
SplineSet
250 619 m 256
 154 619 85 674 85 800 c 257
 136 800 l 257
 135 729 189 706 250 706 c 256
 319 706 376 729 375 800 c 257
 425 800 l 257
 425 674 352 619 250 619 c 256
248 95 m 256
 310 95 365 109 397 139 c 257
 397 210 l 257
 356 241 311 256 255 256 c 256
 162 256 115 223 115 173 c 256
 115 132 172 95 248 95 c 256
420 0 m 257
 407 35 l 257
 372 5 325 -10 247 -10 c 256
 105 -10 37 58 37 155 c 256
 37 265 113 327 237 327 c 256
 284 327 354 318 396 289 c 257
 391 383 347 422 253 422 c 256
 168 422 118 395 91 363 c 257
 87 492 l 257
 125 537 188 560 263 560 c 256
 399 560 460 501 460 316 c 258
 460 0 l 257
 420 0 l 257
EndSplineSet
PickledDataWithLists: "(dp1
S'com.fontlab.hintData'
p2
(dp3
S'vhints'
p4
(lp5
(dp6
S'position'
p7
I37
sS'width'
p8
I78
sa(dp9
g7
I85
sg8
I51
sa(dp10
g7
I375
sg8
I50
sa(dp11
g7
I397
sg8
I63
sasS'hhints'
p12
(lp13
(dp14
g7
I-10
sg8
I105
sa(dp15
g7
I256
sg8
I71
sa(dp16
g7
I422
sg8
I138
sa(dp17
g7
I619
sg8
I87
sass."
EndChar

StartChar: acircumflex
Encoding: 136 226 136
GlifName: acircumflex
Width: 530
VWidth: 0
GlyphClass: 2
Flags: W
HStem: -10 105<210 279 210 286> 256 71<208.5 260.5 175 283> 422 138<225.5 300>
VStem: 37 78<152.5 198 152.5 210> 80 364<625 659 625 659> 397 63<139 210 210 210>
LayerCount: 2
Fore
SplineSet
444 625 m 257
 376 620 282 639 262 679 c 257
 242 639 148 620 80 625 c 257
 80 659 l 257
 144 670 220 741 252 800 c 257
 272 800 l 257
 304 741 380 670 444 659 c 257
 444 625 l 257
248 95 m 256
 310 95 365 109 397 139 c 257
 397 210 l 257
 356 241 311 256 255 256 c 256
 162 256 115 223 115 173 c 256
 115 132 172 95 248 95 c 256
420 0 m 257
 407 35 l 257
 372 5 325 -10 247 -10 c 256
 105 -10 37 58 37 155 c 256
 37 265 113 327 237 327 c 256
 284 327 354 318 396 289 c 257
 391 383 347 422 253 422 c 256
 168 422 118 395 91 363 c 257
 87 492 l 257
 125 537 188 560 263 560 c 256
 399 560 460 501 460 316 c 258
 460 0 l 257
 420 0 l 257
EndSplineSet
PickledDataWithLists: "(dp1
S'com.fontlab.hintData'
p2
(dp3
S'vhints'
p4
(lp5
(dp6
S'position'
p7
I37
sS'width'
p8
I78
sa(dp9
g7
I80
sg8
I364
sa(dp10
g7
I397
sg8
I63
sasS'hhints'
p11
(lp12
(dp13
g7
I-10
sg8
I105
sa(dp14
g7
I256
sg8
I71
sa(dp15
g7
I422
sg8
I138
sass."
EndChar

StartChar: acute
Encoding: 137 180 137
GlifName: acute
Width: 530
VWidth: 0
GlyphClass: 2
Flags: W
HStem: 675 109
VStem: 124 281<635 780>
LayerCount: 2
Fore
SplineSet
136 613 m 257
 124 635 l 257
 159 738 298 801 405 780 c 257
 400 654 l 257
 322 693 190 675 136 613 c 257
EndSplineSet
PickledDataWithLists: "(dp1
S'com.fontlab.hintData'
p2
(dp3
S'vhints'
p4
(lp5
(dp6
S'position'
p7
I124
sS'width'
p8
I281
sasS'hhints'
p9
(lp10
(dp11
g7
I675
sg8
I109
sass."
EndChar

StartChar: acute.case
Encoding: 138 -1 138
GlifName: acute.case
Width: 730
VWidth: 0
GlyphClass: 2
Flags: W
HStem: 835 109
VStem: 205 281<795 940>
LayerCount: 2
Fore
SplineSet
217 773 m 257
 205 795 l 257
 240 898 379 961 486 940 c 257
 481 814 l 257
 403 853 271 835 217 773 c 257
EndSplineSet
PickledDataWithLists: "(dp1
S'com.fontlab.hintData'
p2
(dp3
S'vhints'
p4
(lp5
(dp6
S'position'
p7
I205
sS'width'
p8
I281
sasS'hhints'
p9
(lp10
(dp11
g7
I835
sg8
I109
sass."
EndChar

StartChar: adieresis
Encoding: 139 228 139
GlifName: adieresis
Width: 530
VWidth: 0
GlyphClass: 2
Flags: W
HStem: -10 105<210 279 210 286> 256 71<208.5 260.5 175 283> 422 138<225.5 300> 666 131<129.5 179 340 389>
VStem: 37 78<152.5 198 152.5 210> 76 154<708.5 753.5> 286 154<708.5 753.5> 397 63<139 210 210 210>
LayerCount: 2
Fore
SplineSet
440 730 m 256
 440 687 412 666 366 666 c 256
 314 666 286 687 286 730 c 256
 286 777 313 797 366 797 c 256
 413 797 440 778 440 730 c 256
230 730 m 256
 230 687 202 666 156 666 c 256
 103 666 76 687 76 730 c 256
 76 777 103 797 156 797 c 256
 203 797 230 778 230 730 c 256
248 95 m 256
 310 95 365 109 397 139 c 257
 397 210 l 257
 356 241 311 256 255 256 c 256
 162 256 115 223 115 173 c 256
 115 132 172 95 248 95 c 256
420 0 m 257
 407 35 l 257
 372 5 325 -10 247 -10 c 256
 105 -10 37 58 37 155 c 256
 37 265 113 327 237 327 c 256
 284 327 354 318 396 289 c 257
 391 383 347 422 253 422 c 256
 168 422 118 395 91 363 c 257
 87 492 l 257
 125 537 188 560 263 560 c 256
 399 560 460 501 460 316 c 258
 460 0 l 257
 420 0 l 257
EndSplineSet
PickledDataWithLists: "(dp1
S'com.fontlab.hintData'
p2
(dp3
S'vhints'
p4
(lp5
(dp6
S'position'
p7
I37
sS'width'
p8
I78
sa(dp9
g7
I76
sg8
I154
sa(dp10
g7
I286
sg8
I154
sa(dp11
g7
I397
sg8
I63
sasS'hhints'
p12
(lp13
(dp14
g7
I-10
sg8
I105
sa(dp15
g7
I256
sg8
I71
sa(dp16
g7
I422
sg8
I138
sa(dp17
g7
I666
sg8
I131
sass."
EndChar

StartChar: ae
Encoding: 140 230 140
GlifName: ae
Width: 880
VWidth: 0
GlyphClass: 2
Flags: W
HStem: -10 105<208 277 208 299> -10 111 232 65<453 775 453 840 451 775> 256 71<206.5 258 173 280.5> 418 142<579.5 661> 422 138<223.5 293.5>
VStem: 35 78<152.5 198 152.5 210> 390 68 775 65<297 327.5>
LayerCount: 2
Fore
SplineSet
458 316 m 257
 453 297 l 257
 775 297 l 257
 775 358 712 418 610 418 c 256
 543 418 481 382 458 321 c 257
 458 316 l 257
246 95 m 256
 308 95 363 109 395 139 c 257
 395 199 l 258
 394 203 394 207 393 212 c 256
 353 242 308 256 253 256 c 256
 160 256 113 223 113 173 c 256
 113 132 170 95 246 95 c 256
821 126 m 257
 788 50 714 -10 617 -10 c 256
 537 -10 478 22 440 77 c 257
 404 19 353 -10 245 -10 c 256
 103 -10 35 58 35 155 c 256
 35 265 111 327 235 327 c 256
 281 327 348 318 390 292 c 257
 391 300 391 307 392 314 c 256
 380 390 336 422 251 422 c 256
 166 422 116 395 89 363 c 257
 85 492 l 257
 123 537 186 560 261 560 c 256
 350 560 407 534 436 464 c 257
 478 532 544 560 615 560 c 256
 751 560 840 460 840 232 c 257
 451 232 l 257
 464 144 523 102 615 101 c 256
 703 100 745 121 774 161 c 257
 821 126 l 257
EndSplineSet
PickledDataWithLists: "(dp1
S'com.fontlab.hintData'
p2
(dp3
S'vhints'
p4
(lp5
(dp6
S'position'
p7
I35
sS'width'
p8
I78
sa(dp9
g7
I390
sg8
I68
sa(dp10
g7
I775
sg8
I65
sasS'hhints'
p11
(lp12
(dp13
g7
I-10
sg8
I105
sa(dp14
g7
I-10
sg8
I111
sa(dp15
g7
I232
sg8
I65
sa(dp16
g7
I256
sg8
I71
sa(dp17
g7
I418
sg8
I142
sa(dp18
g7
I422
sg8
I138
sass."
EndChar

StartChar: aeacute
Encoding: 141 509 141
GlifName: aeacute
Width: 880
VWidth: 0
GlyphClass: 2
Flags: W
HStem: -10 105<198 267 198 289> -10 111 232 65<443 765 443 830 441 765> 256 71<196.5 248 163 270.5> 418 142<569.5 651> 422 138<213.5 283.5> 675 109
VStem: 25 78<152.5 198 152.5 210> 765 65<297 327.5>
LayerCount: 2
Fore
SplineSet
276 613 m 257
 264 635 l 257
 299 738 438 801 545 780 c 257
 540 654 l 257
 462 693 330 675 276 613 c 257
448 316 m 257
 443 297 l 257
 765 297 l 257
 765 358 702 418 600 418 c 256
 533 418 471 382 448 321 c 257
 448 316 l 257
236 95 m 256
 298 95 353 109 385 139 c 257
 385 199 l 258
 384 203 384 207 383 212 c 256
 343 242 298 256 243 256 c 256
 150 256 103 223 103 173 c 256
 103 132 160 95 236 95 c 256
811 126 m 257
 778 50 704 -10 607 -10 c 256
 527 -10 468 22 430 77 c 257
 394 19 343 -10 235 -10 c 256
 93 -10 25 58 25 155 c 256
 25 265 101 327 225 327 c 256
 271 327 338 318 380 292 c 257
 381 300 381 307 382 314 c 256
 370 390 326 422 241 422 c 256
 156 422 106 395 79 363 c 257
 75 492 l 257
 113 537 176 560 251 560 c 256
 340 560 397 534 426 464 c 257
 468 532 534 560 605 560 c 256
 741 560 830 460 830 232 c 257
 441 232 l 257
 454 144 513 102 605 101 c 256
 693 100 735 121 764 161 c 257
 811 126 l 257
EndSplineSet
PickledDataWithLists: "(dp1
S'com.fontlab.hintData'
p2
(dp3
S'vhints'
p4
(lp5
(dp6
S'position'
p7
I25
sS'width'
p8
I78
sa(dp9
g7
I765
sg8
I65
sasS'hhints'
p10
(lp11
(dp12
g7
I-10
sg8
I105
sa(dp13
g7
I-10
sg8
I111
sa(dp14
g7
I232
sg8
I65
sa(dp15
g7
I256
sg8
I71
sa(dp16
g7
I418
sg8
I142
sa(dp17
g7
I422
sg8
I138
sa(dp18
g7
I675
sg8
I109
sass."
EndChar

StartChar: agrave
Encoding: 142 224 142
GlifName: agrave
Width: 530
VWidth: 0
GlyphClass: 2
Flags: W
HStem: -10 105<210 279 210 286> 256 71<208.5 260.5 175 283> 422 138<225.5 300> 675 109
VStem: 37 78<152.5 198 152.5 210> 397 63<139 210 210 210>
LayerCount: 2
Fore
SplineSet
404 613 m 257
 350 675 217 693 140 654 c 257
 135 780 l 257
 243 802 381 739 416 635 c 257
 404 613 l 257
248 95 m 256
 310 95 365 109 397 139 c 257
 397 210 l 257
 356 241 311 256 255 256 c 256
 162 256 115 223 115 173 c 256
 115 132 172 95 248 95 c 256
420 0 m 257
 407 35 l 257
 372 5 325 -10 247 -10 c 256
 105 -10 37 58 37 155 c 256
 37 265 113 327 237 327 c 256
 284 327 354 318 396 289 c 257
 391 383 347 422 253 422 c 256
 168 422 118 395 91 363 c 257
 87 492 l 257
 125 537 188 560 263 560 c 256
 399 560 460 501 460 316 c 258
 460 0 l 257
 420 0 l 257
EndSplineSet
PickledDataWithLists: "(dp1
S'com.fontlab.hintData'
p2
(dp3
S'vhints'
p4
(lp5
(dp6
S'position'
p7
I37
sS'width'
p8
I78
sa(dp9
g7
I397
sg8
I63
sasS'hhints'
p10
(lp11
(dp12
g7
I-10
sg8
I105
sa(dp13
g7
I256
sg8
I71
sa(dp14
g7
I422
sg8
I138
sa(dp15
g7
I675
sg8
I109
sass."
EndChar

StartChar: amacron
Encoding: 143 257 143
GlifName: amacron
Width: 530
VWidth: 0
GlyphClass: 2
Flags: W
HStem: -10 105<210 279 210 286> 256 71<208.5 260.5 175 283> 422 138<225.5 300> 651 99<82 430 82 430>
VStem: 37 78<152.5 198 152.5 210> 82 348<651 750 651 750> 397 63<139 210 210 210>
LayerCount: 2
Fore
SplineSet
430 651 m 257
 82 651 l 257
 82 750 l 257
 430 750 l 257
 430 651 l 257
248 95 m 256
 310 95 365 109 397 139 c 257
 397 210 l 257
 356 241 311 256 255 256 c 256
 162 256 115 223 115 173 c 256
 115 132 172 95 248 95 c 256
420 0 m 257
 407 35 l 257
 372 5 325 -10 247 -10 c 256
 105 -10 37 58 37 155 c 256
 37 265 113 327 237 327 c 256
 284 327 354 318 396 289 c 257
 391 383 347 422 253 422 c 256
 168 422 118 395 91 363 c 257
 87 492 l 257
 125 537 188 560 263 560 c 256
 399 560 460 501 460 316 c 258
 460 0 l 257
 420 0 l 257
EndSplineSet
PickledDataWithLists: "(dp1
S'com.fontlab.hintData'
p2
(dp3
S'vhints'
p4
(lp5
(dp6
S'position'
p7
I37
sS'width'
p8
I78
sa(dp9
g7
I82
sg8
I348
sa(dp10
g7
I397
sg8
I63
sasS'hhints'
p11
(lp12
(dp13
g7
I-10
sg8
I105
sa(dp14
g7
I256
sg8
I71
sa(dp15
g7
I422
sg8
I138
sa(dp16
g7
I651
sg8
I99
sass."
EndChar

StartChar: ampersand
Encoding: 144 38 144
GlifName: ampersand
Width: 730
VWidth: 0
GlyphClass: 2
Flags: W
HStem: -10 125<234 290.5> 310 145<327.5 346 346 389 266 451 451 554> 599 143<253 307.5>
VStem: 60 91<190 213.5> 103 51 389 62<152 206 171 206 206 310 455 530>
LayerCount: 2
Fore
SplineSet
274 115 m 256
 325 115 366 126 389 152 c 257
 389 153 l 257
 389 310 l 257
 346 310 l 258
 309 310 277 313 249 319 c 257
 195 316 151 269 151 222 c 256
 151 158 194 115 274 115 c 256
532 -10 m 256
 481 -11 439 0 414 39 c 257
 382 3 317 -10 264 -10 c 256
 135 -10 60 68 60 174 c 256
 60 253 98 320 176 350 c 257
 123 386 103 447 103 531 c 256
 103 672 193 742 313 742 c 256
 342 742 378 734 398 724 c 257
 379 577 l 257
 360 590 322 599 293 599 c 256
 204 599 155 579 154 526 c 256
 152 482 196 455 266 455 c 258
 389 455 l 257
 389 530 l 257
 451 530 l 257
 451 455 l 257
 554 455 l 257
 554 310 l 257
 451 310 l 257
 451 206 l 258
 451 136 481 116 533 115 c 256
 584 115 619 123 636 146 c 257
 665 52 l 257
 651 24 602 -9 532 -10 c 256
EndSplineSet
PickledDataWithLists: "(dp1
S'com.fontlab.hintData'
p2
(dp3
S'vhints'
p4
(lp5
(dp6
S'position'
p7
I60
sS'width'
p8
I91
sa(dp9
g7
I103
sg8
I51
sa(dp10
g7
I389
sg8
I62
sasS'hhints'
p11
(lp12
(dp13
g7
I-10
sg8
I125
sa(dp14
g7
I310
sg8
I145
sa(dp15
g7
I599
sg8
I143
sass."
EndChar

StartChar: aogonek
Encoding: 145 261 145
GlifName: aogonek
Width: 530
VWidth: 0
GlyphClass: 2
Flags: W
HStem: -210 47<444.5 540> -10 105<210 279 210 286> 256 71<208.5 260.5 175 283> 422 138<225.5 300>
VStem: 37 78<152.5 198 152.5 210> 350 95<-103 -85> 397 63<139 210 210 210>
LayerCount: 2
Fore
SplineSet
490 -210 m 256
 399 -210 351 -167 350 -103 c 256
 350 -67 365 -23 414 16 c 257
 407 35 l 257
 372 5 325 -10 247 -10 c 256
 105 -10 37 58 37 155 c 256
 37 265 113 327 237 327 c 256
 284 327 354 318 396 289 c 257
 391 383 347 422 253 422 c 256
 168 422 118 395 91 363 c 257
 87 492 l 257
 125 537 188 560 263 560 c 256
 399 560 460 501 460 316 c 258
 460 13 l 257
 476 0 l 257
 459 -12 445 -42 445 -81 c 256
 445 -129 484 -162 532 -163 c 256
 548 -163 565 -162 579 -155 c 257
 592 -190 l 257
 570 -203 532 -210 490 -210 c 256
248 95 m 256
 310 95 365 109 397 139 c 257
 397 210 l 257
 356 241 311 256 255 256 c 256
 162 256 115 223 115 173 c 256
 115 132 172 95 248 95 c 256
EndSplineSet
PickledDataWithLists: "(dp1
S'com.fontlab.hintData'
p2
(dp3
S'vhints'
p4
(lp5
(dp6
S'position'
p7
I37
sS'width'
p8
I78
sa(dp9
g7
I350
sg8
I95
sa(dp10
g7
I397
sg8
I63
sasS'hhints'
p11
(lp12
(dp13
g7
I-210
sg8
I47
sa(dp14
g7
I-10
sg8
I105
sa(dp15
g7
I256
sg8
I71
sa(dp16
g7
I422
sg8
I138
sass."
EndChar

StartChar: approxequal
Encoding: 146 8776 146
GlifName: approxequal
Width: 530
VWidth: 0
GlyphClass: 2
Flags: W
HStem: 194 67 406 67
VStem: 57 417<208 246 246 420>
LayerCount: 2
Fore
SplineSet
267 487 m 256
 341 458 448 480 467 501 c 257
 474 458 l 257
 440 372 328 357 264 386 c 256
 181 424 86 402 64 377 c 257
 57 420 l 257
 84 497 184 519 267 487 c 256
267 275 m 256
 341 246 448 268 467 289 c 257
 474 246 l 257
 440 160 328 145 264 174 c 256
 181 212 86 190 64 165 c 257
 57 208 l 257
 84 285 184 307 267 275 c 256
EndSplineSet
PickledDataWithLists: "(dp1
S'com.fontlab.hintData'
p2
(dp3
S'vhints'
p4
(lp5
(dp6
S'position'
p7
I57
sS'width'
p8
I417
sasS'hhints'
p9
(lp10
(dp11
g7
I194
sg8
I67
sa(dp12
g7
I406
sg8
I67
sass."
EndChar

StartChar: aring
Encoding: 147 229 147
GlifName: aring
Width: 530
VWidth: 0
GlyphClass: 2
Flags: W
HStem: -10 105<210 279 210 286> 256 71<208.5 260.5 175 283> 422 138<225.5 300> 593 57<232 279 232 286> 745 59<231 278.5>
VStem: 37 78<152.5 198 152.5 210> 150 35<695 695> 326 34<695 695> 397 63<139 210 210 210>
LayerCount: 2
Fore
SplineSet
360 695 m 256
 359 624 316 593 256 593 c 256
 202 593 151 624 150 695 c 256
 151 772 193 804 254 804 c 256
 310 804 359 772 360 695 c 256
326 695 m 256
 325 722 303 745 254 745 c 256
 208 745 185 725 185 695 c 256
 185 668 208 650 256 650 c 256
 302 650 327 667 326 695 c 256
248 95 m 256
 310 95 365 109 397 139 c 257
 397 210 l 257
 356 241 311 256 255 256 c 256
 162 256 115 223 115 173 c 256
 115 132 172 95 248 95 c 256
420 0 m 257
 407 35 l 257
 372 5 325 -10 247 -10 c 256
 105 -10 37 58 37 155 c 256
 37 265 113 327 237 327 c 256
 284 327 354 318 396 289 c 257
 391 383 347 422 253 422 c 256
 168 422 118 395 91 363 c 257
 87 492 l 257
 125 537 188 560 263 560 c 256
 399 560 460 501 460 316 c 258
 460 0 l 257
 420 0 l 257
EndSplineSet
PickledDataWithLists: "(dp1
S'com.fontlab.hintData'
p2
(dp3
S'vhints'
p4
(lp5
(dp6
S'position'
p7
I37
sS'width'
p8
I78
sa(dp9
g7
I150
sg8
I35
sa(dp10
g7
I326
sg8
I34
sa(dp11
g7
I397
sg8
I63
sasS'hhints'
p12
(lp13
(dp14
g7
I-10
sg8
I105
sa(dp15
g7
I256
sg8
I71
sa(dp16
g7
I422
sg8
I138
sa(dp17
g7
I593
sg8
I57
sa(dp18
g7
I745
sg8
I59
sass."
EndChar

StartChar: aringacute
Encoding: 148 507 148
GlifName: aringacute
Width: 530
VWidth: 0
GlyphClass: 2
Flags: W
HStem: -10 105<200 269 200 276> 256 71<198.5 250.5 165 273> 422 138<215.5 290> 593 57<222 269 222 276> 745 59<221 268.5> 848 109
VStem: 27 78<152.5 198 152.5 210> 140 35<695 695> 316 34<695 695> 387 63<139 210 210 210>
LayerCount: 2
Fore
SplineSet
119 786 m 257
 107 808 l 257
 142 911 281 974 388 953 c 257
 383 827 l 257
 305 866 173 848 119 786 c 257
350 695 m 256
 349 624 306 593 246 593 c 256
 192 593 141 624 140 695 c 256
 141 772 183 804 244 804 c 256
 300 804 349 772 350 695 c 256
316 695 m 256
 315 722 293 745 244 745 c 256
 198 745 175 725 175 695 c 256
 175 668 198 650 246 650 c 256
 292 650 317 667 316 695 c 256
238 95 m 256
 300 95 355 109 387 139 c 257
 387 210 l 257
 346 241 301 256 245 256 c 256
 152 256 105 223 105 173 c 256
 105 132 162 95 238 95 c 256
410 0 m 257
 397 35 l 257
 362 5 315 -10 237 -10 c 256
 95 -10 27 58 27 155 c 256
 27 265 103 327 227 327 c 256
 274 327 344 318 386 289 c 257
 381 383 337 422 243 422 c 256
 158 422 108 395 81 363 c 257
 77 492 l 257
 115 537 178 560 253 560 c 256
 389 560 450 501 450 316 c 258
 450 0 l 257
 410 0 l 257
EndSplineSet
PickledDataWithLists: "(dp1
S'com.fontlab.hintData'
p2
(dp3
S'vhints'
p4
(lp5
(dp6
S'position'
p7
I27
sS'width'
p8
I78
sa(dp9
g7
I140
sg8
I35
sa(dp10
g7
I316
sg8
I34
sa(dp11
g7
I387
sg8
I63
sasS'hhints'
p12
(lp13
(dp14
g7
I-10
sg8
I105
sa(dp15
g7
I256
sg8
I71
sa(dp16
g7
I422
sg8
I138
sa(dp17
g7
I593
sg8
I57
sa(dp18
g7
I745
sg8
I59
sa(dp19
g7
I848
sg8
I109
sass."
EndChar

StartChar: arrowleft
Encoding: 149 8592 149
GlifName: arrowleft
Width: 730
VWidth: 0
GlyphClass: 2
Flags: W
HStem: 175 241<345.5 712 375 712 375 712>
VStem: 18 694<175 295>
LayerCount: 2
Fore
SplineSet
712 416 m 257
 632 295 l 257
 712 175 l 257
 366 175 l 258
 325 175 261 212 231 247 c 257
 231 78 l 257
 18 295 l 257
 231 513 l 257
 231 344 l 257
 264 379 325 416 375 416 c 258
 712 416 l 257
EndSplineSet
PickledDataWithLists: "(dp1
S'com.fontlab.hintData'
p2
(dp3
S'vhints'
p4
(lp5
(dp6
S'position'
p7
I18
sS'width'
p8
I694
sasS'hhints'
p9
(lp10
(dp11
g7
I175
sg8
I241
sass."
EndChar

StartChar: arrowright
Encoding: 150 8594 150
GlifName: arrowright
Width: 730
VWidth: 0
GlyphClass: 2
Flags: W
HStem: 175 241<18 355 355 364 18 355>
VStem: 18 694<175 295 295 416>
LayerCount: 2
Fore
SplineSet
18 416 m 257
 355 416 l 258
 405 416 466 379 499 344 c 257
 499 513 l 257
 712 295 l 257
 499 78 l 257
 499 247 l 257
 469 212 405 175 364 175 c 258
 18 175 l 257
 98 295 l 257
 18 416 l 257
EndSplineSet
PickledDataWithLists: "(dp1
S'com.fontlab.hintData'
p2
(dp3
S'vhints'
p4
(lp5
(dp6
S'position'
p7
I18
sS'width'
p8
I694
sasS'hhints'
p9
(lp10
(dp11
g7
I175
sg8
I241
sass."
EndChar

StartChar: asciicircum
Encoding: 151 94 151
GlifName: asciicircum
Width: 530
VWidth: 0
GlyphClass: 2
Flags: W
HStem: 234 176
VStem: 80 364<235 269 235 269>
LayerCount: 2
Fore
SplineSet
444 235 m 257
 376 230 282 249 262 289 c 257
 242 249 148 230 80 235 c 257
 80 269 l 257
 144 280 220 351 252 410 c 257
 272 410 l 257
 304 351 380 280 444 269 c 257
 444 235 l 257
EndSplineSet
PickledDataWithLists: "(dp1
S'com.fontlab.hintData'
p2
(dp3
S'vhints'
p4
(lp5
(dp6
S'position'
p7
I80
sS'width'
p8
I364
sasS'hhints'
p9
(lp10
(dp11
g7
I234
sg8
I176
sass."
EndChar

StartChar: asciitilde
Encoding: 152 126 152
GlifName: asciitilde
Width: 530
VWidth: 0
GlyphClass: 2
Flags: W
HStem: 281 82
VStem: 77 357<269 367>
LayerCount: 2
Fore
SplineSet
257 376 m 256
 334 356 408 359 427 380 c 257
 434 367 l 257
 400 281 321 242 254 265 c 256
 171 293 106 281 84 256 c 257
 77 269 l 257
 104 346 174 398 257 376 c 256
EndSplineSet
PickledDataWithLists: "(dp1
S'com.fontlab.hintData'
p2
(dp3
S'vhints'
p4
(lp5
(dp6
S'position'
p7
I77
sS'width'
p8
I357
sasS'hhints'
p9
(lp10
(dp11
g7
I281
sg8
I82
sass."
EndChar

StartChar: asterisk
Encoding: 153 42 153
GlifName: asterisk
Width: 430
VWidth: 0
GlyphClass: 2
Flags: W
HStem: 610 142<158 191 70 264 238 238 238 264 158 360>
VStem: 70 290<610 610>
LayerCount: 2
Fore
SplineSet
254 475 m 257
 215 586 l 257
 173 475 l 257
 93 534 l 257
 191 610 l 257
 70 610 l 257
 99 703 l 257
 197 639 l 257
 158 752 l 257
 264 752 l 257
 234 639 l 257
 331 703 l 257
 360 610 l 257
 238 610 l 257
 337 534 l 257
 254 475 l 257
EndSplineSet
PickledDataWithLists: "(dp1
S'com.fontlab.hintData'
p2
(dp3
S'vhints'
p4
(lp5
(dp6
S'position'
p7
I70
sS'width'
p8
I290
sasS'hhints'
p9
(lp10
(dp11
g7
I610
sg8
I142
sass."
EndChar

StartChar: at
Encoding: 154 64 154
GlifName: at
Width: 830
VWidth: 0
GlyphClass: 2
Flags: W
HStem: -200 113<290 439.5 290 455.5> 11 101 13 83<573.5 627> 364 136<358 429.5> 598 122<340.5 543.5>
VStem: 30 62<127.5 337.5 127.5 370> 184 57 733 62<269.5 412>
LayerCount: 2
Fore
SplineSet
412 -200 m 256
 137 -200 30 -21 30 224 c 256
 30 516 221 720 444 720 c 256
 668 720 795 607 795 364 c 256
 795 104 665 13 589 13 c 256
 537 13 503 29 490 83 c 257
 458 37 398 11 325 11 c 256
 244 11 184 74 184 192 c 256
 184 373 293 500 423 500 c 256
 501 500 573 470 607 433 c 257
 545 150 l 258
 538 117 554 96 593 96 c 256
 677 96 733 211 733 328 c 256
 733 496 651 598 436 598 c 256
 245 598 92 451 92 224 c 256
 92 31 177 -87 403 -87 c 256
 476 -87 544 -70 602 -38 c 257
 632 -103 l 257
 581 -162 499 -200 412 -200 c 256
348 112 m 256
 404 111 459 125 489 158 c 257
 526 333 l 257
 498 351 452 364 407 364 c 256
 309 364 245 300 241 212 c 256
 239 156 285 113 348 112 c 256
EndSplineSet
PickledDataWithLists: "(dp1
S'com.fontlab.hintData'
p2
(dp3
S'vhints'
p4
(lp5
(dp6
S'position'
p7
I30
sS'width'
p8
I62
sa(dp9
g7
I184
sg8
I57
sa(dp10
g7
I733
sg8
I62
sasS'hhints'
p11
(lp12
(dp13
g7
I-200
sg8
I113
sa(dp14
g7
I11
sg8
I101
sa(dp15
g7
I13
sg8
I83
sa(dp16
g7
I364
sg8
I136
sa(dp17
g7
I598
sg8
I122
sass."
EndChar

StartChar: atilde
Encoding: 155 227 155
GlifName: atilde
Width: 530
VWidth: 0
GlyphClass: 2
Flags: W
HStem: -10 105<210 279 210 286> 256 71<208.5 260.5 175 283> 422 138<225.5 300> 691 82
VStem: 37 78<152.5 198 152.5 210> 397 63<139 210 210 210>
LayerCount: 2
Fore
SplineSet
257 786 m 256
 334 766 408 769 427 790 c 257
 434 777 l 257
 400 691 321 652 254 675 c 256
 171 703 106 691 84 666 c 257
 77 679 l 257
 104 756 174 808 257 786 c 256
248 95 m 256
 310 95 365 109 397 139 c 257
 397 210 l 257
 356 241 311 256 255 256 c 256
 162 256 115 223 115 173 c 256
 115 132 172 95 248 95 c 256
420 0 m 257
 407 35 l 257
 372 5 325 -10 247 -10 c 256
 105 -10 37 58 37 155 c 256
 37 265 113 327 237 327 c 256
 284 327 354 318 396 289 c 257
 391 383 347 422 253 422 c 256
 168 422 118 395 91 363 c 257
 87 492 l 257
 125 537 188 560 263 560 c 256
 399 560 460 501 460 316 c 258
 460 0 l 257
 420 0 l 257
EndSplineSet
PickledDataWithLists: "(dp1
S'com.fontlab.hintData'
p2
(dp3
S'vhints'
p4
(lp5
(dp6
S'position'
p7
I37
sS'width'
p8
I78
sa(dp9
g7
I397
sg8
I63
sasS'hhints'
p10
(lp11
(dp12
g7
I-10
sg8
I105
sa(dp13
g7
I256
sg8
I71
sa(dp14
g7
I422
sg8
I138
sa(dp15
g7
I691
sg8
I82
sass."
EndChar

StartChar: b
Encoding: 156 98 156
GlifName: b
Width: 593
VWidth: 0
GlyphClass: 2
Flags: HW
HStem: -10 118<309.5 393 300 413> 398 162
VStem: 118 65<167 266 461 780> 498 59<266 305>
LayerCount: 2
Fore
SplineSet
172 555 m 261
 51 555 130 555 9 555 c 261
 9 730 l 261
 172 730 l 261
 172 555 l 261
172 0 m 257
 51 0 130 0 9 0 c 257
 9 144 l 261
 172 144 l 261
 172 0 l 257
346 -10 m 256
 273 -10 212 31 180 86 c 257
 173 0 l 257
 118 0 l 257
 118 730 l 257
 183 730 l 257
 183 461 l 257
 217 535 287 559 351 560 c 256
 474 561 557 481 557 266 c 256
 557 91 480 -10 346 -10 c 256
340 108 m 256
 446 108 499 169 498 266 c 256
 498 344 447 398 344 398 c 256
 227 398 184 343 183 266 c 258
 183 167 l 257
 216 122 260 108 340 108 c 256
EndSplineSet
PickledDataWithLists: "(dp1
S'com.fontlab.hintData'
p2
(dp3
S'vhints'
p4
(lp5
(dp6
S'position'
p7
I55
sS'width'
p8
I65
sa(dp9
g7
I435
sg8
I59
sasS'hhints'
p10
(lp11
(dp12
g7
I-10
sg8
I118
sa(dp13
g7
I398
sg8
I162
sass."
EndChar

StartChar: backslash
Encoding: 157 92 157
GlifName: backslash
Width: 430
VWidth: 0
GlyphClass: 2
Flags: W
HStem: -200 1000<35 395 35 320>
VStem: 35 360
LayerCount: 2
Fore
SplineSet
110 800 m 257
 395 -200 l 257
 320 -200 l 257
 35 800 l 257
 110 800 l 257
EndSplineSet
PickledDataWithLists: "(dp1
S'com.fontlab.hintData'
p2
(dp3
S'vhints'
p4
(lp5
(dp6
S'position'
p7
I35
sS'width'
p8
I360
sasS'hhints'
p9
(lp10
(dp11
g7
I-200
sg8
I1000
sass."
EndChar

StartChar: bar
Encoding: 158 124 158
GlifName: bar
Width: 330
VWidth: 0
GlyphClass: 2
Flags: W
HStem: -200 1000<129 201 129 201>
VStem: 129 72<-200 800 -200 800>
LayerCount: 2
Fore
SplineSet
129 800 m 257
 201 800 l 257
 201 -200 l 257
 129 -200 l 257
 129 800 l 257
EndSplineSet
PickledDataWithLists: "(dp1
S'com.fontlab.hintData'
p2
(dp3
S'vhints'
p4
(lp5
(dp6
S'position'
p7
I129
sS'width'
p8
I72
sasS'hhints'
p9
(lp10
(dp11
g7
I-200
sg8
I1000
sass."
EndChar

StartChar: boum
Encoding: 159 10036 159
GlifName: boum
Width: 630
VWidth: 0
GlyphClass: 2
Flags: W
HStem: -10 594<315 315>
VStem: 18 594<287 287>
LayerCount: 2
Fore
SplineSet
345 365 m 257
 315 415 l 257
 283 365 l 257
 227 377 l 257
 237 320 l 257
 188 287 l 257
 237 259 l 257
 227 199 l 257
 283 211 l 257
 315 159 l 257
 345 211 l 257
 405 199 l 257
 391 259 l 257
 445 287 l 257
 391 320 l 257
 405 377 l 257
 345 365 l 257
261 423 m 257
 315 584 l 257
 370 423 l 257
 530 499 l 257
 454 343 l 257
 612 287 l 257
 454 232 l 257
 530 75 l 257
 370 151 l 257
 315 -10 l 257
 261 151 l 257
 102 75 l 257
 178 232 l 257
 18 287 l 257
 178 343 l 257
 102 499 l 257
 261 423 l 257
EndSplineSet
PickledDataWithLists: "(dp1
S'com.fontlab.hintData'
p2
(dp3
S'vhints'
p4
(lp5
(dp6
S'position'
p7
I18
sS'width'
p8
I594
sasS'hhints'
p9
(lp10
(dp11
g7
I-10
sg8
I594
sass."
EndChar

StartChar: braceleft
Encoding: 160 123 160
GlifName: braceleft
Width: 330
VWidth: 0
GlyphClass: 2
Flags: W
HStem: -210 1020<264 271>
VStem: 10 135
LayerCount: 2
Fore
SplineSet
89 143 m 256
 89 169 68 204 10 194 c 257
 10 366 l 257
 71 355 89 385 89 407 c 256
 77 671 156 768 271 810 c 257
 252 622 l 257
 176 603 130 520 149 367 c 256
 154 326 134 299 74 278 c 257
 136 264 153 223 148 183 c 256
 134 70 167 7 237 -9 c 257
 264 -210 l 257
 152 -171 77 -75 89 143 c 256
EndSplineSet
PickledDataWithLists: "(dp1
S'com.fontlab.hintData'
p2
(dp3
S'vhints'
p4
(lp5
(dp6
S'position'
p7
I10
sS'width'
p8
I135
sasS'hhints'
p9
(lp10
(dp11
g7
I-210
sg8
I1020
sass."
EndChar

StartChar: braceright
Encoding: 161 125 161
GlifName: braceright
Width: 330
VWidth: 0
GlyphClass: 2
Flags: W
HStem: -210 1020<110 117>
VStem: 236 135
LayerCount: 2
Fore
SplineSet
292 143 m 256
 304 -75 229 -171 117 -210 c 257
 144 -9 l 257
 214 7 247 70 233 183 c 256
 228 223 245 264 307 278 c 257
 247 299 227 326 232 367 c 256
 251 520 205 603 129 622 c 257
 110 810 l 257
 225 768 304 671 292 407 c 256
 292 385 310 355 371 366 c 257
 371 194 l 257
 313 204 292 169 292 143 c 256
EndSplineSet
PickledDataWithLists: "(dp1
S'com.fontlab.hintData'
p2
(dp3
S'vhints'
p4
(lp5
(dp6
S'position'
p7
I236
sS'width'
p8
I135
sasS'hhints'
p9
(lp10
(dp11
g7
I-210
sg8
I1020
sass."
EndChar

StartChar: bracketleft
Encoding: 162 91 162
GlifName: bracketleft
Width: 330
VWidth: 0
GlyphClass: 2
Flags: W
HStem: -200 174<60 258 130 258 130 258> 626 174<130 258 130 130>
VStem: 60 70<-26 626 -26 800>
LayerCount: 2
Fore
SplineSet
60 -200 m 257
 60 800 l 257
 258 800 l 257
 258 626 l 257
 130 626 l 257
 130 -26 l 257
 258 -26 l 257
 258 -200 l 257
 60 -200 l 257
EndSplineSet
PickledDataWithLists: "(dp1
S'com.fontlab.hintData'
p2
(dp3
S'vhints'
p4
(lp5
(dp6
S'position'
p7
I60
sS'width'
p8
I70
sasS'hhints'
p9
(lp10
(dp11
g7
I-200
sg8
I174
sa(dp12
g7
I626
sg8
I174
sass."
EndChar

StartChar: bracketright
Encoding: 163 93 163
GlifName: bracketright
Width: 330
VWidth: 0
GlyphClass: 2
Flags: W
HStem: -200 174<122 250 122 320 122 250> 626 174<122 250 122 320>
VStem: 250 70<-26 626 626 626>
LayerCount: 2
Fore
SplineSet
320 -200 m 257
 122 -200 l 257
 122 -26 l 257
 250 -26 l 257
 250 626 l 257
 122 626 l 257
 122 800 l 257
 320 800 l 257
 320 -200 l 257
EndSplineSet
PickledDataWithLists: "(dp1
S'com.fontlab.hintData'
p2
(dp3
S'vhints'
p4
(lp5
(dp6
S'position'
p7
I250
sS'width'
p8
I70
sasS'hhints'
p9
(lp10
(dp11
g7
I-200
sg8
I174
sa(dp12
g7
I626
sg8
I174
sass."
EndChar

StartChar: breve
Encoding: 164 728 164
GlifName: breve
Width: 530
VWidth: 0
GlyphClass: 2
Flags: W
HStem: 619 87<229.5 294.5 229.5 311>
VStem: 95 51<737 800> 385 50<737 800>
LayerCount: 2
Fore
SplineSet
260 619 m 256
 164 619 95 674 95 800 c 257
 146 800 l 257
 145 729 199 706 260 706 c 256
 329 706 386 729 385 800 c 257
 435 800 l 257
 435 674 362 619 260 619 c 256
EndSplineSet
PickledDataWithLists: "(dp1
S'com.fontlab.hintData'
p2
(dp3
S'vhints'
p4
(lp5
(dp6
S'position'
p7
I95
sS'width'
p8
I51
sa(dp9
g7
I385
sg8
I50
sasS'hhints'
p10
(lp11
(dp12
g7
I619
sg8
I87
sass."
EndChar

StartChar: breve.case
Encoding: 165 -1 165
GlifName: breve.case
Width: 730
VWidth: 0
GlyphClass: 2
Flags: W
HStem: 779 87<329.5 394.5 329.5 411>
VStem: 195 51<897 960> 485 50<897 960>
LayerCount: 2
Fore
SplineSet
360 779 m 256
 264 779 195 834 195 960 c 257
 246 960 l 257
 245 889 299 866 360 866 c 256
 429 866 486 889 485 960 c 257
 535 960 l 257
 535 834 462 779 360 779 c 256
EndSplineSet
PickledDataWithLists: "(dp1
S'com.fontlab.hintData'
p2
(dp3
S'vhints'
p4
(lp5
(dp6
S'position'
p7
I195
sS'width'
p8
I51
sa(dp9
g7
I485
sg8
I50
sasS'hhints'
p10
(lp11
(dp12
g7
I779
sg8
I87
sass."
EndChar

StartChar: brokenbar
Encoding: 166 166 166
GlifName: brokenbar
Width: 330
VWidth: 0
GlyphClass: 2
Flags: W
HStem: -200 1000<129 201 129 201>
VStem: 129 72<-200 208 208 208 383 800>
LayerCount: 2
Fore
SplineSet
129 800 m 257
 201 800 l 257
 201 383 l 257
 129 363 l 257
 129 800 l 257
129 208 m 257
 201 228 l 257
 201 -200 l 257
 129 -200 l 257
 129 208 l 257
EndSplineSet
PickledDataWithLists: "(dp1
S'com.fontlab.hintData'
p2
(dp3
S'vhints'
p4
(lp5
(dp6
S'position'
p7
I129
sS'width'
p8
I72
sasS'hhints'
p9
(lp10
(dp11
g7
I-200
sg8
I1000
sass."
EndChar

StartChar: bullet
Encoding: 167 8226 167
GlifName: bullet
Width: 330
VWidth: 0
GlyphClass: 2
Flags: W
HStem: 177 201<131.5 200>
VStem: 57 216<246 308.5>
LayerCount: 2
Fore
SplineSet
273 276 m 256
 273 216 232 177 168 177 c 256
 95 177 57 216 57 276 c 256
 57 341 94 378 168 378 c 256
 233 378 273 342 273 276 c 256
EndSplineSet
PickledDataWithLists: "(dp1
S'com.fontlab.hintData'
p2
(dp3
S'vhints'
p4
(lp5
(dp6
S'position'
p7
I57
sS'width'
p8
I216
sasS'hhints'
p9
(lp10
(dp11
g7
I177
sg8
I201
sass."
EndChar

StartChar: c
Encoding: 168 99 168
GlifName: c
Width: 530
VWidth: 0
GlyphClass: 2
Flags: HW
HStem: -10 118<212.5 311.5 212.5 319> 402 158<221.5 311.5>
VStem: 50 59
LayerCount: 2
Fore
SplineSet
412 408 m 1
 412 559 l 261
 470 559 l 261
 470 340 l 257
 450.666992188 340 431.333007812 340 412 340 c 257
 390 376 353 402 270 402 c 256
 173 402 110 352 109 266 c 256
 108 181 155 108 270 108 c 256
 353 108 401 130 428 183 c 257
 480 112 l 257
 446 34 373 -10 265 -10 c 256
 138 -10 50 79 50 271 c 256
 50 479 145 560 265 560 c 256
 360 560 416 514 431 419 c 1
 412 408 l 1
EndSplineSet
PickledDataWithLists: "(dp1
S'com.fontlab.hintData'
p2
(dp3
S'vhints'
p4
(lp5
(dp6
S'position'
p7
I50
sS'width'
p8
I59
sasS'hhints'
p9
(lp10
(dp11
g7
I-10
sg8
I118
sa(dp12
g7
I402
sg8
I158
sass."
EndChar

StartChar: cacute
Encoding: 169 263 169
GlifName: cacute
Width: 530
VWidth: 0
GlyphClass: 2
Flags: W
HStem: -10 118<202.5 301.5 202.5 309> 402 158<211.5 301.5> 675 109
VStem: 40 59
LayerCount: 2
Fore
SplineSet
126 613 m 257
 114 635 l 257
 149 738 288 801 395 780 c 257
 390 654 l 257
 312 693 180 675 126 613 c 257
255 -10 m 256
 128 -10 40 79 40 271 c 256
 40 479 135 560 255 560 c 256
 366 560 429 510 460 425 c 257
 414 338 l 257
 385 375 343 402 260 402 c 256
 163 402 100 352 99 266 c 256
 98 181 145 108 260 108 c 256
 343 108 391 130 418 183 c 257
 470 112 l 257
 436 34 363 -10 255 -10 c 256
EndSplineSet
PickledDataWithLists: "(dp1
S'com.fontlab.hintData'
p2
(dp3
S'vhints'
p4
(lp5
(dp6
S'position'
p7
I40
sS'width'
p8
I59
sasS'hhints'
p9
(lp10
(dp11
g7
I-10
sg8
I118
sa(dp12
g7
I402
sg8
I158
sa(dp13
g7
I675
sg8
I109
sass."
EndChar

StartChar: caron
Encoding: 170 711 170
GlifName: caron
Width: 530
VWidth: 0
GlyphClass: 2
Flags: W
HStem: 625 176
VStem: 90 364<766 800 766 800>
LayerCount: 2
Fore
SplineSet
454 800 m 257
 454 766 l 257
 386 754 314 685 282 625 c 257
 262 625 l 257
 230 685 158 754 90 766 c 257
 90 800 l 257
 162 805 252 786 272 746 c 257
 292 786 382 805 454 800 c 257
EndSplineSet
PickledDataWithLists: "(dp1
S'com.fontlab.hintData'
p2
(dp3
S'vhints'
p4
(lp5
(dp6
S'position'
p7
I90
sS'width'
p8
I364
sasS'hhints'
p9
(lp10
(dp11
g7
I625
sg8
I176
sass."
EndChar

StartChar: caron.case
Encoding: 171 -1 171
GlifName: caron.case
Width: 730
VWidth: 0
GlyphClass: 2
Flags: W
HStem: 775 176
VStem: 183 364<916 950 916 950>
LayerCount: 2
Fore
SplineSet
547 950 m 257
 547 916 l 257
 479 904 407 835 375 775 c 257
 355 775 l 257
 323 835 251 904 183 916 c 257
 183 950 l 257
 255 955 345 936 365 896 c 257
 385 936 475 955 547 950 c 257
EndSplineSet
PickledDataWithLists: "(dp1
S'com.fontlab.hintData'
p2
(dp3
S'vhints'
p4
(lp5
(dp6
S'position'
p7
I183
sS'width'
p8
I364
sasS'hhints'
p9
(lp10
(dp11
g7
I775
sg8
I176
sass."
EndChar

StartChar: ccaron
Encoding: 172 269 172
GlifName: ccaron
Width: 530
VWidth: 0
GlyphClass: 2
Flags: W
HStem: -10 118<202.5 301.5 202.5 309> 402 158<211.5 301.5>
VStem: 40 59 80 364<766 800 766 800>
LayerCount: 2
Fore
SplineSet
444 800 m 257
 444 766 l 257
 376 754 304 685 272 625 c 257
 252 625 l 257
 220 685 148 754 80 766 c 257
 80 800 l 257
 152 805 242 786 262 746 c 257
 282 786 372 805 444 800 c 257
255 -10 m 256
 128 -10 40 79 40 271 c 256
 40 479 135 560 255 560 c 256
 366 560 429 510 460 425 c 257
 414 338 l 257
 385 375 343 402 260 402 c 256
 163 402 100 352 99 266 c 256
 98 181 145 108 260 108 c 256
 343 108 391 130 418 183 c 257
 470 112 l 257
 436 34 363 -10 255 -10 c 256
EndSplineSet
PickledDataWithLists: "(dp1
S'com.fontlab.hintData'
p2
(dp3
S'vhints'
p4
(lp5
(dp6
S'position'
p7
I40
sS'width'
p8
I59
sa(dp9
g7
I80
sg8
I364
sasS'hhints'
p10
(lp11
(dp12
g7
I-10
sg8
I118
sa(dp13
g7
I402
sg8
I158
sass."
EndChar

StartChar: ccedilla
Encoding: 173 231 173
GlifName: ccedilla
Width: 530
VWidth: 0
GlyphClass: 2
Flags: W
HStem: -210 76<231 286 231 291.5> -90 47<299 316> -10 118<261 301.5 202.5 312> 402 158<211.5 301.5>
VStem: 40 59 197 62<-67.5 -22.5> 334 46<-117.5 -104>
LayerCount: 2
Fore
SplineSet
248 -210 m 256
 197 -210 139 -192 131 -157 c 257
 166 -101 l 257
 176 -118 209 -134 253 -134 c 256
 319 -134 334 -126 334 -109 c 256
 334 -99 324 -90 308 -90 c 256
 290 -90 266 -94 250 -94 c 256
 221 -94 197 -80 197 -55 c 256
 197 -36 201 -20 208 -6 c 257
 107 15 40 104 40 271 c 256
 40 479 135 560 255 560 c 256
 366 560 429 510 460 425 c 257
 414 338 l 257
 385 375 343 402 260 402 c 256
 163 402 100 352 99 266 c 256
 98 181 145 108 260 108 c 256
 343 108 391 130 418 183 c 257
 470 112 l 257
 436 34 363 -10 261 -10 c 257
 260 -15 259 -20 259 -25 c 256
 259 -36 267 -43 320 -43 c 256
 353 -43 380 -63 380 -112 c 256
 380 -177 335 -210 248 -210 c 256
EndSplineSet
PickledDataWithLists: "(dp1
S'com.fontlab.hintData'
p2
(dp3
S'vhints'
p4
(lp5
(dp6
S'position'
p7
I40
sS'width'
p8
I59
sa(dp9
g7
I197
sg8
I62
sa(dp10
g7
I334
sg8
I46
sasS'hhints'
p11
(lp12
(dp13
g7
I-210
sg8
I76
sa(dp14
g7
I-90
sg8
I47
sa(dp15
g7
I-10
sg8
I118
sa(dp16
g7
I402
sg8
I158
sass."
EndChar

StartChar: ccircumflex
Encoding: 174 265 174
GlifName: ccircumflex
Width: 530
VWidth: 0
GlyphClass: 2
Flags: W
HStem: -10 118<202.5 301.5 202.5 309> 402 158<211.5 301.5>
VStem: 40 59 80 364<625 659 625 659>
LayerCount: 2
Fore
SplineSet
444 625 m 257
 376 620 282 639 262 679 c 257
 242 639 148 620 80 625 c 257
 80 659 l 257
 144 670 220 741 252 800 c 257
 272 800 l 257
 304 741 380 670 444 659 c 257
 444 625 l 257
255 -10 m 256
 128 -10 40 79 40 271 c 256
 40 479 135 560 255 560 c 256
 366 560 429 510 460 425 c 257
 414 338 l 257
 385 375 343 402 260 402 c 256
 163 402 100 352 99 266 c 256
 98 181 145 108 260 108 c 256
 343 108 391 130 418 183 c 257
 470 112 l 257
 436 34 363 -10 255 -10 c 256
EndSplineSet
PickledDataWithLists: "(dp1
S'com.fontlab.hintData'
p2
(dp3
S'vhints'
p4
(lp5
(dp6
S'position'
p7
I40
sS'width'
p8
I59
sa(dp9
g7
I80
sg8
I364
sasS'hhints'
p10
(lp11
(dp12
g7
I-10
sg8
I118
sa(dp13
g7
I402
sg8
I158
sass."
EndChar

StartChar: cdotaccent
Encoding: 175 267 175
GlifName: cdotaccent
Width: 530
VWidth: 0
GlyphClass: 2
Flags: W
HStem: -10 118<202.5 301.5 202.5 309> 402 158<211.5 301.5> 659 145<229 283.5>
VStem: 40 59 169 172<706 756>
LayerCount: 2
Fore
SplineSet
341 730 m 256
 341 682 309 659 258 659 c 256
 200 659 169 682 169 730 c 256
 169 782 199 804 258 804 c 256
 310 804 341 783 341 730 c 256
255 -10 m 256
 128 -10 40 79 40 271 c 256
 40 479 135 560 255 560 c 256
 366 560 429 510 460 425 c 257
 414 338 l 257
 385 375 343 402 260 402 c 256
 163 402 100 352 99 266 c 256
 98 181 145 108 260 108 c 256
 343 108 391 130 418 183 c 257
 470 112 l 257
 436 34 363 -10 255 -10 c 256
EndSplineSet
PickledDataWithLists: "(dp1
S'com.fontlab.hintData'
p2
(dp3
S'vhints'
p4
(lp5
(dp6
S'position'
p7
I40
sS'width'
p8
I59
sa(dp9
g7
I169
sg8
I172
sasS'hhints'
p10
(lp11
(dp12
g7
I-10
sg8
I118
sa(dp13
g7
I402
sg8
I158
sa(dp14
g7
I659
sg8
I145
sass."
EndChar

StartChar: cedilla
Encoding: 176 184 176
GlifName: cedilla
Width: 530
VWidth: 0
GlyphClass: 2
Flags: W
HStem: -210 76<241 296 241 301.5> -90 47<309 326>
VStem: 207 62<-67.5 -20.5> 344 46<-117.5 -104>
LayerCount: 2
Fore
SplineSet
258 -210 m 256
 207 -210 149 -192 141 -157 c 257
 176 -101 l 257
 186 -118 219 -134 263 -134 c 256
 329 -134 344 -126 344 -109 c 256
 344 -99 334 -90 318 -90 c 256
 300 -90 276 -94 260 -94 c 256
 231 -94 207 -80 207 -55 c 256
 207 -29 214 -8 228 10 c 257
 276 0 l 257
 271 -7 269 -16 269 -25 c 256
 269 -36 277 -43 330 -43 c 256
 363 -43 390 -63 390 -112 c 256
 390 -177 345 -210 258 -210 c 256
EndSplineSet
PickledDataWithLists: "(dp1
S'com.fontlab.hintData'
p2
(dp3
S'vhints'
p4
(lp5
(dp6
S'position'
p7
I207
sS'width'
p8
I62
sa(dp9
g7
I344
sg8
I46
sasS'hhints'
p10
(lp11
(dp12
g7
I-210
sg8
I76
sa(dp13
g7
I-90
sg8
I47
sass."
EndChar

StartChar: cent
Encoding: 177 162 177
GlifName: cent
Width: 530
VWidth: 0
GlyphClass: 2
Flags: W
HStem: -10 118<249 272 249 272> 402 158<254 254>
VStem: 40 59
LayerCount: 2
Fore
SplineSet
99 266 m 256
 98 198 128 138 198 117 c 257
 254 402 l 257
 160 400 100 350 99 266 c 256
255 -10 m 256
 253 -10 251 -10 249 -10 c 258
 234 -85 l 257
 159 -85 l 257
 176 4 l 257
 93 35 40 122 40 271 c 256
 40 479 135 560 255 560 c 256
 265 560 275 560 284 559 c 257
 299 635 l 257
 374 635 l 257
 356 542 l 257
 407 520 440 480 460 425 c 257
 414 338 l 257
 394 363 368 384 327 394 c 257
 272 108 l 257
 347 110 392 133 418 183 c 257
 470 112 l 257
 436 34 363 -10 255 -10 c 256
EndSplineSet
PickledDataWithLists: "(dp1
S'com.fontlab.hintData'
p2
(dp3
S'vhints'
p4
(lp5
(dp6
S'position'
p7
I40
sS'width'
p8
I59
sasS'hhints'
p9
(lp10
(dp11
g7
I-10
sg8
I118
sa(dp12
g7
I402
sg8
I158
sass."
EndChar

StartChar: circumflex
Encoding: 178 710 178
GlifName: circumflex
Width: 530
VWidth: 0
GlyphClass: 2
Flags: W
HStem: 624 176
VStem: 90 364<625 659 625 659>
LayerCount: 2
Fore
SplineSet
454 625 m 257
 386 620 292 639 272 679 c 257
 252 639 158 620 90 625 c 257
 90 659 l 257
 154 670 230 741 262 800 c 257
 282 800 l 257
 314 741 390 670 454 659 c 257
 454 625 l 257
EndSplineSet
PickledDataWithLists: "(dp1
S'com.fontlab.hintData'
p2
(dp3
S'vhints'
p4
(lp5
(dp6
S'position'
p7
I90
sS'width'
p8
I364
sasS'hhints'
p9
(lp10
(dp11
g7
I624
sg8
I176
sass."
EndChar

StartChar: circumflex.case
Encoding: 179 -1 179
GlifName: circumflex.case
Width: 730
VWidth: 0
GlyphClass: 2
Flags: W
HStem: 784 176
VStem: 183 364<785 819 785 819>
LayerCount: 2
Fore
SplineSet
547 785 m 257
 479 780 385 799 365 839 c 257
 345 799 251 780 183 785 c 257
 183 819 l 257
 247 830 323 901 355 960 c 257
 375 960 l 257
 407 901 483 830 547 819 c 257
 547 785 l 257
EndSplineSet
PickledDataWithLists: "(dp1
S'com.fontlab.hintData'
p2
(dp3
S'vhints'
p4
(lp5
(dp6
S'position'
p7
I183
sS'width'
p8
I364
sasS'hhints'
p9
(lp10
(dp11
g7
I784
sg8
I176
sass."
EndChar

StartChar: colon
Encoding: 180 58 180
GlifName: colon
Width: 280
VWidth: 0
GlyphClass: 2
Flags: W
HStem: 15 145<114 168.5> 315 145<114 168.5>
VStem: 54 172<62 112 362 412>
LayerCount: 2
Fore
SplineSet
226 386 m 256
 226 338 194 315 143 315 c 256
 85 315 54 338 54 386 c 256
 54 438 84 460 143 460 c 256
 195 460 226 439 226 386 c 256
226 86 m 256
 226 38 194 15 143 15 c 256
 85 15 54 38 54 86 c 256
 54 138 84 160 143 160 c 256
 195 160 226 139 226 86 c 256
EndSplineSet
PickledDataWithLists: "(dp1
S'com.fontlab.hintData'
p2
(dp3
S'vhints'
p4
(lp5
(dp6
S'position'
p7
I54
sS'width'
p8
I172
sasS'hhints'
p9
(lp10
(dp11
g7
I15
sg8
I145
sa(dp12
g7
I315
sg8
I145
sass."
EndChar

StartChar: comma
Encoding: 181 44 181
GlifName: comma
Width: 280
VWidth: 0
GlyphClass: 2
Flags: W
HStem: -172 297<64 221>
VStem: 113 111
LayerCount: 2
Fore
SplineSet
64 -172 m 257
 44 -158 l 257
 110 -104 132 41 95 125 c 257
 221 125 l 257
 240 8 170 -140 64 -172 c 257
EndSplineSet
PickledDataWithLists: "(dp1
S'com.fontlab.hintData'
p2
(dp3
S'vhints'
p4
(lp5
(dp6
S'position'
p7
I113
sS'width'
p8
I111
sasS'hhints'
p9
(lp10
(dp11
g7
I-172
sg8
I297
sass."
EndChar

StartChar: commaaccent
Encoding: 182 63171 182
GlifName: commaaccent
Width: 530
VWidth: 0
GlyphClass: 2
Flags: W
HStem: -210 154<164 321>
VStem: 144 178
LayerCount: 2
Fore
SplineSet
164 -210 m 257
 144 -196 l 257
 198 -152 217 -106 195 -56 c 257
 321 -56 l 257
 331 -119 266 -179 164 -210 c 257
EndSplineSet
PickledDataWithLists: "(dp1
S'com.fontlab.hintData'
p2
(dp3
S'vhints'
p4
(lp5
(dp6
S'position'
p7
I144
sS'width'
p8
I178
sasS'hhints'
p9
(lp10
(dp11
g7
I-210
sg8
I154
sass."
EndChar

StartChar: copyright
Encoding: 183 169 183
GlifName: copyright
Width: 330
VWidth: 0
GlyphClass: 2
Flags: W
HStem: 417 44<131.5 197 131.5 207.5> 484 34<143.5 178.5 143.5 182> 618 47<144 176.5> 692 44<130 195.5>
VStem: 18 28<576 576> 86 19<552.5 585 552.5 606.5> 284 28<577 577>
LayerCount: 2
Fore
SplineSet
18 576 m 256
 19 686 77 736 162 736 c 256
 240 736 311 687 312 577 c 256
 311 467 250 417 165 417 c 256
 87 417 19 466 18 576 c 256
162 692 m 256
 98 692 46 644 46 576 c 256
 49 495 98 461 165 461 c 256
 229 461 281 483 284 577 c 256
 284 643 229 692 162 692 c 256
221 550 m 257
 236 539 l 257
 228 503 203 484 161 484 c 256
 118 484 86 510 86 572 c 256
 86 641 120 665 163 665 c 256
 199 665 224 653 234 615 c 257
 217 600 l 257
 208 611 190 618 163 618 c 256
 125 618 105 601 105 569 c 256
 105 536 123 518 164 518 c 256
 193 518 215 530 221 550 c 257
EndSplineSet
PickledDataWithLists: "(dp1
S'com.fontlab.hintData'
p2
(dp3
S'vhints'
p4
(lp5
(dp6
S'position'
p7
I18
sS'width'
p8
I28
sa(dp9
g7
I86
sg8
I19
sa(dp10
g7
I284
sg8
I28
sasS'hhints'
p11
(lp12
(dp13
g7
I417
sg8
I44
sa(dp14
g7
I484
sg8
I34
sa(dp15
g7
I618
sg8
I47
sa(dp16
g7
I692
sg8
I44
sass."
EndChar

StartChar: currency
Encoding: 184 164 184
GlifName: currency
Width: 530
VWidth: 0
GlyphClass: 2
Flags: W
HStem: 101 84<247 286.5> 414 115<246.5 287 246.5 314.5>
VStem: 75 54<281 308 261 338> 405 54<308 308>
LayerCount: 2
Fore
SplineSet
418 67 m 257
 369 123 l 257
 340 108 306 101 267 101 c 256
 227 101 191 109 162 125 c 257
 112 67 l 257
 55 122 l 257
 105 180 l 257
 86 212 75 254 75 308 c 256
 75 368 85 414 105 448 c 257
 55 506 l 257
 113 560 l 257
 160 505 l 257
 190 521 226 529 267 529 c 256
 307 529 342 522 371 506 c 257
 417 560 l 257
 475 506 l 257
 428 450 l 257
 448 416 459 369 459 308 c 256
 459 252 448 209 427 176 c 257
 475 122 l 257
 418 67 l 257
267 185 m 256
 346 185 406 214 405 308 c 256
 404 371 362 414 267 414 c 256
 172 414 130 371 129 308 c 256
 129 214 188 185 267 185 c 256
EndSplineSet
PickledDataWithLists: "(dp1
S'com.fontlab.hintData'
p2
(dp3
S'vhints'
p4
(lp5
(dp6
S'position'
p7
I75
sS'width'
p8
I54
sa(dp9
g7
I405
sg8
I54
sasS'hhints'
p10
(lp11
(dp12
g7
I101
sg8
I84
sa(dp13
g7
I414
sg8
I115
sass."
EndChar

StartChar: d
Encoding: 185 100 185
GlifName: d
Width: 605
VWidth: 0
GlyphClass: 2
Flags: HW
HStem: -10 118<198.5 283.5> 398 162
VStem: 35 59<266 303 266 373.5> 409 65<168 266 266 266 461 780 0 780>
LayerCount: 2
Fore
SplineSet
462 625 m 261
 341 625 410 625 289 625 c 261
 289 800 l 261
 462 800 l 261
 462 625 l 261
592 0 m 257
 537.666666667 -0 483.333333333 0 429 0 c 257
 429 144 l 257
 592 144 l 257
 592 0 l 257
251 108 m 256
 325 108 375 120 409 168 c 257
 409 266 l 258
 408 340 365 398 249 398 c 256
 147 398 94 340 94 266 c 256
 93 172 146 108 251 108 c 256
419 0 m 257
 412 86 l 257
 381 31 320 -10 247 -10 c 256
 113 -10 35 91 35 266 c 256
 35 481 119 561 243 560 c 256
 306 559 375 536 409 461 c 257
 409 800 l 257
 474 800 l 257
 474 0 l 257
 419 0 l 257
EndSplineSet
PickledDataWithLists: "(dp1
S'com.fontlab.hintData'
p2
(dp3
S'vhints'
p4
(lp5
(dp6
S'position'
p7
I35
sS'width'
p8
I59
sa(dp9
g7
I409
sg8
I65
sasS'hhints'
p10
(lp11
(dp12
g7
I-10
sg8
I118
sa(dp13
g7
I398
sg8
I162
sass."
EndChar

StartChar: dagger
Encoding: 186 8224 186
GlifName: dagger
Width: 330
VWidth: 0
GlyphClass: 2
Flags: W
HStem: 0 730<144 185 144 144>
VStem: 12 306<503 630 503 630> 144 41<0 142.5>
LayerCount: 2
Fore
SplineSet
81 730 m 257
 250 730 l 257
 186 593 l 257
 318 630 l 257
 318 503 l 257
 185 542 l 257
 179 445 215 388 264 375 c 257
 207 340 185 285 185 0 c 257
 144 0 l 257
 144 285 120 340 65 375 c 257
 114 388 149 445 144 542 c 257
 12 503 l 257
 12 630 l 257
 144 593 l 257
 81 730 l 257
EndSplineSet
PickledDataWithLists: "(dp1
S'com.fontlab.hintData'
p2
(dp3
S'vhints'
p4
(lp5
(dp6
S'position'
p7
I12
sS'width'
p8
I306
sa(dp9
g7
I144
sg8
I41
sasS'hhints'
p10
(lp11
(dp12
g7
I0
sg8
I730
sass."
EndChar

StartChar: daggerdbl
Encoding: 187 8225 187
GlifName: daggerdbl
Width: 330
VWidth: 0
GlyphClass: 2
Flags: W
HStem: 0 730<81 250 81 250>
VStem: 12 306<100 227 100 227 503 630> 144 41<188 188>
LayerCount: 2
Fore
SplineSet
65 365 m 257
 114 378 149 445 144 542 c 257
 12 503 l 257
 12 630 l 257
 144 593 l 257
 81 730 l 257
 250 730 l 257
 186 593 l 257
 318 630 l 257
 318 503 l 257
 185 542 l 257
 179 445 215 378 264 365 c 257
 215 352 179 285 185 188 c 257
 318 227 l 257
 318 100 l 257
 186 137 l 257
 250 0 l 257
 81 0 l 257
 144 137 l 257
 12 100 l 257
 12 227 l 257
 144 188 l 257
 149 285 114 352 65 365 c 257
EndSplineSet
PickledDataWithLists: "(dp1
S'com.fontlab.hintData'
p2
(dp3
S'vhints'
p4
(lp5
(dp6
S'position'
p7
I12
sS'width'
p8
I306
sa(dp9
g7
I144
sg8
I41
sasS'hhints'
p10
(lp11
(dp12
g7
I0
sg8
I730
sass."
EndChar

StartChar: dcaron
Encoding: 188 271 188
GlifName: dcaron
Width: 680
VWidth: 0
GlyphClass: 2
Flags: W
HStem: -10 118<188.5 273.5> 398 162
VStem: 25 59<266 303 266 373.5> 399 65<168 266 266 266 461 780 0 780> 564 111
LayerCount: 2
Fore
SplineSet
495 497 m 257
 561 551 583 696 546 780 c 257
 672 780 l 257
 691 663 621 515 515 483 c 257
 495 497 l 257
241 108 m 256
 315 108 365 120 399 168 c 257
 399 266 l 258
 398 340 355 398 239 398 c 256
 137 398 84 340 84 266 c 256
 83 172 136 108 241 108 c 256
409 0 m 257
 402 86 l 257
 371 31 310 -10 237 -10 c 256
 103 -10 25 91 25 266 c 256
 25 481 109 561 233 560 c 256
 296 559 365 536 399 461 c 257
 399 780 l 257
 464 780 l 257
 464 0 l 257
 409 0 l 257
EndSplineSet
PickledDataWithLists: "(dp1
S'com.fontlab.hintData'
p2
(dp3
S'vhints'
p4
(lp5
(dp6
S'position'
p7
I25
sS'width'
p8
I59
sa(dp9
g7
I399
sg8
I65
sa(dp10
g7
I564
sg8
I111
sasS'hhints'
p11
(lp12
(dp13
g7
I-10
sg8
I118
sa(dp14
g7
I398
sg8
I162
sass."
EndChar

StartChar: dcroat
Encoding: 189 273 189
GlifName: dcroat
Width: 530
VWidth: 0
GlyphClass: 2
Flags: W
HStem: -10 118<188.5 273.5> 398 162 621 74<287 399 287 399 287 464 464 557>
VStem: 25 59<266 303 266 373.5> 399 65<168 266 266 266 461 621 0 621 695 780>
LayerCount: 2
Fore
SplineSet
241 108 m 256
 315 108 365 120 399 168 c 257
 399 266 l 258
 398 340 355 398 239 398 c 256
 137 398 84 340 84 266 c 256
 83 172 136 108 241 108 c 256
409 0 m 257
 402 86 l 257
 371 31 310 -10 237 -10 c 256
 103 -10 25 91 25 266 c 256
 25 481 109 561 233 560 c 256
 296 559 365 536 399 461 c 257
 399 621 l 257
 287 621 l 257
 287 695 l 257
 399 695 l 257
 399 780 l 257
 464 780 l 257
 464 695 l 257
 557 695 l 257
 557 621 l 257
 464 621 l 257
 464 0 l 257
 409 0 l 257
EndSplineSet
PickledDataWithLists: "(dp1
S'com.fontlab.hintData'
p2
(dp3
S'vhints'
p4
(lp5
(dp6
S'position'
p7
I25
sS'width'
p8
I59
sa(dp9
g7
I399
sg8
I65
sasS'hhints'
p10
(lp11
(dp12
g7
I-10
sg8
I118
sa(dp13
g7
I398
sg8
I162
sa(dp14
g7
I621
sg8
I74
sass."
EndChar

StartChar: degree
Encoding: 190 176 190
GlifName: degree
Width: 280
VWidth: 0
GlyphClass: 2
Flags: W
HStem: 496 62<120 161 120 175> 682 72<119 160>
VStem: 20 43<625 625> 218 42<625 625>
LayerCount: 2
Fore
SplineSet
260 625 m 256
 259 536 209 496 141 496 c 256
 79 496 21 535 20 625 c 256
 21 714 71 754 139 754 c 256
 201 754 259 715 260 625 c 256
218 625 m 256
 216 665 181 682 139 682 c 256
 99 682 64 670 63 625 c 256
 64 578 99 558 141 558 c 256
 181 558 216 572 218 625 c 256
EndSplineSet
PickledDataWithLists: "(dp1
S'com.fontlab.hintData'
p2
(dp3
S'vhints'
p4
(lp5
(dp6
S'position'
p7
I20
sS'width'
p8
I43
sa(dp9
g7
I218
sg8
I42
sasS'hhints'
p10
(lp11
(dp12
g7
I496
sg8
I62
sa(dp13
g7
I682
sg8
I72
sass."
EndChar

StartChar: dieresis
Encoding: 191 168 191
GlifName: dieresis
Width: 530
VWidth: 0
GlyphClass: 2
Flags: W
HStem: 666 131<139.5 189 350 399>
VStem: 86 154<708.5 753.5> 296 154<708.5 753.5>
LayerCount: 2
Fore
SplineSet
450 730 m 256
 450 687 422 666 376 666 c 256
 324 666 296 687 296 730 c 256
 296 777 323 797 376 797 c 256
 423 797 450 778 450 730 c 256
240 730 m 256
 240 687 212 666 166 666 c 256
 113 666 86 687 86 730 c 256
 86 777 113 797 166 797 c 256
 213 797 240 778 240 730 c 256
EndSplineSet
PickledDataWithLists: "(dp1
S'com.fontlab.hintData'
p2
(dp3
S'vhints'
p4
(lp5
(dp6
S'position'
p7
I86
sS'width'
p8
I154
sa(dp9
g7
I296
sg8
I154
sasS'hhints'
p10
(lp11
(dp12
g7
I666
sg8
I131
sass."
EndChar

StartChar: dieresis.case
Encoding: 192 -1 192
GlifName: dieresis.case
Width: 730
VWidth: 0
GlyphClass: 2
Flags: W
HStem: 786 131<236.5 286 447 496>
VStem: 183 154<828.5 873.5> 393 154<828.5 873.5>
LayerCount: 2
Fore
SplineSet
547 850 m 256
 547 807 519 786 473 786 c 256
 421 786 393 807 393 850 c 256
 393 897 420 917 473 917 c 256
 520 917 547 898 547 850 c 256
337 850 m 256
 337 807 309 786 263 786 c 256
 210 786 183 807 183 850 c 256
 183 897 210 917 263 917 c 256
 310 917 337 898 337 850 c 256
EndSplineSet
PickledDataWithLists: "(dp1
S'com.fontlab.hintData'
p2
(dp3
S'vhints'
p4
(lp5
(dp6
S'position'
p7
I183
sS'width'
p8
I154
sa(dp9
g7
I393
sg8
I154
sasS'hhints'
p10
(lp11
(dp12
g7
I786
sg8
I131
sass."
EndChar

StartChar: divide
Encoding: 193 247 193
GlifName: divide
Width: 530
VWidth: 0
GlyphClass: 2
Flags: W
HStem: 84 131<245 294> 267 109<62 448 62 448> 423 131<242.5 292>
VStem: 62 386<267 376 267 376> 189 154<465.5 510.5>
LayerCount: 2
Fore
SplineSet
343 487 m 256
 343 444 315 423 269 423 c 256
 216 423 189 444 189 487 c 256
 189 534 216 554 269 554 c 256
 316 554 343 535 343 487 c 256
448 267 m 257
 62 267 l 257
 62 376 l 257
 448 376 l 257
 448 267 l 257
345 148 m 256
 345 105 317 84 271 84 c 256
 219 84 191 105 191 148 c 256
 191 195 218 215 271 215 c 256
 318 215 345 196 345 148 c 256
EndSplineSet
PickledDataWithLists: "(dp1
S'com.fontlab.hintData'
p2
(dp3
S'vhints'
p4
(lp5
(dp6
S'position'
p7
I62
sS'width'
p8
I386
sa(dp9
g7
I189
sg8
I154
sasS'hhints'
p10
(lp11
(dp12
g7
I84
sg8
I131
sa(dp13
g7
I267
sg8
I109
sa(dp14
g7
I423
sg8
I131
sass."
EndChar

StartChar: dollar
Encoding: 194 36 194
GlifName: dollar
Width: 730
VWidth: 0
GlyphClass: 2
Flags: W
HStem: -10 148<343 343> 591 169<343 343>
VStem: 95 89<485 514.5 468.5 605.5> 343 70<-85 -10 -10 -10 139 326 402 588 760 830> 552 95<129.5 255>
LayerCount: 2
Fore
SplineSet
184 490 m 256
 184 447 209 416 343 402 c 257
 343 591 l 257
 220 587 184 539 184 490 c 256
552 234 m 256
 552 276 511 311 413 326 c 257
 413 139 l 257
 512 148 552 186 552 234 c 256
413 -85 m 257
 343 -85 l 257
 343 -10 l 257
 211 -4 93 54 63 124 c 257
 108 261 l 257
 135 196 242 144 343 138 c 257
 343 333 l 257
 147 352 95 423 95 547 c 256
 95 664 185 755 343 760 c 257
 343 830 l 257
 413 830 l 257
 413 757 l 257
 517 744 589 697 618 650 c 257
 586 519 l 257
 556 544 498 577 413 588 c 257
 413 395 l 257
 584 370 648 295 647 187 c 256
 647 72 562 4 413 -8 c 257
 413 -85 l 257
EndSplineSet
PickledDataWithLists: "(dp1
S'com.fontlab.hintData'
p2
(dp3
S'vhints'
p4
(lp5
(dp6
S'position'
p7
I95
sS'width'
p8
I89
sa(dp9
g7
I343
sg8
I70
sa(dp10
g7
I552
sg8
I95
sasS'hhints'
p11
(lp12
(dp13
g7
I-10
sg8
I148
sa(dp14
g7
I591
sg8
I169
sass."
EndChar

StartChar: dotaccent
Encoding: 195 729 195
GlifName: dotaccent
Width: 530
VWidth: 0
GlyphClass: 2
Flags: W
HStem: 659 145<239 293.5>
VStem: 179 172<706 756>
LayerCount: 2
Fore
SplineSet
351 730 m 256
 351 682 319 659 268 659 c 256
 210 659 179 682 179 730 c 256
 179 782 209 804 268 804 c 256
 320 804 351 783 351 730 c 256
EndSplineSet
PickledDataWithLists: "(dp1
S'com.fontlab.hintData'
p2
(dp3
S'vhints'
p4
(lp5
(dp6
S'position'
p7
I179
sS'width'
p8
I172
sasS'hhints'
p9
(lp10
(dp11
g7
I659
sg8
I145
sass."
EndChar

StartChar: dotaccent.case
Encoding: 196 -1 196
GlifName: dotaccent.case
Width: 730
VWidth: 0
GlyphClass: 2
Flags: W
HStem: 779 145<339 393.5>
VStem: 279 172<826 876>
LayerCount: 2
Fore
SplineSet
451 850 m 256
 451 802 419 779 368 779 c 256
 310 779 279 802 279 850 c 256
 279 902 309 924 368 924 c 256
 420 924 451 903 451 850 c 256
EndSplineSet
PickledDataWithLists: "(dp1
S'com.fontlab.hintData'
p2
(dp3
S'vhints'
p4
(lp5
(dp6
S'position'
p7
I279
sS'width'
p8
I172
sasS'hhints'
p9
(lp10
(dp11
g7
I779
sg8
I145
sass."
EndChar

StartChar: dotlessi
Encoding: 197 305 197
GlifName: dotlessi
Width: 330
VWidth: 0
GlyphClass: 2
Flags: W
HStem: 369 170<60 185 60 250>
VStem: 185 65<0 369 369 369>
LayerCount: 2
Fore
SplineSet
185 0 m 257
 185 369 l 257
 60 369 l 257
 60 539 l 257
 250 539 l 257
 250 0 l 257
 185 0 l 257
EndSplineSet
PickledDataWithLists: "(dp1
S'com.fontlab.hintData'
p2
(dp3
S'vhints'
p4
(lp5
(dp6
S'position'
p7
I185
sS'width'
p8
I65
sasS'hhints'
p9
(lp10
(dp11
g7
I369
sg8
I170
sass."
EndChar

StartChar: dotlessj
Encoding: 198 567 198
GlifName: dotlessj
Width: 330
VWidth: 0
GlyphClass: 2
Flags: W
HStem: -210 130 368 172<40 165 40 230>
VStem: 165 65<11 368 368 368>
LayerCount: 2
Fore
SplineSet
230 -67 m 258
 230 -159 186 -210 108 -210 c 256
 42 -210 1 -179 -18 -148 c 257
 10 -48 l 257
 33 -73 65 -81 89 -80 c 256
 137 -78 165 -58 165 11 c 258
 165 368 l 257
 40 368 l 257
 40 540 l 257
 230 540 l 257
 230 -67 l 258
EndSplineSet
PickledDataWithLists: "(dp1
S'com.fontlab.hintData'
p2
(dp3
S'vhints'
p4
(lp5
(dp6
S'position'
p7
I165
sS'width'
p8
I65
sasS'hhints'
p9
(lp10
(dp11
g7
I-210
sg8
I130
sa(dp12
g7
I368
sg8
I172
sass."
EndChar

StartChar: e
Encoding: 199 101 199
GlifName: e
Width: 530
VWidth: 0
GlyphClass: 2
Flags: HW
HStem: -10 111 232 65<106 430 106 495 106 430> 418 142<227.5 316>
VStem: 45 61<232 232> 430 65<297 327.5>
LayerCount: 2
Fore
SplineSet
265 408 m 256
 190 408 120 373 106 297 c 257
 430 297 l 257
 430 358 367 408 265 408 c 256
476 126 m 257
 443 50 369 -10 272 -10 c 256
 122 -10 45 105 45 267 c 256
 45 480 150 560 270 560 c 256
 406 560 492 479 492 232 c 257
 106 232 l 257
 119 144 178 112 270 111 c 256
 358 110 400 131 429 171 c 261
 476 126 l 257
EndSplineSet
PickledDataWithLists: "(dp1
S'com.fontlab.hintData'
p2
(dp3
S'vhints'
p4
(lp5
(dp6
S'position'
p7
I45
sS'width'
p8
I61
sa(dp9
g7
I430
sg8
I65
sasS'hhints'
p10
(lp11
(dp12
g7
I-10
sg8
I111
sa(dp13
g7
I232
sg8
I65
sa(dp14
g7
I418
sg8
I142
sass."
EndChar

StartChar: eacute
Encoding: 200 233 200
GlifName: eacute
Width: 530
VWidth: 0
GlyphClass: 2
Flags: W
HStem: -10 111 232 65<96 420 96 485 96 420> 418 142<217.5 306> 655 109
VStem: 35 61<232 232> 420 65<297 327.5>
LayerCount: 2
Fore
SplineSet
116 593 m 257
 104 615 l 257
 139 718 278 781 385 760 c 257
 380 634 l 257
 302 673 170 655 116 593 c 257
255 418 m 256
 180 418 110 373 96 297 c 257
 420 297 l 257
 420 358 357 418 255 418 c 256
466 126 m 257
 433 50 359 -10 262 -10 c 256
 112 -10 35 105 35 267 c 256
 35 480 140 560 260 560 c 256
 396 560 485 460 485 232 c 257
 96 232 l 257
 109 144 168 102 260 101 c 256
 348 100 390 121 419 161 c 257
 466 126 l 257
EndSplineSet
PickledDataWithLists: "(dp1
S'com.fontlab.hintData'
p2
(dp3
S'vhints'
p4
(lp5
(dp6
S'position'
p7
I35
sS'width'
p8
I61
sa(dp9
g7
I420
sg8
I65
sasS'hhints'
p10
(lp11
(dp12
g7
I-10
sg8
I111
sa(dp13
g7
I232
sg8
I65
sa(dp14
g7
I418
sg8
I142
sa(dp15
g7
I655
sg8
I109
sass."
EndChar

StartChar: ebreve
Encoding: 201 277 201
GlifName: ebreve
Width: 530
VWidth: 0
GlyphClass: 2
Flags: W
HStem: -10 111 232 65<96 420 96 485 96 420> 418 142<217.5 306> 619 87<219.5 284.5 219.5 301>
VStem: 35 61<232 232> 85 51<737 800> 375 50<737 800> 420 65<297 327.5>
LayerCount: 2
Fore
SplineSet
250 619 m 256
 154 619 85 674 85 800 c 257
 136 800 l 257
 135 729 189 706 250 706 c 256
 319 706 376 729 375 800 c 257
 425 800 l 257
 425 674 352 619 250 619 c 256
255 418 m 256
 180 418 110 373 96 297 c 257
 420 297 l 257
 420 358 357 418 255 418 c 256
466 126 m 257
 433 50 359 -10 262 -10 c 256
 112 -10 35 105 35 267 c 256
 35 480 140 560 260 560 c 256
 396 560 485 460 485 232 c 257
 96 232 l 257
 109 144 168 102 260 101 c 256
 348 100 390 121 419 161 c 257
 466 126 l 257
EndSplineSet
PickledDataWithLists: "(dp1
S'com.fontlab.hintData'
p2
(dp3
S'vhints'
p4
(lp5
(dp6
S'position'
p7
I35
sS'width'
p8
I61
sa(dp9
g7
I85
sg8
I51
sa(dp10
g7
I375
sg8
I50
sa(dp11
g7
I420
sg8
I65
sasS'hhints'
p12
(lp13
(dp14
g7
I-10
sg8
I111
sa(dp15
g7
I232
sg8
I65
sa(dp16
g7
I418
sg8
I142
sa(dp17
g7
I619
sg8
I87
sass."
EndChar

StartChar: ecaron
Encoding: 202 283 202
GlifName: ecaron
Width: 530
VWidth: 0
GlyphClass: 2
Flags: W
HStem: -10 111 232 65<96 420 96 485 96 420> 418 142<217.5 306>
VStem: 35 61<232 232> 80 364<766 800 766 800> 420 65<297 327.5>
LayerCount: 2
Fore
SplineSet
444 800 m 257
 444 766 l 257
 376 754 304 685 272 625 c 257
 252 625 l 257
 220 685 148 754 80 766 c 257
 80 800 l 257
 152 805 242 786 262 746 c 257
 282 786 372 805 444 800 c 257
255 418 m 256
 180 418 110 373 96 297 c 257
 420 297 l 257
 420 358 357 418 255 418 c 256
466 126 m 257
 433 50 359 -10 262 -10 c 256
 112 -10 35 105 35 267 c 256
 35 480 140 560 260 560 c 256
 396 560 485 460 485 232 c 257
 96 232 l 257
 109 144 168 102 260 101 c 256
 348 100 390 121 419 161 c 257
 466 126 l 257
EndSplineSet
PickledDataWithLists: "(dp1
S'com.fontlab.hintData'
p2
(dp3
S'vhints'
p4
(lp5
(dp6
S'position'
p7
I35
sS'width'
p8
I61
sa(dp9
g7
I80
sg8
I364
sa(dp10
g7
I420
sg8
I65
sasS'hhints'
p11
(lp12
(dp13
g7
I-10
sg8
I111
sa(dp14
g7
I232
sg8
I65
sa(dp15
g7
I418
sg8
I142
sass."
EndChar

StartChar: ecircumflex
Encoding: 203 234 203
GlifName: ecircumflex
Width: 530
VWidth: 0
GlyphClass: 2
Flags: W
HStem: -10 111 232 65<96 420 96 485 96 420> 418 142<217.5 306>
VStem: 35 61<232 232> 80 364<625 659 625 659> 420 65<297 327.5>
LayerCount: 2
Fore
SplineSet
444 625 m 257
 376 620 282 639 262 679 c 257
 242 639 148 620 80 625 c 257
 80 659 l 257
 144 670 220 741 252 800 c 257
 272 800 l 257
 304 741 380 670 444 659 c 257
 444 625 l 257
255 418 m 256
 180 418 110 373 96 297 c 257
 420 297 l 257
 420 358 357 418 255 418 c 256
466 126 m 257
 433 50 359 -10 262 -10 c 256
 112 -10 35 105 35 267 c 256
 35 480 140 560 260 560 c 256
 396 560 485 460 485 232 c 257
 96 232 l 257
 109 144 168 102 260 101 c 256
 348 100 390 121 419 161 c 257
 466 126 l 257
EndSplineSet
PickledDataWithLists: "(dp1
S'com.fontlab.hintData'
p2
(dp3
S'vhints'
p4
(lp5
(dp6
S'position'
p7
I35
sS'width'
p8
I61
sa(dp9
g7
I80
sg8
I364
sa(dp10
g7
I420
sg8
I65
sasS'hhints'
p11
(lp12
(dp13
g7
I-10
sg8
I111
sa(dp14
g7
I232
sg8
I65
sa(dp15
g7
I418
sg8
I142
sass."
EndChar

StartChar: edieresis
Encoding: 204 235 204
GlifName: edieresis
Width: 530
VWidth: 0
GlyphClass: 2
Flags: W
HStem: -10 111 232 65<96 420 96 485 96 420> 418 142<217.5 306> 666 131<129.5 179 340 389>
VStem: 35 61<232 232> 76 154<708.5 753.5> 286 154<708.5 753.5> 420 65<297 327.5>
LayerCount: 2
Fore
SplineSet
440 730 m 256
 440 687 412 666 366 666 c 256
 314 666 286 687 286 730 c 256
 286 777 313 797 366 797 c 256
 413 797 440 778 440 730 c 256
230 730 m 256
 230 687 202 666 156 666 c 256
 103 666 76 687 76 730 c 256
 76 777 103 797 156 797 c 256
 203 797 230 778 230 730 c 256
255 418 m 256
 180 418 110 373 96 297 c 257
 420 297 l 257
 420 358 357 418 255 418 c 256
466 126 m 257
 433 50 359 -10 262 -10 c 256
 112 -10 35 105 35 267 c 256
 35 480 140 560 260 560 c 256
 396 560 485 460 485 232 c 257
 96 232 l 257
 109 144 168 102 260 101 c 256
 348 100 390 121 419 161 c 257
 466 126 l 257
EndSplineSet
PickledDataWithLists: "(dp1
S'com.fontlab.hintData'
p2
(dp3
S'vhints'
p4
(lp5
(dp6
S'position'
p7
I35
sS'width'
p8
I61
sa(dp9
g7
I76
sg8
I154
sa(dp10
g7
I286
sg8
I154
sa(dp11
g7
I420
sg8
I65
sasS'hhints'
p12
(lp13
(dp14
g7
I-10
sg8
I111
sa(dp15
g7
I232
sg8
I65
sa(dp16
g7
I418
sg8
I142
sa(dp17
g7
I666
sg8
I131
sass."
EndChar

StartChar: edotaccent
Encoding: 205 279 205
GlifName: edotaccent
Width: 530
VWidth: 0
GlyphClass: 2
Flags: W
HStem: -10 111 232 65<96 420 96 485 96 420> 418 142<217.5 306> 659 145<229 283.5>
VStem: 35 61<232 232> 169 172<706 756> 420 65<297 327.5>
LayerCount: 2
Fore
SplineSet
341 730 m 256
 341 682 309 659 258 659 c 256
 200 659 169 682 169 730 c 256
 169 782 199 804 258 804 c 256
 310 804 341 783 341 730 c 256
255 418 m 256
 180 418 110 373 96 297 c 257
 420 297 l 257
 420 358 357 418 255 418 c 256
466 126 m 257
 433 50 359 -10 262 -10 c 256
 112 -10 35 105 35 267 c 256
 35 480 140 560 260 560 c 256
 396 560 485 460 485 232 c 257
 96 232 l 257
 109 144 168 102 260 101 c 256
 348 100 390 121 419 161 c 257
 466 126 l 257
EndSplineSet
PickledDataWithLists: "(dp1
S'com.fontlab.hintData'
p2
(dp3
S'vhints'
p4
(lp5
(dp6
S'position'
p7
I35
sS'width'
p8
I61
sa(dp9
g7
I169
sg8
I172
sa(dp10
g7
I420
sg8
I65
sasS'hhints'
p11
(lp12
(dp13
g7
I-10
sg8
I111
sa(dp14
g7
I232
sg8
I65
sa(dp15
g7
I418
sg8
I142
sa(dp16
g7
I659
sg8
I145
sass."
EndChar

StartChar: egrave
Encoding: 206 232 206
GlifName: egrave
Width: 530
VWidth: 0
GlyphClass: 2
Flags: W
HStem: -10 111 232 65<96 420 96 485 96 420> 418 142<217.5 306> 675 109
VStem: 35 61<232 232> 420 65<297 327.5>
LayerCount: 2
Fore
SplineSet
394 613 m 257
 340 675 207 693 130 654 c 257
 125 780 l 257
 233 802 371 739 406 635 c 257
 394 613 l 257
255 418 m 256
 180 418 110 373 96 297 c 257
 420 297 l 257
 420 358 357 418 255 418 c 256
466 126 m 257
 433 50 359 -10 262 -10 c 256
 112 -10 35 105 35 267 c 256
 35 480 140 560 260 560 c 256
 396 560 485 460 485 232 c 257
 96 232 l 257
 109 144 168 102 260 101 c 256
 348 100 390 121 419 161 c 257
 466 126 l 257
EndSplineSet
PickledDataWithLists: "(dp1
S'com.fontlab.hintData'
p2
(dp3
S'vhints'
p4
(lp5
(dp6
S'position'
p7
I35
sS'width'
p8
I61
sa(dp9
g7
I420
sg8
I65
sasS'hhints'
p10
(lp11
(dp12
g7
I-10
sg8
I111
sa(dp13
g7
I232
sg8
I65
sa(dp14
g7
I418
sg8
I142
sa(dp15
g7
I675
sg8
I109
sass."
EndChar

StartChar: eight
Encoding: 207 56 207
GlifName: eight
Width: 630
VWidth: 0
GlyphClass: 2
Flags: W
HStem: -10 116<260.5 385 260.5 407> 576 164<267.5 380>
VStem: 74 63 83 64<498.5 504 467 606.5> 494 59 508 68<189.5 220>
LayerCount: 2
Fore
SplineSet
324 -10 m 256
 170 -10 74 74 74 208 c 256
 74 288 104 343 170 379 c 257
 112 405 83 458 83 539 c 256
 83 674 192 740 324 740 c 256
 461 740 553 685 553 521 c 256
 553 455 533 399 485 357 c 257
 542 324 576 265 576 180 c 256
 576 67 490 -10 324 -10 c 256
147 484 m 256
 147 450 178 418 236 404 c 257
 262 411 291 416 324 420 c 256
 425 432 493 446 494 501 c 256
 495 549 436 576 324 576 c 256
 211 576 147 524 147 484 c 256
324 106 m 256
 446 106 508 159 508 220 c 256
 511 270 483 309 440 327 c 257
 409 311 370 298 324 291 c 256
 188 269 138 237 137 190 c 256
 136 144 197 106 324 106 c 256
EndSplineSet
PickledDataWithLists: "(dp1
S'com.fontlab.hintData'
p2
(dp3
S'vhints'
p4
(lp5
(dp6
S'position'
p7
I74
sS'width'
p8
I63
sa(dp9
g7
I83
sg8
I64
sa(dp10
g7
I494
sg8
I59
sa(dp11
g7
I508
sg8
I68
sasS'hhints'
p12
(lp13
(dp14
g7
I-10
sg8
I116
sa(dp15
g7
I576
sg8
I164
sass."
Substitution2: "onumOldstyleFiguresinLatinlookup1 subtable" eight.osf
EndChar

StartChar: eight.osf
Encoding: 208 -1 208
GlifName: eight.osf
Width: 630
VWidth: 0
GlyphClass: 2
Flags: W
HStem: -10 116<250.5 375 250.5 397> 576 164<257.5 370>
VStem: 64 63 73 64<498.5 504 467 606.5> 484 59 498 68<189.5 220>
LayerCount: 2
Fore
SplineSet
314 -10 m 256
 160 -10 64 74 64 208 c 256
 64 288 94 343 160 379 c 257
 102 405 73 458 73 539 c 256
 73 674 182 740 314 740 c 256
 451 740 543 685 543 521 c 256
 543 455 523 399 475 357 c 257
 532 324 566 265 566 180 c 256
 566 67 480 -10 314 -10 c 256
137 484 m 256
 137 450 168 418 226 404 c 257
 252 411 281 416 314 420 c 256
 415 432 483 446 484 501 c 256
 485 549 426 576 314 576 c 256
 201 576 137 524 137 484 c 256
314 106 m 256
 436 106 498 159 498 220 c 256
 501 270 473 309 430 327 c 257
 399 311 360 298 314 291 c 256
 178 269 128 237 127 190 c 256
 126 144 187 106 314 106 c 256
EndSplineSet
PickledDataWithLists: "(dp1
S'com.fontlab.hintData'
p2
(dp3
S'vhints'
p4
(lp5
(dp6
S'position'
p7
I64
sS'width'
p8
I63
sa(dp9
g7
I73
sg8
I64
sa(dp10
g7
I484
sg8
I59
sa(dp11
g7
I498
sg8
I68
sasS'hhints'
p12
(lp13
(dp14
g7
I-10
sg8
I116
sa(dp15
g7
I576
sg8
I164
sass."
Substitution2: "lnumLiningFiguresinLatinlookup0 subtable" eight
EndChar

